<svg xmlns="http://www.w3.org/2000/svg" xmlns:xlink="http://www.w3.org/1999/xlink" width="256" zoomAndPan="magnify" viewBox="0 0 192 191.999996" height="256" preserveAspectRatio="xMidYMid meet" version="1.0"><defs><clipPath id="290db3bd6e"><path d="M 104 22.953125 L 134 22.953125 L 134 53 L 104 53 Z M 104 22.953125 " clip-rule="nonzero"/></clipPath><clipPath id="8b831a540b"><path d="M 32.539062 106 L 72 106 L 72 136 L 32.539062 136 Z M 32.539062 106 " clip-rule="nonzero"/></clipPath></defs><path fill="#000000" d="M 122.207031 60.394531 L 136.808594 76.972656 L 152.957031 82.28125 C 157.09375 83.578125 159.289062 87.980469 157.996094 92.125 C 156.703125 96.269531 152.3125 98.472656 148.175781 97.175781 L 129.960938 91.21875 C 128.410156 90.703125 127.117188 89.792969 126.210938 88.628906 L 122.722656 84.613281 L 119.363281 113.496094 C 119.363281 113.753906 119.234375 114.015625 118.976562 114.273438 C 118.71875 114.402344 118.460938 114.53125 118.203125 114.53125 L 103.859375 112.847656 L 103.601562 112.847656 L 99.855469 139.789062 C 99.597656 141.601562 98.691406 143.285156 97.398438 144.449219 L 75.175781 165.042969 C 72.074219 168.023438 67.035156 167.765625 64.195312 164.527344 C 61.222656 161.417969 61.480469 156.367188 64.710938 153.515625 L 84.867188 134.867188 L 90.035156 96.917969 L 90.035156 96.789062 C 90.035156 96.269531 90.035156 95.882812 90.164062 95.363281 L 92.359375 76.84375 L 85.382812 80.339844 L 75.953125 94.976562 C 73.625 98.601562 68.84375 99.636719 65.226562 97.308594 C 61.609375 94.976562 60.578125 90.183594 62.902344 86.558594 L 73.496094 70.109375 C 74.402344 68.683594 75.695312 67.777344 76.984375 67.128906 L 102.695312 54.175781 C 108.640625 51.199219 112.128906 56.898438 112 65.1875 C 113.550781 58.582031 117.8125 55.214844 122.207031 60.265625 Z M 122.207031 60.394531 " fill-opacity="1" fill-rule="evenodd"/><path fill="#000000" d="M 98.5625 110.515625 C 95.589844 107.410156 95.71875 102.488281 98.820312 99.507812 C 101.921875 96.53125 106.832031 96.660156 109.804688 99.765625 L 138.097656 129.296875 C 138.875 130.074219 139.519531 131.109375 139.777344 132.148438 L 148.824219 157.792969 C 150.246094 161.804688 148.175781 166.339844 144.042969 167.765625 C 140.039062 169.1875 135.515625 167.117188 134.09375 162.972656 L 125.566406 138.882812 L 98.433594 110.515625 Z M 98.5625 110.515625 " fill-opacity="1" fill-rule="nonzero"/><g clip-path="url(#290db3bd6e)"><path fill="#000000" d="M 133.320312 37.597656 C 133.320312 38.558594 133.226562 39.511719 133.039062 40.453125 C 132.851562 41.398438 132.574219 42.3125 132.207031 43.199219 C 131.839844 44.085938 131.390625 44.929688 130.859375 45.730469 C 130.324219 46.527344 129.71875 47.269531 129.042969 47.949219 C 128.363281 48.628906 127.628906 49.234375 126.828125 49.769531 C 126.03125 50.300781 125.191406 50.753906 124.304688 51.121094 C 123.421875 51.488281 122.507812 51.765625 121.566406 51.953125 C 120.625 52.140625 119.675781 52.234375 118.71875 52.234375 C 117.761719 52.234375 116.808594 52.140625 115.871094 51.953125 C 114.929688 51.765625 114.015625 51.488281 113.132812 51.121094 C 112.246094 50.753906 111.402344 50.300781 110.605469 49.769531 C 109.808594 49.234375 109.074219 48.628906 108.394531 47.949219 C 107.71875 47.269531 107.113281 46.527344 106.578125 45.730469 C 106.046875 44.929688 105.597656 44.085938 105.230469 43.199219 C 104.863281 42.3125 104.585938 41.398438 104.398438 40.453125 C 104.210938 39.511719 104.117188 38.558594 104.117188 37.597656 C 104.117188 36.636719 104.210938 35.6875 104.398438 34.742188 C 104.585938 33.800781 104.863281 32.886719 105.230469 32 C 105.597656 31.109375 106.046875 30.265625 106.578125 29.46875 C 107.113281 28.667969 107.71875 27.929688 108.394531 27.25 C 109.074219 26.570312 109.808594 25.964844 110.605469 25.429688 C 111.402344 24.894531 112.246094 24.445312 113.132812 24.078125 C 114.015625 23.710938 114.929688 23.433594 115.871094 23.246094 C 116.808594 23.058594 117.761719 22.964844 118.71875 22.964844 C 119.675781 22.964844 120.625 23.058594 121.566406 23.246094 C 122.507812 23.433594 123.421875 23.710938 124.304688 24.078125 C 125.191406 24.445312 126.03125 24.894531 126.828125 25.429688 C 127.628906 25.964844 128.363281 26.570312 129.042969 27.25 C 129.71875 27.929688 130.324219 28.667969 130.859375 29.46875 C 131.390625 30.265625 131.839844 31.109375 132.207031 32 C 132.574219 32.886719 132.851562 33.800781 133.039062 34.742188 C 133.226562 35.6875 133.320312 36.636719 133.320312 37.597656 Z M 133.320312 37.597656 " fill-opacity="1" fill-rule="nonzero"/></g><path fill="#000000" d="M 106.574219 53.660156 C 106.574219 53.660156 77.371094 48.609375 66.90625 48.996094 L 57.21875 54.695312 L 64.96875 61.558594 C 64.96875 61.558594 87.710938 54.695312 105.410156 54.175781 C 105.925781 54.175781 106.054688 53.660156 106.445312 53.660156 Z M 106.574219 53.660156 " fill-opacity="1" fill-rule="evenodd"/><g clip-path="url(#8b831a540b)"><path fill="#000000" d="M 59.027344 121.265625 C 57.992188 121.527344 56.957031 121.398438 56.054688 120.878906 L 50.238281 117.511719 C 49.335938 116.992188 48.691406 116.085938 48.429688 115.050781 C 48.171875 114.273438 48.300781 113.496094 48.558594 112.71875 L 38.480469 106.890625 C 38.222656 106.761719 37.964844 106.632812 37.835938 106.371094 L 32.925781 114.921875 C 32.667969 115.4375 32.539062 115.957031 32.667969 116.476562 C 32.796875 116.992188 33.183594 117.511719 33.703125 117.769531 L 64.195312 135.386719 C 64.710938 135.644531 65.226562 135.773438 65.746094 135.644531 C 66.261719 135.515625 66.777344 135.125 67.035156 134.609375 L 71.945312 126.058594 C 71.6875 125.929688 71.429688 125.800781 71.171875 125.671875 L 61.09375 119.84375 C 60.578125 120.492188 59.800781 120.878906 59.027344 121.136719 Z M 59.027344 121.265625 " fill-opacity="1" fill-rule="evenodd"/></g><path fill="#000000" d="M 57.605469 118.160156 C 57.863281 118.289062 58.121094 118.289062 58.25 118.289062 C 58.507812 118.289062 58.636719 118.03125 58.765625 117.898438 L 59.542969 116.476562 C 59.671875 116.214844 59.671875 115.957031 59.671875 115.828125 C 59.671875 115.570312 59.414062 115.4375 59.285156 115.308594 L 53.46875 111.941406 C 53.210938 111.8125 52.953125 111.8125 52.824219 111.8125 C 52.566406 111.8125 52.4375 112.070312 52.308594 112.203125 L 51.53125 113.625 C 51.402344 113.886719 51.402344 114.144531 51.402344 114.273438 C 51.402344 114.53125 51.660156 114.660156 51.789062 114.792969 Z M 57.605469 118.160156 " fill-opacity="1" fill-rule="evenodd"/><path fill="#000000" d="M 60.835938 112.460938 C 61.738281 112.976562 62.386719 113.886719 62.644531 114.921875 C 62.902344 115.699219 62.773438 116.476562 62.515625 117.253906 L 72.59375 123.082031 C 73.109375 123.339844 73.753906 123.46875 74.402344 123.339844 C 74.917969 123.210938 75.433594 122.820312 75.824219 122.304688 L 80.863281 113.625 C 81.121094 113.109375 81.25 112.460938 81.121094 111.8125 C 80.992188 111.292969 80.601562 110.777344 80.085938 110.386719 L 71.816406 105.597656 L 55.667969 96.269531 L 47.398438 91.476562 C 46.878906 91.21875 46.234375 91.089844 45.589844 91.21875 C 45.070312 91.347656 44.554688 91.738281 44.167969 92.253906 L 39.128906 100.933594 C 38.871094 101.453125 38.742188 102.097656 38.871094 102.746094 C 39 103.265625 39.386719 103.78125 39.902344 104.171875 L 49.980469 110 C 50.5 109.351562 51.273438 108.964844 52.050781 108.703125 C 53.082031 108.445312 54.117188 108.574219 55.019531 109.09375 Z M 60.835938 112.460938 " fill-opacity="1" fill-rule="evenodd"/><path fill="#000000" d="M 57.476562 99.898438 L 67.554688 105.726562 L 69.75 101.96875 C 69.878906 101.710938 69.878906 101.582031 69.878906 101.320312 C 69.878906 101.0625 69.621094 100.933594 69.492188 100.804688 L 60.964844 95.882812 C 60.707031 95.753906 60.445312 95.753906 60.316406 95.753906 C 60.058594 95.753906 59.929688 96.011719 59.800781 96.140625 L 57.605469 99.898438 Z M 67.035156 108.964844 L 55.019531 101.96875 C 54.503906 101.710938 54.246094 101.320312 54.117188 100.804688 C 53.988281 100.285156 53.988281 99.765625 54.246094 99.378906 L 56.957031 94.585938 C 57.476562 93.679688 58.378906 93.03125 59.285156 92.773438 C 60.316406 92.515625 61.351562 92.644531 62.257812 93.164062 L 70.785156 98.082031 C 71.6875 98.601562 72.335938 99.507812 72.59375 100.542969 C 72.851562 101.582031 72.722656 102.617188 72.203125 103.523438 L 69.492188 108.316406 C 69.234375 108.832031 68.84375 109.09375 68.328125 109.222656 C 67.8125 109.351562 67.296875 109.351562 66.90625 109.09375 Z M 67.035156 108.964844 " fill-opacity="1" fill-rule="nonzero"/></svg>