<svg xmlns="http://www.w3.org/2000/svg" xmlns:xlink="http://www.w3.org/1999/xlink" width="256" zoomAndPan="magnify" viewBox="0 0 192 191.999996" height="256" preserveAspectRatio="xMidYMid meet" version="1.0"><defs><clipPath id="3d9436f3b0"><path d="M 28.148438 22.394531 L 163 22.394531 L 163 169.394531 L 28.148438 169.394531 Z M 28.148438 22.394531 " clip-rule="nonzero"/></clipPath></defs><g clip-path="url(#3d9436f3b0)"><path fill="#000000" d="M 158.125 106.996094 L 157.460938 108.632812 C 154.835938 115.046875 152.136719 121.695312 149.628906 128.28125 C 145.753906 138.515625 144.546875 147.050781 145.839844 155.144531 C 146.285156 157.578125 146.882812 159.972656 147.628906 162.332031 C 147.859375 163.117188 148.089844 163.898438 148.308594 164.683594 C 148.46875 165.015625 148.550781 165.363281 148.5625 165.734375 C 148.570312 166.101562 148.503906 166.453125 148.363281 166.792969 C 148.222656 167.132812 148.019531 167.429688 147.753906 167.683594 C 147.488281 167.9375 147.179688 168.128906 146.835938 168.25 C 146.578125 168.351562 146.3125 168.417969 146.035156 168.445312 C 145.589844 168.699219 145.113281 168.824219 144.601562 168.816406 L 85.972656 168.816406 C 85.066406 169.050781 84.160156 169.070312 83.246094 168.882812 C 82.328125 168.691406 81.503906 168.3125 80.765625 167.738281 C 79.476562 166.144531 78.570312 164.359375 78.046875 162.375 C 77.898438 161.992188 77.78125 161.664062 77.703125 161.453125 C 74.585938 162.609375 71.371094 163.363281 68.0625 163.714844 C 64.753906 164.070312 61.453125 164.007812 58.15625 163.535156 C 54.542969 163.269531 51.136719 162.28125 47.9375 160.570312 C 46.523438 159.59375 45.363281 158.371094 44.453125 156.914062 C 43.542969 155.457031 42.960938 153.875 42.703125 152.175781 C 42.03125 148.589844 42.546875 144.976562 42.234375 141.371094 C 42.039062 139.460938 41.585938 137.613281 40.875 135.832031 C 40.167969 134.046875 39.230469 132.394531 38.0625 130.871094 C 37.863281 130.597656 37.714844 130.300781 37.625 129.976562 L 37.285156 129.542969 C 37.023438 129.089844 36.890625 128.605469 36.890625 128.085938 L 36.890625 125.855469 C 36.890625 125.710938 36.902344 125.570312 36.929688 125.429688 C 36.402344 124.535156 36.152344 123.574219 36.171875 122.539062 C 36.21875 121.9375 36.175781 121.34375 36.042969 120.753906 C 35.914062 120.167969 35.703125 119.609375 35.40625 119.082031 C 35.113281 118.554688 34.75 118.082031 34.316406 117.660156 C 33.882812 117.242188 33.398438 116.890625 32.863281 116.613281 C 32.390625 116.367188 31.945312 116.074219 31.527344 115.738281 C 31.109375 115.402344 30.730469 115.03125 30.386719 114.621094 C 30.042969 114.210938 29.742188 113.769531 29.488281 113.300781 C 29.230469 112.832031 29.023438 112.339844 28.867188 111.828125 C 28.710938 111.320312 28.601562 110.796875 28.546875 110.265625 C 28.492188 109.734375 28.492188 109.203125 28.542969 108.667969 C 28.59375 108.136719 28.695312 107.617188 28.851562 107.105469 C 29.007812 106.59375 29.210938 106.101562 29.464844 105.628906 C 30.519531 103.335938 31.859375 101.21875 33.480469 99.277344 C 35.089844 97.371094 36.421875 95.289062 37.46875 93.027344 C 38.515625 90.761719 39.242188 88.402344 39.648438 85.941406 C 40.132812 82.863281 40.332031 79.679688 40.53125 76.605469 C 40.664062 74.488281 40.800781 72.308594 41.027344 70.171875 C 43.074219 50.996094 52.808594 37.507812 69.953125 30.082031 C 80.40625 25.765625 91.28125 23.351562 102.582031 22.847656 C 105.960938 22.816406 109.324219 23.066406 112.660156 23.601562 C 116 24.136719 119.269531 24.945312 122.472656 26.03125 C 125.671875 27.121094 128.761719 28.46875 131.734375 30.074219 C 134.707031 31.683594 137.523438 33.53125 140.183594 35.613281 C 142.777344 37.65625 145.179688 39.902344 147.386719 42.351562 C 149.59375 44.804688 151.578125 47.425781 153.335938 50.21875 C 155.09375 53.007812 156.601562 55.929688 157.855469 58.980469 C 159.109375 62.027344 160.097656 65.164062 160.816406 68.382812 C 161.617188 71.570312 162.160156 74.800781 162.449219 78.074219 C 162.742188 81.347656 162.773438 84.625 162.542969 87.902344 C 162.316406 91.179688 161.832031 94.421875 161.089844 97.621094 C 160.347656 100.824219 159.363281 103.949219 158.125 106.996094 Z M 155.992188 71.289062 C 151.382812 48.488281 133.925781 31.820312 111.507812 28.824219 C 107.691406 28.351562 103.863281 28.183594 100.019531 28.316406 C 96.175781 28.449219 92.363281 28.882812 88.589844 29.621094 C 84.816406 30.359375 81.125 31.386719 77.511719 32.710938 C 73.902344 34.03125 70.417969 35.628906 67.058594 37.503906 C 64.640625 38.753906 62.382812 40.25 60.296875 42 C 58.207031 43.746094 56.335938 45.703125 54.679688 47.863281 C 53.023438 50.027344 51.628906 52.34375 50.488281 54.8125 C 49.347656 57.285156 48.488281 59.851562 47.917969 62.511719 C 46.742188 67.660156 46.101562 72.875 45.988281 78.152344 C 45.980469 80.449219 45.777344 82.722656 45.382812 84.984375 C 44.988281 87.242188 44.410156 89.453125 43.644531 91.617188 C 42.878906 93.78125 41.9375 95.863281 40.820312 97.867188 C 39.707031 99.875 38.429688 101.769531 36.996094 103.5625 C 36.101562 104.621094 35.316406 105.753906 34.640625 106.964844 C 33.3125 109.476562 33.699219 110.898438 36.117188 112.394531 C 36.929688 112.839844 37.671875 113.382812 38.339844 114.027344 C 39.003906 114.675781 39.574219 115.398438 40.042969 116.195312 C 40.511719 116.996094 40.863281 117.84375 41.101562 118.742188 C 41.335938 119.636719 41.449219 120.550781 41.4375 121.476562 C 41.378906 121.925781 41.488281 122.328125 41.761719 122.6875 C 42.140625 122.960938 42.5625 123.066406 43.023438 122.992188 C 45.75 122.9375 48.574219 122.941406 51.429688 122.992188 C 52.304688 122.953125 53.058594 123.234375 53.695312 123.832031 C 54.191406 124.394531 54.40625 125.050781 54.332031 125.796875 C 54.265625 127.40625 53.222656 128.296875 51.394531 128.296875 C 50.515625 128.296875 49.636719 128.300781 48.753906 128.3125 C 46.957031 128.324219 45.113281 128.324219 43.277344 128.292969 C 45.003906 130.855469 46.277344 133.621094 47.101562 136.597656 C 47.925781 139.570312 48.257812 142.597656 48.097656 145.679688 C 48.074219 148.53125 47.90625 151.839844 49.617188 154.296875 C 51.351562 156.800781 55.207031 157.242188 57.992188 157.714844 C 69.796875 159.710938 83.082031 155.921875 88.347656 144.355469 C 89.890625 140.976562 94.875 143.910156 93.34375 147.269531 C 92.207031 149.746094 90.722656 151.992188 88.890625 154.011719 C 87.058594 156.027344 84.964844 157.722656 82.605469 159.09375 C 83.261719 160.480469 83.835938 161.835938 84.320312 163.046875 L 142.058594 163.046875 C 141.300781 160.492188 140.75 157.894531 140.402344 155.25 C 140.054688 152.609375 139.917969 149.957031 139.996094 147.292969 C 140.070312 144.625 140.355469 141.984375 140.847656 139.367188 C 141.34375 136.746094 142.042969 134.183594 142.945312 131.675781 C 145.792969 123.347656 149.074219 115.015625 152.25 106.960938 L 153.476562 103.851562 C 155.5 98.667969 156.730469 93.304688 157.15625 87.757812 C 157.585938 82.210938 157.199219 76.722656 155.992188 71.289062 Z M 139.75 74.753906 C 139.429688 74.476562 139.238281 74.128906 139.167969 73.714844 C 139.097656 73.296875 139.167969 72.90625 139.378906 72.542969 C 139.675781 71.890625 139.902344 71.214844 140.0625 70.515625 C 140.21875 69.816406 140.304688 69.109375 140.316406 68.394531 C 140.328125 67.675781 140.265625 66.96875 140.132812 66.261719 C 140 65.558594 139.796875 64.875 139.523438 64.214844 C 139.25 63.554688 138.910156 62.925781 138.507812 62.332031 C 138.105469 61.738281 137.648438 61.195312 137.132812 60.695312 C 136.617188 60.195312 136.058594 59.753906 135.453125 59.371094 C 134.847656 58.984375 134.207031 58.667969 133.539062 58.414062 C 133.320312 58.359375 133.121094 58.265625 132.9375 58.140625 C 132.75 58.015625 132.59375 57.863281 132.464844 57.679688 C 132.332031 57.5 132.238281 57.300781 132.175781 57.085938 C 132.117188 56.871094 132.09375 56.652344 132.109375 56.429688 C 132.078125 55.71875 131.984375 55.011719 131.820312 54.316406 C 131.65625 53.621094 131.429688 52.945312 131.140625 52.292969 C 130.851562 51.640625 130.507812 51.019531 130.101562 50.429688 C 129.695312 49.839844 129.238281 49.296875 128.730469 48.792969 C 128.226562 48.289062 127.675781 47.835938 127.082031 47.433594 C 126.492188 47.03125 125.867188 46.6875 125.210938 46.402344 C 124.554688 46.117188 123.878906 45.898438 123.179688 45.738281 C 122.484375 45.578125 121.777344 45.488281 121.0625 45.460938 C 120.375 45.449219 119.78125 45.203125 119.289062 44.726562 C 116.511719 40.28125 113.503906 38.203125 109.839844 38.355469 C 108.839844 38.214844 107.851562 38.265625 106.871094 38.507812 C 106.542969 38.625 106.175781 38.78125 106.175781 38.78125 C 105.867188 38.914062 105.558594 39.089844 105.078125 39.359375 C 104.734375 39.550781 104.398438 39.765625 104.074219 39.996094 C 103.898438 40.109375 103.726562 40.226562 103.554688 40.359375 L 103.515625 40.378906 L 103.417969 40.476562 C 102.816406 40.976562 102.257812 41.523438 101.742188 42.109375 C 101.722656 42.128906 101.53125 42.359375 101.488281 42.402344 C 101.457031 42.457031 101.417969 42.507812 101.375 42.554688 C 100.5 43.941406 99.929688 45.441406 99.660156 47.058594 L 99.660156 48.210938 C 99.523438 48.324219 99.375 48.421875 99.214844 48.5 C 96.71875 49.5625 94.175781 50.492188 91.582031 51.292969 C 90.882812 51.496094 90.222656 51.421875 89.59375 51.058594 C 88.089844 49.960938 86.625 48.710938 85.234375 47.5 L 84.328125 46.730469 C 84.1875 46.574219 84.035156 46.433594 83.863281 46.308594 C 83.691406 46.1875 83.507812 46.085938 83.316406 46.003906 C 83.121094 45.921875 82.921875 45.859375 82.714844 45.820312 C 82.507812 45.785156 82.300781 45.769531 82.089844 45.777344 C 81.878906 45.785156 81.671875 45.816406 81.46875 45.871094 C 81.265625 45.925781 81.070312 46 80.886719 46.097656 C 80.699219 46.195312 80.523438 46.3125 80.363281 46.449219 C 80.203125 46.582031 80.058594 46.734375 79.933594 46.902344 C 77.695312 49.175781 75.378906 51.480469 73.164062 53.699219 L 72.914062 53.925781 C 72.753906 54.050781 72.613281 54.191406 72.484375 54.34375 C 72.359375 54.5 72.25 54.667969 72.160156 54.84375 C 72.066406 55.023438 71.996094 55.210938 71.945312 55.402344 C 71.894531 55.597656 71.867188 55.792969 71.855469 55.996094 C 71.847656 56.195312 71.863281 56.394531 71.898438 56.589844 C 71.933594 56.789062 71.988281 56.980469 72.0625 57.164062 C 72.140625 57.351562 72.234375 57.523438 72.351562 57.691406 C 72.464844 57.855469 72.59375 58.003906 72.742188 58.140625 L 74.011719 59.644531 C 75.152344 60.953125 76.324219 62.320312 77.347656 63.746094 C 77.738281 64.449219 77.816406 65.1875 77.578125 65.957031 C 77.257812 66.953125 76.886719 67.929688 76.460938 68.882812 C 76.117188 69.730469 75.746094 70.617188 75.457031 71.503906 C 75.074219 72.636719 74.609375 73.003906 73.53125 73.042969 C 71.929688 73.082031 70.332031 73.234375 68.769531 73.386719 C 67.996094 73.449219 67.242188 73.523438 66.472656 73.582031 C 66.265625 73.570312 66.054688 73.582031 65.847656 73.621094 C 65.640625 73.65625 65.4375 73.710938 65.242188 73.792969 C 65.046875 73.871094 64.863281 73.972656 64.691406 74.089844 C 64.519531 74.210938 64.359375 74.347656 64.21875 74.5 C 64.074219 74.65625 63.949219 74.824219 63.84375 75.003906 C 63.734375 75.183594 63.648438 75.375 63.585938 75.574219 C 63.519531 75.777344 63.476562 75.980469 63.457031 76.191406 C 63.4375 76.398438 63.441406 76.609375 63.464844 76.816406 C 63.484375 79.742188 63.484375 82.722656 63.464844 85.589844 L 63.464844 86.730469 C 63.441406 86.9375 63.4375 87.148438 63.460938 87.355469 C 63.480469 87.566406 63.523438 87.769531 63.589844 87.96875 C 63.65625 88.167969 63.746094 88.359375 63.855469 88.539062 C 63.960938 88.71875 64.089844 88.886719 64.234375 89.039062 C 64.382812 89.1875 64.542969 89.324219 64.71875 89.4375 C 64.894531 89.554688 65.078125 89.652344 65.277344 89.726562 C 65.472656 89.800781 65.675781 89.851562 65.886719 89.882812 C 66.09375 89.914062 66.300781 89.917969 66.511719 89.902344 C 68.09375 89.980469 69.695312 90.136719 71.234375 90.269531 L 73.109375 90.441406 C 73.375 90.421875 73.636719 90.449219 73.890625 90.527344 C 74.148438 90.601562 74.382812 90.722656 74.597656 90.882812 C 74.808594 91.042969 74.988281 91.238281 75.128906 91.464844 C 75.269531 91.691406 75.367188 91.933594 75.421875 92.195312 C 75.875 93.851562 76.535156 95.414062 77.410156 96.890625 C 77.617188 97.15625 77.765625 97.445312 77.855469 97.769531 C 77.941406 98.09375 77.960938 98.421875 77.914062 98.753906 C 77.867188 99.082031 77.753906 99.390625 77.578125 99.675781 C 77.40625 99.964844 77.179688 100.203125 76.90625 100.394531 C 75.917969 101.378906 74.992188 102.417969 74.128906 103.515625 C 73.648438 104.089844 73.1875 104.667969 72.683594 105.226562 C 72.535156 105.363281 72.40625 105.515625 72.292969 105.679688 C 72.175781 105.84375 72.082031 106.019531 72.003906 106.203125 C 71.925781 106.390625 71.871094 106.582031 71.835938 106.777344 C 71.796875 106.976562 71.785156 107.175781 71.789062 107.375 C 71.796875 107.574219 71.824219 107.773438 71.871094 107.96875 C 71.921875 108.160156 71.988281 108.347656 72.078125 108.527344 C 72.167969 108.707031 72.273438 108.878906 72.398438 109.035156 C 72.523438 109.191406 72.664062 109.335938 72.816406 109.460938 C 75.191406 111.902344 77.640625 114.332031 80.164062 116.796875 C 80.417969 117.085938 80.71875 117.316406 81.070312 117.480469 C 81.417969 117.644531 81.785156 117.726562 82.171875 117.734375 C 82.558594 117.742188 82.929688 117.671875 83.285156 117.519531 C 83.640625 117.371094 83.949219 117.152344 84.214844 116.871094 L 90.34375 111.753906 C 91.039062 112.039062 91.695312 112.328125 92.371094 112.597656 C 94.355469 113.425781 97.671875 114.214844 99.523438 115.082031 C 99.574219 115.109375 99.617188 115.140625 99.660156 115.179688 L 99.660156 122.9375 C 99.691406 123.035156 99.738281 123.121094 99.792969 123.207031 C 101.046875 125.421875 104.167969 125.921875 106.058594 126.054688 C 107.011719 126.023438 107.785156 125.632812 108.375 124.882812 C 109.964844 125.210938 111.558594 125.246094 113.160156 124.984375 C 114.761719 124.722656 116.265625 124.179688 117.664062 123.363281 C 119.234375 122.46875 120.871094 121.738281 122.582031 121.167969 C 130.257812 118.683594 134.035156 114.414062 134.445312 107.75 C 134.460938 107.445312 134.691406 106.886719 135.65625 106.039062 C 138.667969 103.363281 141.921875 99.667969 140.496094 94.683594 C 140.132812 93.269531 140.046875 91.839844 140.246094 90.394531 C 140.441406 88.949219 140.90625 87.59375 141.636719 86.328125 C 142.074219 85.378906 142.363281 84.386719 142.5 83.351562 C 142.640625 82.316406 142.628906 81.285156 142.457031 80.253906 C 142.289062 79.222656 141.972656 78.238281 141.511719 77.300781 C 141.046875 76.367188 140.457031 75.515625 139.738281 74.757812 Z M 99.648438 95.773438 C 95.253906 92.769531 90.566406 87.554688 90.699219 81.570312 C 90.816406 75.792969 95.117188 70.65625 99.648438 67.65625 Z M 92.917969 106.726562 C 90.066406 105.207031 89.542969 105.148438 87.132812 107.34375 C 85.996094 108.382812 84.820312 109.367188 83.78125 110.25 C 83.410156 110.558594 83.046875 110.867188 82.71875 111.152344 L 78.148438 107.171875 L 79.59375 105.496094 C 80.8125 104.070312 81.945312 102.726562 83.160156 101.414062 C 83.429688 101.136719 83.644531 100.816406 83.804688 100.464844 C 83.964844 100.109375 84.0625 99.742188 84.097656 99.355469 C 84.132812 98.96875 84.101562 98.585938 84.007812 98.210938 C 83.914062 97.835938 83.761719 97.484375 83.546875 97.160156 C 82.296875 94.351562 81.097656 91.367188 79.925781 88.035156 C 79.84375 87.671875 79.703125 87.332031 79.507812 87.015625 C 79.3125 86.695312 79.070312 86.417969 78.785156 86.179688 C 78.496094 85.945312 78.175781 85.761719 77.828125 85.628906 C 77.476562 85.5 77.117188 85.429688 76.742188 85.417969 C 74.273438 85.285156 72.210938 85.128906 70.148438 84.863281 C 69.644531 84.785156 68.894531 84.246094 68.875 84.015625 C 68.777344 82.695312 68.746094 81.375 68.78125 80.050781 C 68.800781 79.625 68.800781 79.203125 68.800781 78.78125 L 71.171875 78.546875 C 73.117188 78.355469 74.96875 78.164062 76.800781 78.046875 C 77.171875 78.035156 77.53125 77.960938 77.878906 77.824219 C 78.222656 77.691406 78.539062 77.507812 78.824219 77.265625 C 79.109375 77.027344 79.347656 76.75 79.539062 76.433594 C 79.730469 76.113281 79.863281 75.773438 79.941406 75.410156 C 81.121094 72.0625 82.277344 69.136719 83.511719 66.480469 C 83.714844 66.152344 83.859375 65.796875 83.949219 65.421875 C 84.039062 65.042969 84.0625 64.660156 84.027344 64.277344 C 83.992188 63.890625 83.894531 63.519531 83.734375 63.167969 C 83.578125 62.8125 83.367188 62.492188 83.105469 62.207031 C 81.871094 60.820312 80.714844 59.398438 79.578125 58.007812 C 79.132812 57.492188 78.710938 56.953125 78.285156 56.453125 L 82.546875 52.199219 C 83.046875 52.621094 83.550781 53.027344 84.050781 53.445312 C 85.382812 54.527344 86.730469 55.664062 88.042969 56.816406 C 88.339844 57.097656 88.671875 57.324219 89.046875 57.488281 C 89.417969 57.652344 89.808594 57.746094 90.21875 57.773438 C 90.625 57.800781 91.023438 57.757812 91.417969 57.640625 C 91.808594 57.527344 92.167969 57.347656 92.5 57.105469 C 94.367188 56.125 97.546875 55.238281 99.652344 54.429688 L 99.652344 61.550781 C 91.9375 65.191406 85.089844 73.46875 85.382812 82.363281 C 85.691406 91.714844 92.886719 98.953125 99.652344 102.050781 L 99.652344 109.273438 C 97.355469 108.558594 95.113281 107.710938 92.917969 106.726562 Z M 135.050781 87.269531 C 133.105469 89.386719 127.300781 90.039062 125.351562 88.367188 C 125.046875 88.105469 124.816406 87.792969 124.660156 87.421875 C 122.515625 81.4375 117.332031 79.894531 113.050781 79.242188 C 112.117188 79.011719 111.242188 79.152344 110.425781 79.664062 C 109.855469 80.140625 109.550781 80.75 109.519531 81.492188 C 109.273438 83.785156 111.042969 84.324219 112.414062 84.535156 C 115.636719 85.015625 117.640625 85.917969 118.71875 87.421875 C 119.296875 88.449219 119.648438 89.546875 119.777344 90.714844 C 119.910156 91.882812 119.808594 93.03125 119.46875 94.160156 C 119.46875 94.179688 119.453125 94.199219 119.453125 94.214844 C 119.425781 94.269531 119.414062 94.328125 119.414062 94.390625 C 119.324219 94.742188 119.300781 95.097656 119.355469 95.460938 C 119.40625 95.820312 119.523438 96.15625 119.710938 96.46875 C 119.894531 96.785156 120.136719 97.046875 120.429688 97.265625 C 120.722656 97.484375 121.042969 97.636719 121.398438 97.722656 C 121.75 97.847656 122.109375 97.894531 122.476562 97.863281 C 122.847656 97.832031 123.191406 97.722656 123.515625 97.542969 C 123.839844 97.359375 124.109375 97.117188 124.324219 96.816406 C 124.539062 96.515625 124.683594 96.183594 124.757812 95.820312 C 124.871094 95.433594 125.003906 95.066406 125.121094 94.703125 L 125.238281 94.355469 C 125.699219 94.394531 126.164062 94.453125 126.605469 94.492188 C 127.726562 94.625 128.851562 94.683594 129.980469 94.664062 C 131.15625 94.597656 132.320312 94.449219 133.472656 94.222656 C 133.894531 94.144531 134.339844 94.085938 134.78125 94.011719 C 135.0625 94.585938 135.234375 95.191406 135.300781 95.824219 C 135.363281 96.460938 135.316406 97.089844 135.15625 97.707031 C 135 98.324219 134.738281 98.898438 134.375 99.425781 C 134.011719 99.949219 133.570312 100.398438 133.046875 100.765625 C 132.992188 100.632812 132.933594 100.496094 132.875 100.339844 C 132.683594 99.84375 132.472656 99.34375 132.257812 98.863281 C 131.945312 97.96875 131.355469 97.339844 130.484375 96.972656 C 129.757812 96.75 129.0625 96.828125 128.402344 97.203125 C 128.222656 97.28125 128.054688 97.375 127.898438 97.488281 C 127.742188 97.601562 127.601562 97.730469 127.472656 97.875 C 127.34375 98.015625 127.234375 98.175781 127.140625 98.34375 C 127.050781 98.511719 126.976562 98.6875 126.921875 98.875 C 126.867188 99.058594 126.835938 99.246094 126.824219 99.441406 C 126.8125 99.632812 126.824219 99.824219 126.855469 100.015625 C 126.886719 100.203125 126.9375 100.386719 127.007812 100.566406 C 127.082031 100.746094 127.171875 100.914062 127.28125 101.074219 L 127.320312 101.152344 C 127.792969 102.101562 128.203125 103.078125 128.558594 104.078125 C 129.984375 108.3125 128.519531 112.683594 125.203125 114.085938 C 124.949219 113.761719 124.71875 113.414062 124.484375 113.066406 C 124.046875 112.214844 123.414062 111.554688 122.578125 111.085938 C 122.292969 110.960938 122 110.894531 121.691406 110.890625 C 121.421875 110.890625 121.164062 110.949219 120.917969 111.0625 C 120.007812 111.667969 119.429688 112.5 119.183594 113.566406 C 119.132812 113.695312 119.078125 113.824219 119.011719 113.949219 C 118.96875 114.007812 118.9375 114.074219 118.914062 114.144531 C 118.382812 115.371094 117.632812 116.445312 116.667969 117.371094 C 115.699219 118.296875 114.589844 118.996094 113.339844 119.472656 C 112.070312 119.835938 110.777344 119.933594 109.464844 119.769531 C 108.152344 119.605469 106.925781 119.191406 105.78125 118.53125 C 105.25 118.210938 104.921875 117.75 104.796875 117.144531 C 104.722656 115.21875 104.722656 113.296875 104.742188 111.273438 C 104.742188 110.65625 104.761719 110.023438 104.761719 109.386719 C 105.085938 109.445312 105.398438 109.5 105.703125 109.582031 C 106.535156 109.734375 107.308594 109.890625 108.097656 109.964844 C 112.648438 110.429688 115.847656 109.082031 117.929688 105.828125 C 118.054688 105.679688 118.164062 105.523438 118.253906 105.351562 C 118.34375 105.183594 118.414062 105.003906 118.464844 104.820312 C 118.515625 104.632812 118.542969 104.445312 118.554688 104.253906 C 118.5625 104.058594 118.550781 103.871094 118.519531 103.679688 C 118.484375 103.492188 118.429688 103.308594 118.355469 103.128906 C 118.285156 102.953125 118.191406 102.785156 118.082031 102.625 C 117.96875 102.46875 117.84375 102.324219 117.699219 102.195312 C 117.558594 102.066406 117.402344 101.953125 117.234375 101.859375 C 116.675781 101.40625 116.039062 101.234375 115.328125 101.339844 C 114.53125 101.546875 113.9375 102.015625 113.554688 102.742188 C 113.292969 103.144531 112.972656 103.496094 112.601562 103.792969 C 112.226562 104.09375 111.816406 104.332031 111.367188 104.5 C 110.917969 104.667969 110.453125 104.765625 109.972656 104.789062 C 109.492188 104.808594 109.023438 104.757812 108.558594 104.628906 C 107.640625 104.46875 106.746094 104.21875 105.878906 103.882812 L 104.894531 103.539062 L 104.894531 97.050781 C 105.585938 96.917969 106.261719 96.800781 106.917969 96.683594 C 108.59375 96.378906 110.199219 96.089844 111.777344 95.683594 C 112.605469 95.519531 113.234375 95.078125 113.667969 94.355469 C 113.976562 93.707031 113.988281 93.050781 113.707031 92.390625 C 113.660156 92.195312 113.589844 92.007812 113.5 91.828125 C 113.40625 91.648438 113.296875 91.480469 113.167969 91.328125 C 113.039062 91.171875 112.894531 91.03125 112.734375 90.910156 C 112.574219 90.789062 112.402344 90.683594 112.21875 90.601562 C 112.035156 90.519531 111.84375 90.457031 111.648438 90.417969 C 111.449219 90.375 111.25 90.359375 111.046875 90.363281 C 110.84375 90.367188 110.648438 90.394531 110.453125 90.445312 C 110.257812 90.496094 110.070312 90.566406 109.890625 90.660156 C 108.828125 90.964844 107.75 91.152344 106.648438 91.214844 L 106.300781 91.238281 C 105.863281 91.335938 105.464844 91.25 105.105469 90.984375 C 104.761719 90.546875 104.632812 90.050781 104.71875 89.503906 C 104.796875 84.710938 104.796875 80.035156 104.71875 75.609375 C 104.648438 75.011719 104.816406 74.492188 105.222656 74.046875 C 105.550781 73.78125 105.925781 73.691406 106.339844 73.777344 C 108.40625 74.0625 110.417969 74.5625 112.375 75.28125 C 113.859375 75.816406 115.363281 76.066406 116.328125 74.394531 C 116.722656 73.773438 116.832031 73.105469 116.65625 72.394531 C 116.324219 71.5 115.71875 70.867188 114.84375 70.488281 C 113.355469 69.589844 111.761719 68.972656 110.0625 68.632812 C 108.359375 68.292969 106.648438 68.25 104.933594 68.503906 L 104.933594 63.402344 C 105.359375 63.441406 105.78125 63.480469 106.183594 63.519531 C 107.203125 63.65625 108.226562 63.722656 109.253906 63.710938 C 109.796875 63.742188 110.332031 63.691406 110.863281 63.554688 C 111.390625 63.417969 111.882812 63.203125 112.34375 62.914062 C 112.804688 62.621094 113.207031 62.265625 113.554688 61.84375 C 113.902344 61.425781 114.179688 60.964844 114.378906 60.457031 C 114.53125 59.945312 114.554688 59.425781 114.445312 58.898438 C 114.335938 58.375 114.109375 57.90625 113.765625 57.496094 C 113.125 57.058594 112.417969 56.863281 111.644531 56.917969 C 111.296875 56.894531 110.996094 56.996094 110.738281 57.222656 C 109.136719 58.976562 107.613281 58.476562 105.820312 57.878906 C 105.472656 57.78125 105.125 57.667969 104.777344 57.554688 C 104.777344 56.648438 104.757812 55.722656 104.757812 54.816406 C 104.738281 52.546875 104.71875 50.410156 104.796875 48.21875 C 104.828125 47.667969 104.953125 47.140625 105.167969 46.632812 C 105.386719 46.128906 105.679688 45.671875 106.054688 45.269531 C 106.429688 44.867188 106.863281 44.539062 107.351562 44.28125 C 107.839844 44.027344 108.359375 43.863281 108.902344 43.789062 C 109.421875 43.6875 109.945312 43.671875 110.46875 43.746094 C 110.992188 43.820312 111.488281 43.976562 111.960938 44.21875 C 112.429688 44.460938 112.847656 44.769531 113.214844 45.152344 C 113.582031 45.535156 113.871094 45.964844 114.09375 46.445312 C 114.449219 47.597656 114.566406 48.769531 114.4375 49.96875 C 114.359375 51.277344 114.515625 52.683594 116.171875 53.222656 C 116.496094 53.34375 116.832031 53.398438 117.175781 53.386719 C 117.523438 53.375 117.851562 53.300781 118.167969 53.164062 C 118.484375 53.023438 118.765625 52.832031 119.007812 52.585938 C 119.246094 52.339844 119.433594 52.058594 119.566406 51.738281 C 119.96875 51.191406 120.507812 50.910156 121.1875 50.894531 C 121.558594 50.917969 121.921875 50.976562 122.28125 51.070312 C 122.644531 51.164062 122.992188 51.289062 123.328125 51.445312 C 123.664062 51.601562 123.984375 51.785156 124.289062 52 C 124.589844 52.21875 124.871094 52.457031 125.128906 52.726562 C 125.386719 52.992188 125.617188 53.28125 125.824219 53.589844 C 126.027344 53.902344 126.203125 54.226562 126.347656 54.570312 C 126.492188 54.910156 126.601562 55.261719 126.679688 55.625 C 126.761719 55.988281 126.804688 56.355469 126.816406 56.726562 C 126.839844 57.132812 126.824219 57.542969 126.765625 57.949219 C 126.703125 58.355469 126.605469 58.75 126.46875 59.136719 C 126.332031 59.523438 126.15625 59.890625 125.941406 60.242188 C 125.730469 60.59375 125.488281 60.921875 125.207031 61.222656 C 124.929688 61.523438 124.625 61.796875 124.292969 62.039062 C 123.960938 62.28125 123.609375 62.484375 123.238281 62.65625 C 122.863281 62.828125 122.476562 62.960938 122.078125 63.054688 C 121.675781 63.148438 121.273438 63.199219 120.859375 63.214844 C 118.816406 63.480469 117.890625 64.40625 118.007812 66.042969 C 118.019531 66.789062 118.300781 67.410156 118.855469 67.910156 C 119.625 68.464844 120.480469 68.671875 121.421875 68.527344 C 123.027344 68.453125 124.542969 68.039062 125.964844 67.285156 C 127.386719 66.527344 128.578125 65.507812 129.539062 64.214844 C 130.519531 62.867188 131.273438 63 132.488281 63.789062 C 133.015625 64.117188 133.472656 64.527344 133.855469 65.015625 C 134.238281 65.503906 134.527344 66.046875 134.71875 66.636719 C 134.914062 67.226562 134.996094 67.835938 134.976562 68.457031 C 134.953125 69.078125 134.824219 69.675781 134.589844 70.25 C 134.378906 70.84375 134.09375 71.398438 133.730469 71.910156 C 133.367188 72.425781 132.9375 72.878906 132.449219 73.277344 C 131.960938 73.671875 131.425781 73.996094 130.84375 74.242188 C 130.265625 74.492188 129.664062 74.65625 129.039062 74.738281 C 127.996094 74.753906 127.121094 75.144531 126.414062 75.910156 C 126.003906 76.503906 125.875 77.152344 126.027344 77.855469 C 126.09375 78.648438 126.453125 79.269531 127.109375 79.722656 C 127.996094 80.222656 128.921875 80.3125 129.886719 79.992188 C 131.21875 79.617188 132.523438 79.171875 133.800781 78.644531 C 134.320312 78.429688 134.859375 78.21875 135.402344 78.027344 C 135.914062 78.417969 136.320312 78.894531 136.625 79.457031 C 136.933594 80.019531 137.109375 80.621094 137.15625 81.261719 C 137.222656 82.363281 137.078125 83.433594 136.710938 84.476562 C 136.347656 85.519531 135.792969 86.449219 135.050781 87.269531 Z M 135.050781 87.269531 " fill-opacity="1" fill-rule="nonzero"/></g></svg>