<svg xmlns="http://www.w3.org/2000/svg" xmlns:xlink="http://www.w3.org/1999/xlink" width="256" zoomAndPan="magnify" viewBox="0 0 192 191.999996" height="256" preserveAspectRatio="xMidYMid meet" version="1.0"><defs><clipPath id="8e5b4684d8"><path d="M 21.222656 21.222656 L 170.472656 21.222656 L 170.472656 170.472656 L 21.222656 170.472656 Z M 21.222656 21.222656 " clip-rule="nonzero"/></clipPath></defs><path fill="#000000" d="M 126.90625 70.972656 L 64.789062 70.972656 C 64.289062 70.972656 63.808594 71.070312 63.347656 71.261719 C 62.886719 71.453125 62.480469 71.722656 62.125 72.078125 C 61.773438 72.429688 61.5 72.835938 61.308594 73.296875 C 61.117188 73.757812 61.023438 74.238281 61.023438 74.738281 L 61.023438 77.847656 L 95.847656 95.261719 L 130.671875 77.847656 L 130.671875 74.738281 C 130.671875 74.238281 130.574219 73.757812 130.382812 73.296875 C 130.191406 72.835938 129.921875 72.429688 129.566406 72.078125 C 129.214844 71.722656 128.808594 71.453125 128.347656 71.261719 C 127.886719 71.070312 127.40625 70.972656 126.90625 70.972656 Z M 126.90625 70.972656 " fill-opacity="1" fill-rule="nonzero"/><path fill="#000000" d="M 95.847656 105.796875 C 95.066406 105.796875 94.324219 105.625 93.625 105.273438 L 61.023438 88.972656 L 61.023438 116.957031 C 61.023438 117.453125 61.117188 117.933594 61.308594 118.394531 C 61.5 118.855469 61.773438 119.265625 62.125 119.617188 C 62.480469 119.96875 62.886719 120.242188 63.347656 120.433594 C 63.808594 120.625 64.289062 120.722656 64.789062 120.722656 L 126.90625 120.722656 C 127.40625 120.722656 127.886719 120.625 128.347656 120.433594 C 128.808594 120.242188 129.214844 119.96875 129.566406 119.617188 C 129.921875 119.265625 130.191406 118.855469 130.382812 118.394531 C 130.574219 117.933594 130.671875 117.453125 130.671875 116.957031 L 130.671875 88.972656 L 98.070312 105.300781 C 97.367188 105.640625 96.628906 105.804688 95.847656 105.796875 Z M 95.847656 105.796875 " fill-opacity="1" fill-rule="nonzero"/><g clip-path="url(#8e5b4684d8)"><path fill="#000000" d="M 95.847656 21.222656 C 94.625 21.222656 93.40625 21.25 92.183594 21.3125 C 90.964844 21.371094 89.746094 21.460938 88.53125 21.582031 C 87.316406 21.699219 86.105469 21.851562 84.898438 22.03125 C 83.6875 22.207031 82.484375 22.417969 81.289062 22.65625 C 80.089844 22.894531 78.898438 23.160156 77.714844 23.457031 C 76.53125 23.753906 75.351562 24.082031 74.183594 24.433594 C 73.015625 24.789062 71.855469 25.171875 70.707031 25.585938 C 69.554688 25.996094 68.417969 26.433594 67.289062 26.902344 C 66.160156 27.371094 65.042969 27.863281 63.941406 28.386719 C 62.835938 28.910156 61.746094 29.457031 60.667969 30.035156 C 59.59375 30.609375 58.53125 31.210938 57.480469 31.839844 C 56.433594 32.464844 55.402344 33.121094 54.386719 33.796875 C 53.371094 34.476562 52.375 35.179688 51.394531 35.90625 C 50.410156 36.636719 49.449219 37.386719 48.503906 38.160156 C 47.5625 38.9375 46.636719 39.734375 45.730469 40.554688 C 44.828125 41.375 43.941406 42.214844 43.078125 43.078125 C 42.214844 43.941406 41.375 44.828125 40.554688 45.730469 C 39.734375 46.636719 38.9375 47.5625 38.160156 48.503906 C 37.386719 49.449219 36.636719 50.410156 35.90625 51.394531 C 35.179688 52.375 34.476562 53.371094 33.796875 54.386719 C 33.121094 55.402344 32.46875 56.433594 31.839844 57.480469 C 31.210938 58.53125 30.609375 59.59375 30.035156 60.667969 C 29.457031 61.746094 28.910156 62.835938 28.386719 63.941406 C 27.863281 65.042969 27.371094 66.160156 26.902344 67.289062 C 26.433594 68.417969 25.996094 69.554688 25.585938 70.707031 C 25.171875 71.855469 24.789062 73.015625 24.433594 74.183594 C 24.082031 75.351562 23.753906 76.53125 23.457031 77.714844 C 23.160156 78.898438 22.894531 80.089844 22.65625 81.289062 C 22.417969 82.484375 22.207031 83.6875 22.03125 84.898438 C 21.851562 86.105469 21.699219 87.316406 21.582031 88.53125 C 21.460938 89.746094 21.371094 90.964844 21.3125 92.183594 C 21.25 93.40625 21.222656 94.625 21.222656 95.847656 C 21.222656 97.066406 21.25 98.289062 21.3125 99.507812 C 21.371094 100.726562 21.460938 101.945312 21.582031 103.160156 C 21.699219 104.375 21.851562 105.589844 22.03125 106.796875 C 22.207031 108.003906 22.417969 109.207031 22.65625 110.40625 C 22.894531 111.601562 23.160156 112.792969 23.457031 113.980469 C 23.753906 115.164062 24.082031 116.339844 24.433594 117.507812 C 24.789062 118.679688 25.171875 119.835938 25.585938 120.988281 C 25.996094 122.136719 26.433594 123.277344 26.902344 124.40625 C 27.371094 125.53125 27.863281 126.648438 28.386719 127.753906 C 28.910156 128.855469 29.457031 129.949219 30.035156 131.023438 C 30.609375 132.101562 31.210938 133.164062 31.839844 134.210938 C 32.46875 135.257812 33.121094 136.289062 33.796875 137.304688 C 34.476562 138.320312 35.179688 139.320312 35.90625 140.300781 C 36.636719 141.28125 37.386719 142.246094 38.160156 143.1875 C 38.9375 144.132812 39.734375 145.058594 40.554688 145.960938 C 41.375 146.867188 42.214844 147.75 43.078125 148.613281 C 43.941406 149.476562 44.828125 150.320312 45.730469 151.140625 C 46.636719 151.960938 47.5625 152.757812 48.503906 153.53125 C 49.449219 154.308594 50.410156 155.058594 51.394531 155.785156 C 52.375 156.515625 53.371094 157.214844 54.386719 157.894531 C 55.402344 158.574219 56.433594 159.226562 57.480469 159.855469 C 58.53125 160.484375 59.59375 161.085938 60.667969 161.660156 C 61.746094 162.234375 62.835938 162.785156 63.941406 163.308594 C 65.042969 163.828125 66.160156 164.324219 67.289062 164.792969 C 68.417969 165.257812 69.554688 165.699219 70.707031 166.109375 C 71.855469 166.519531 73.015625 166.902344 74.183594 167.257812 C 75.351562 167.613281 76.53125 167.9375 77.714844 168.234375 C 78.898438 168.53125 80.089844 168.800781 81.289062 169.039062 C 82.484375 169.277344 83.6875 169.484375 84.898438 169.664062 C 86.105469 169.84375 87.316406 169.992188 88.53125 170.113281 C 89.746094 170.230469 90.964844 170.320312 92.183594 170.382812 C 93.40625 170.441406 94.625 170.472656 95.847656 170.472656 C 97.066406 170.472656 98.289062 170.441406 99.507812 170.382812 C 100.726562 170.320312 101.945312 170.230469 103.160156 170.113281 C 104.375 169.992188 105.589844 169.84375 106.796875 169.664062 C 108.003906 169.484375 109.207031 169.277344 110.40625 169.039062 C 111.601562 168.800781 112.792969 168.53125 113.980469 168.234375 C 115.164062 167.9375 116.339844 167.613281 117.507812 167.257812 C 118.679688 166.902344 119.835938 166.519531 120.988281 166.109375 C 122.136719 165.699219 123.277344 165.257812 124.40625 164.792969 C 125.53125 164.324219 126.648438 163.828125 127.753906 163.308594 C 128.855469 162.785156 129.949219 162.234375 131.023438 161.660156 C 132.101562 161.085938 133.164062 160.484375 134.210938 159.855469 C 135.257812 159.226562 136.289062 158.574219 137.304688 157.894531 C 138.320312 157.214844 139.320312 156.515625 140.300781 155.785156 C 141.28125 155.058594 142.246094 154.308594 143.1875 153.53125 C 144.132812 152.757812 145.058594 151.960938 145.960938 151.140625 C 146.867188 150.320312 147.75 149.476562 148.613281 148.613281 C 149.476562 147.75 150.320312 146.867188 151.140625 145.960938 C 151.960938 145.058594 152.757812 144.132812 153.53125 143.1875 C 154.308594 142.246094 155.058594 141.28125 155.785156 140.300781 C 156.515625 139.320312 157.21875 138.320312 157.894531 137.304688 C 158.574219 136.289062 159.226562 135.257812 159.855469 134.210938 C 160.484375 133.164062 161.085938 132.101562 161.660156 131.023438 C 162.234375 129.949219 162.785156 128.855469 163.308594 127.753906 C 163.828125 126.648438 164.324219 125.53125 164.792969 124.40625 C 165.257812 123.277344 165.699219 122.136719 166.109375 120.988281 C 166.519531 119.835938 166.902344 118.679688 167.257812 117.507812 C 167.613281 116.339844 167.9375 115.164062 168.234375 113.980469 C 168.53125 112.792969 168.800781 111.601562 169.039062 110.40625 C 169.277344 109.207031 169.484375 108.003906 169.664062 106.796875 C 169.84375 105.589844 169.992188 104.375 170.113281 103.160156 C 170.230469 101.945312 170.320312 100.726562 170.382812 99.507812 C 170.441406 98.289062 170.472656 97.066406 170.472656 95.847656 C 170.46875 94.625 170.4375 93.40625 170.378906 92.1875 C 170.316406 90.96875 170.226562 89.75 170.105469 88.535156 C 169.984375 87.320312 169.832031 86.109375 169.652344 84.902344 C 169.472656 83.695312 169.261719 82.492188 169.023438 81.292969 C 168.785156 80.097656 168.515625 78.90625 168.21875 77.722656 C 167.921875 76.539062 167.59375 75.363281 167.238281 74.195312 C 166.882812 73.027344 166.5 71.867188 166.089844 70.71875 C 165.675781 69.570312 165.238281 68.429688 164.769531 67.300781 C 164.300781 66.175781 163.804688 65.058594 163.285156 63.957031 C 162.761719 62.851562 162.210938 61.761719 161.636719 60.6875 C 161.058594 59.609375 160.457031 58.546875 159.828125 57.5 C 159.203125 56.453125 158.546875 55.421875 157.871094 54.40625 C 157.191406 53.390625 156.488281 52.394531 155.761719 51.414062 C 155.03125 50.433594 154.28125 49.472656 153.507812 48.527344 C 152.730469 47.585938 151.933594 46.660156 151.113281 45.753906 C 150.296875 44.851562 149.453125 43.96875 148.589844 43.105469 C 147.726562 42.242188 146.84375 41.398438 145.9375 40.578125 C 145.035156 39.757812 144.109375 38.960938 143.164062 38.1875 C 142.222656 37.414062 141.261719 36.660156 140.28125 35.933594 C 139.300781 35.207031 138.300781 34.503906 137.285156 33.824219 C 136.269531 33.144531 135.242188 32.492188 134.195312 31.863281 C 133.144531 31.238281 132.085938 30.632812 131.007812 30.058594 C 129.933594 29.484375 128.839844 28.933594 127.738281 28.410156 C 126.636719 27.886719 125.519531 27.394531 124.390625 26.925781 C 123.265625 26.457031 122.125 26.015625 120.976562 25.605469 C 119.828125 25.191406 118.667969 24.808594 117.5 24.453125 C 116.332031 24.097656 115.15625 23.773438 113.972656 23.476562 C 112.789062 23.175781 111.597656 22.910156 110.398438 22.667969 C 109.203125 22.429688 108 22.222656 106.792969 22.039062 C 105.585938 21.859375 104.375 21.710938 103.160156 21.589844 C 101.945312 21.46875 100.726562 21.378906 99.507812 21.316406 C 98.289062 21.253906 97.066406 21.222656 95.847656 21.222656 Z M 140.621094 116.957031 C 140.621094 117.855469 140.53125 118.746094 140.355469 119.628906 C 140.179688 120.511719 139.917969 121.371094 139.574219 122.203125 C 139.230469 123.035156 138.804688 123.824219 138.304688 124.574219 C 137.804688 125.320312 137.238281 126.011719 136.601562 126.648438 C 135.964844 127.285156 135.269531 127.855469 134.523438 128.355469 C 133.773438 128.855469 132.984375 129.277344 132.152344 129.625 C 131.320312 129.96875 130.464844 130.230469 129.582031 130.40625 C 128.699219 130.582031 127.804688 130.671875 126.90625 130.671875 L 64.789062 130.671875 C 63.886719 130.671875 62.996094 130.582031 62.113281 130.40625 C 61.230469 130.230469 60.371094 129.96875 59.542969 129.625 C 58.710938 129.277344 57.917969 128.855469 57.171875 128.355469 C 56.421875 127.855469 55.730469 127.285156 55.09375 126.648438 C 54.457031 126.011719 53.886719 125.320312 53.386719 124.574219 C 52.886719 123.824219 52.464844 123.035156 52.121094 122.203125 C 51.773438 121.371094 51.515625 120.511719 51.339844 119.628906 C 51.160156 118.746094 51.074219 117.855469 51.070312 116.957031 L 51.070312 74.738281 C 51.074219 73.835938 51.160156 72.945312 51.339844 72.0625 C 51.515625 71.179688 51.773438 70.324219 52.121094 69.492188 C 52.464844 68.660156 52.886719 67.871094 53.386719 67.121094 C 53.886719 66.371094 54.457031 65.679688 55.09375 65.042969 C 55.730469 64.40625 56.421875 63.839844 57.171875 63.339844 C 57.917969 62.835938 58.710938 62.414062 59.542969 62.070312 C 60.371094 61.726562 61.230469 61.464844 62.113281 61.289062 C 62.996094 61.113281 63.886719 61.023438 64.789062 61.023438 L 126.90625 61.023438 C 127.804688 61.023438 128.699219 61.113281 129.582031 61.289062 C 130.464844 61.464844 131.320312 61.726562 132.152344 62.070312 C 132.984375 62.414062 133.773438 62.835938 134.523438 63.339844 C 135.269531 63.839844 135.964844 64.40625 136.601562 65.042969 C 137.238281 65.679688 137.804688 66.371094 138.304688 67.121094 C 138.804688 67.871094 139.230469 68.660156 139.574219 69.492188 C 139.917969 70.324219 140.179688 71.179688 140.355469 72.0625 C 140.53125 72.945312 140.621094 73.835938 140.621094 74.738281 Z M 140.621094 116.957031 " fill-opacity="1" fill-rule="nonzero"/></g></svg>