<svg xmlns="http://www.w3.org/2000/svg" xmlns:xlink="http://www.w3.org/1999/xlink" width="256" zoomAndPan="magnify" viewBox="0 0 192 191.999996" height="256" preserveAspectRatio="xMidYMid meet" version="1.0"><defs><clipPath id="695e66c89a"><path d="M 24 22.078125 L 172.949219 22.078125 L 172.949219 169.828125 L 24 169.828125 Z M 24 22.078125 " clip-rule="nonzero"/></clipPath></defs><g clip-path="url(#695e66c89a)"><path fill="#2eabe2" d="M 104.773438 141.480469 C 97.875 148.367188 88.703125 152.160156 78.949219 152.160156 C 69.195312 152.160156 60.023438 148.367188 53.125 141.480469 C 38.886719 127.261719 38.886719 104.128906 53.125 89.910156 C 60.246094 82.804688 69.59375 79.25 78.949219 79.25 C 88.300781 79.25 97.652344 82.804688 104.773438 89.910156 C 119.011719 104.128906 119.011719 127.261719 104.773438 141.480469 Z M 154.953125 22.113281 L 113.632812 22.113281 L 113.632812 39.808594 L 142.417969 39.808594 L 110.523438 71.65625 C 89.347656 56.5 59.605469 58.414062 40.589844 77.398438 C 19.441406 98.515625 19.441406 132.878906 40.589844 153.992188 C 50.835938 164.222656 64.460938 169.859375 78.949219 169.859375 C 93.4375 169.859375 107.0625 164.222656 117.304688 153.992188 C 136.324219 135.007812 138.238281 105.316406 123.058594 84.167969 L 154.953125 52.328125 L 154.953125 81.070312 L 172.675781 81.070312 L 172.675781 22.113281 L 154.953125 22.113281 " fill-opacity="1" fill-rule="nonzero"/></g></svg>