<svg xmlns="http://www.w3.org/2000/svg" xmlns:xlink="http://www.w3.org/1999/xlink" width="256" zoomAndPan="magnify" viewBox="0 0 192 191.999996" height="256" preserveAspectRatio="xMidYMid meet" version="1.0"><defs><clipPath id="c09baa13cb"><path d="M 8 22 L 184 22 L 184 171.945312 L 8 171.945312 Z M 8 22 " clip-rule="nonzero"/></clipPath></defs><g clip-path="url(#c09baa13cb)"><path fill="#d76b73" d="M 175.160156 41.351562 C 162.480469 21.398438 136.042969 19.792969 119.527344 25.445312 C 106.710938 29.839844 97.488281 42.050781 95.882812 44.140625 C 94.277344 42.050781 85.40625 30.085938 72.589844 25.722656 C 56.070312 20.074219 29.285156 21.398438 16.605469 41.351562 C 11.578125 49.269531 -4.242188 74.871094 30.050781 114.429688 C 30.050781 114.429688 62.496094 151.855469 92.460938 169.960938 C 93.824219 170.761719 95.570312 171.84375 95.707031 171.773438 C 95.847656 171.84375 97.769531 170.796875 99.132812 169.960938 C 129.09375 151.855469 161.714844 114.429688 161.714844 114.429688 C 196.007812 74.871094 180.1875 49.269531 175.160156 41.351562 Z M 175.160156 41.351562 " fill-opacity="1" fill-rule="nonzero"/></g><path fill="#ffffff" d="M 90.398438 134.519531 C 89.210938 134.519531 88.128906 133.789062 87.710938 132.636719 L 67.210938 77.976562 L 59.457031 102.847656 C 59.074219 104.035156 57.957031 104.941406 56.699219 104.941406 L 34.699219 104.941406 C 33.089844 104.941406 31.796875 103.582031 31.796875 101.976562 C 31.796875 100.371094 33.089844 99.011719 34.699219 99.011719 L 54.570312 99.011719 L 64.207031 68.210938 C 64.589844 67.023438 65.640625 66.222656 66.898438 66.1875 C 68.152344 66.152344 69.238281 66.917969 69.691406 68.070312 L 89.945312 122.066406 L 100.597656 81.257812 C 100.910156 80.070312 101.925781 79.234375 103.113281 79.128906 C 104.300781 79.023438 105.453125 79.652344 105.976562 80.765625 L 114.460938 98.59375 L 123.785156 61.234375 C 124.101562 60.011719 125.183594 59.105469 126.441406 59.070312 C 127.699219 59 128.886719 59.804688 129.304688 60.988281 L 136.148438 80.417969 L 162.65625 80.488281 C 164.261719 80.488281 165.519531 81.570312 165.519531 83.140625 C 165.519531 84.742188 164.226562 85.789062 162.621094 85.789062 L 134.054688 85.929688 C 132.832031 85.929688 131.75 85.265625 131.332031 84.117188 L 127 71.871094 L 118.023438 107.730469 C 117.746094 108.917969 116.730469 109.789062 115.511719 109.929688 C 114.289062 110.03125 113.136719 109.40625 112.609375 108.289062 L 104.054688 90.359375 L 93.089844 132.355469 C 92.773438 133.578125 91.691406 134.449219 90.433594 134.519531 C 90.503906 134.519531 90.46875 134.519531 90.398438 134.519531 Z M 90.398438 134.519531 " fill-opacity="1" fill-rule="nonzero"/><path fill="#ffffff" d="M 40.632812 101.347656 C 40.632812 101.757812 40.59375 102.164062 40.515625 102.566406 C 40.433594 102.96875 40.316406 103.359375 40.160156 103.738281 C 40 104.117188 39.808594 104.476562 39.582031 104.816406 C 39.351562 105.15625 39.09375 105.472656 38.804688 105.761719 C 38.511719 106.050781 38.199219 106.3125 37.855469 106.539062 C 37.515625 106.765625 37.15625 106.960938 36.773438 107.117188 C 36.394531 107.273438 36.003906 107.390625 35.601562 107.472656 C 35.199219 107.550781 34.792969 107.589844 34.382812 107.589844 C 33.972656 107.589844 33.566406 107.550781 33.164062 107.472656 C 32.761719 107.390625 32.371094 107.273438 31.992188 107.117188 C 31.613281 106.960938 31.25 106.765625 30.910156 106.539062 C 30.570312 106.3125 30.253906 106.050781 29.960938 105.761719 C 29.671875 105.472656 29.414062 105.15625 29.183594 104.816406 C 28.957031 104.476562 28.765625 104.117188 28.609375 103.738281 C 28.449219 103.359375 28.332031 102.96875 28.253906 102.566406 C 28.171875 102.164062 28.132812 101.757812 28.132812 101.347656 C 28.132812 100.9375 28.171875 100.53125 28.253906 100.128906 C 28.332031 99.726562 28.449219 99.335938 28.609375 98.957031 C 28.765625 98.578125 28.957031 98.21875 29.183594 97.878906 C 29.414062 97.539062 29.671875 97.222656 29.960938 96.933594 C 30.253906 96.644531 30.570312 96.382812 30.910156 96.15625 C 31.25 95.929688 31.613281 95.734375 31.992188 95.578125 C 32.371094 95.421875 32.761719 95.304688 33.164062 95.222656 C 33.566406 95.144531 33.972656 95.105469 34.382812 95.105469 C 34.792969 95.105469 35.199219 95.144531 35.601562 95.222656 C 36.003906 95.304688 36.394531 95.421875 36.773438 95.578125 C 37.15625 95.734375 37.515625 95.929688 37.855469 96.15625 C 38.199219 96.382812 38.511719 96.644531 38.804688 96.933594 C 39.09375 97.222656 39.351562 97.539062 39.582031 97.878906 C 39.808594 98.21875 40 98.578125 40.160156 98.957031 C 40.316406 99.335938 40.433594 99.726562 40.515625 100.128906 C 40.59375 100.53125 40.632812 100.9375 40.632812 101.347656 Z M 40.632812 101.347656 " fill-opacity="1" fill-rule="nonzero"/><path fill="#ffffff" d="M 171.632812 83.246094 C 171.632812 83.652344 171.589844 84.058594 171.511719 84.460938 C 171.429688 84.863281 171.3125 85.253906 171.15625 85.632812 C 171 86.011719 170.804688 86.371094 170.578125 86.714844 C 170.351562 87.054688 170.089844 87.371094 169.800781 87.660156 C 169.511719 87.949219 169.195312 88.207031 168.851562 88.4375 C 168.511719 88.664062 168.152344 88.855469 167.773438 89.011719 C 167.394531 89.167969 167.003906 89.289062 166.601562 89.367188 C 166.199219 89.449219 165.789062 89.488281 165.378906 89.488281 C 164.96875 89.488281 164.5625 89.449219 164.160156 89.367188 C 163.757812 89.289062 163.367188 89.167969 162.988281 89.011719 C 162.609375 88.855469 162.25 88.664062 161.90625 88.4375 C 161.566406 88.207031 161.25 87.949219 160.960938 87.660156 C 160.667969 87.371094 160.410156 87.054688 160.183594 86.714844 C 159.953125 86.371094 159.761719 86.011719 159.605469 85.632812 C 159.449219 85.253906 159.328125 84.863281 159.25 84.460938 C 159.167969 84.058594 159.128906 83.652344 159.128906 83.246094 C 159.128906 82.835938 159.167969 82.429688 159.25 82.027344 C 159.328125 81.625 159.449219 81.234375 159.605469 80.855469 C 159.761719 80.476562 159.953125 80.117188 160.183594 79.773438 C 160.410156 79.433594 160.667969 79.117188 160.960938 78.828125 C 161.25 78.539062 161.566406 78.28125 161.90625 78.050781 C 162.25 77.824219 162.609375 77.632812 162.988281 77.476562 C 163.367188 77.320312 163.757812 77.199219 164.160156 77.121094 C 164.5625 77.039062 164.96875 77 165.378906 77 C 165.789062 77 166.199219 77.039062 166.601562 77.121094 C 167.003906 77.199219 167.394531 77.320312 167.773438 77.476562 C 168.152344 77.632812 168.511719 77.824219 168.851562 78.050781 C 169.195312 78.28125 169.511719 78.539062 169.800781 78.828125 C 170.089844 79.117188 170.351562 79.433594 170.578125 79.773438 C 170.804688 80.117188 171 80.476562 171.15625 80.855469 C 171.3125 81.234375 171.429688 81.625 171.511719 82.027344 C 171.589844 82.429688 171.632812 82.835938 171.632812 83.246094 Z M 171.632812 83.246094 " fill-opacity="1" fill-rule="nonzero"/></svg>