<svg xmlns="http://www.w3.org/2000/svg" xmlns:xlink="http://www.w3.org/1999/xlink" width="256" zoomAndPan="magnify" viewBox="0 0 192 191.999996" height="256" preserveAspectRatio="xMidYMid meet" version="1.0"><defs><clipPath id="4d26105d44"><path d="M 15.601562 48.175781 L 176.101562 48.175781 L 176.101562 144.175781 L 15.601562 144.175781 Z M 15.601562 48.175781 " clip-rule="nonzero"/></clipPath></defs><g clip-path="url(#4d26105d44)"><path fill="#000000" d="M 164.433594 48.183594 L 27.265625 48.183594 C 20.820312 48.183594 15.601562 53.433594 15.601562 59.917969 L 15.601562 132.433594 C 15.601562 138.917969 20.820312 144.164062 27.265625 144.164062 L 164.433594 144.164062 C 170.882812 144.164062 176.101562 138.917969 176.101562 132.433594 L 176.101562 59.917969 C 176.101562 53.433594 170.882812 48.183594 164.433594 48.183594 Z M 49.242188 58.808594 C 49.582031 58.808594 49.910156 58.816406 50.238281 58.839844 C 50.355469 58.851562 50.472656 58.859375 50.578125 58.859375 C 50.578125 58.859375 50.589844 58.859375 50.589844 58.859375 C 50.707031 58.871094 50.8125 58.882812 50.917969 58.890625 C 50.929688 58.890625 50.929688 58.890625 50.941406 58.890625 C 51.046875 58.902344 51.152344 58.914062 51.269531 58.933594 C 51.28125 58.933594 51.289062 58.933594 51.289062 58.933594 C 51.394531 58.945312 51.503906 58.96875 51.609375 58.988281 C 51.617188 58.988281 51.628906 58.988281 51.628906 58.988281 C 51.734375 59.007812 51.839844 59.019531 51.949219 59.042969 C 51.957031 59.042969 51.96875 59.042969 51.96875 59.050781 C 52.074219 59.074219 52.179688 59.09375 52.285156 59.117188 C 52.296875 59.117188 52.296875 59.117188 52.308594 59.117188 C 52.414062 59.136719 52.519531 59.160156 52.625 59.191406 C 52.636719 59.191406 52.636719 59.191406 52.648438 59.191406 C 52.753906 59.210938 52.859375 59.246094 52.964844 59.265625 C 52.964844 59.265625 52.976562 59.265625 52.976562 59.265625 C 53.082031 59.296875 53.1875 59.320312 53.292969 59.351562 C 54.707031 59.757812 56.03125 60.363281 57.238281 61.152344 C 57.238281 61.152344 57.25 61.152344 57.25 61.164062 C 57.335938 61.21875 57.421875 61.269531 57.503906 61.335938 C 57.515625 61.34375 57.527344 61.34375 57.535156 61.355469 C 57.609375 61.410156 57.695312 61.460938 57.769531 61.515625 C 57.78125 61.527344 57.800781 61.539062 57.8125 61.546875 C 57.886719 61.601562 57.960938 61.65625 58.035156 61.707031 C 58.058594 61.71875 58.066406 61.730469 58.089844 61.75 C 58.164062 61.804688 58.226562 61.855469 58.289062 61.910156 C 58.3125 61.921875 58.332031 61.941406 58.355469 61.953125 C 58.417969 62.007812 58.480469 62.058594 58.554688 62.113281 C 58.578125 62.132812 58.597656 62.144531 58.617188 62.167969 C 58.683594 62.21875 58.746094 62.273438 58.808594 62.328125 C 58.832031 62.347656 58.851562 62.367188 58.875 62.378906 C 58.9375 62.433594 58.988281 62.484375 59.054688 62.539062 C 59.074219 62.5625 59.097656 62.582031 59.117188 62.605469 L 59.285156 62.761719 C 59.308594 62.785156 59.328125 62.804688 59.351562 62.828125 C 59.402344 62.882812 59.46875 62.933594 59.519531 63 C 59.542969 63.019531 59.5625 63.039062 59.582031 63.074219 C 59.636719 63.125 59.691406 63.179688 59.753906 63.242188 C 59.773438 63.265625 59.796875 63.296875 59.828125 63.316406 C 59.882812 63.371094 59.933594 63.433594 59.988281 63.488281 C 60.007812 63.511719 60.03125 63.542969 60.050781 63.5625 C 60.105469 63.617188 60.15625 63.679688 60.210938 63.734375 C 60.230469 63.753906 60.253906 63.789062 60.273438 63.808594 C 60.328125 63.871094 60.378906 63.925781 60.421875 63.988281 C 60.441406 64.011719 60.464844 64.042969 60.484375 64.066406 C 60.539062 64.128906 60.582031 64.183594 60.632812 64.246094 C 60.65625 64.265625 60.675781 64.289062 60.6875 64.320312 C 60.738281 64.382812 60.78125 64.449219 60.835938 64.511719 C 60.847656 64.535156 60.867188 64.554688 60.878906 64.578125 C 60.929688 64.640625 60.984375 64.714844 61.027344 64.777344 C 61.035156 64.789062 61.046875 64.8125 61.058594 64.820312 C 61.292969 65.140625 61.503906 65.484375 61.714844 65.824219 C 61.726562 65.84375 61.738281 65.867188 61.757812 65.886719 C 61.789062 65.953125 61.832031 66.015625 61.863281 66.082031 C 61.886719 66.113281 61.90625 66.15625 61.929688 66.1875 C 61.960938 66.238281 61.992188 66.304688 62.023438 66.359375 C 62.042969 66.398438 62.066406 66.441406 62.085938 66.484375 C 62.117188 66.539062 62.140625 66.59375 62.171875 66.65625 C 62.191406 66.699219 62.214844 66.742188 62.234375 66.785156 C 62.265625 66.835938 62.289062 66.890625 62.320312 66.945312 C 62.339844 66.988281 62.363281 67.039062 62.382812 67.082031 C 62.40625 67.136719 62.4375 67.1875 62.457031 67.242188 C 62.480469 67.296875 62.5 67.339844 62.523438 67.390625 C 62.542969 67.445312 62.5625 67.5 62.597656 67.550781 C 62.617188 67.605469 62.636719 67.648438 62.660156 67.703125 L 62.722656 67.859375 C 62.746094 67.914062 62.765625 67.96875 62.785156 68.019531 C 62.808594 68.074219 62.828125 68.128906 62.851562 68.179688 C 62.871094 68.234375 62.894531 68.289062 62.902344 68.339844 C 62.925781 68.394531 62.945312 68.449219 62.957031 68.5 C 62.976562 68.554688 63 68.609375 63.007812 68.660156 C 63.03125 68.714844 63.042969 68.769531 63.0625 68.820312 C 63.082031 68.875 63.09375 68.925781 63.117188 68.992188 C 63.136719 69.042969 63.148438 69.097656 63.15625 69.152344 C 63.179688 69.203125 63.191406 69.269531 63.210938 69.320312 C 63.222656 69.375 63.242188 69.429688 63.253906 69.480469 C 63.265625 69.535156 63.285156 69.597656 63.296875 69.652344 C 63.304688 69.707031 63.316406 69.757812 63.339844 69.8125 C 63.347656 69.867188 63.359375 69.929688 63.378906 69.992188 C 63.390625 70.046875 63.402344 70.101562 63.414062 70.152344 C 63.421875 70.21875 63.433594 70.269531 63.445312 70.335938 C 63.457031 70.386719 63.464844 70.441406 63.476562 70.496094 C 63.488281 70.558594 63.496094 70.625 63.507812 70.675781 C 63.519531 70.730469 63.53125 70.78125 63.53125 70.835938 C 63.539062 70.902344 63.550781 70.964844 63.550781 71.027344 C 63.5625 71.082031 63.5625 71.136719 63.570312 71.1875 C 63.582031 71.253906 63.582031 71.316406 63.59375 71.378906 C 63.605469 71.433594 63.605469 71.488281 63.613281 71.539062 C 63.625 71.605469 63.625 71.667969 63.636719 71.742188 C 63.636719 71.796875 63.644531 71.839844 63.644531 71.890625 C 63.65625 71.96875 63.65625 72.03125 63.65625 72.105469 C 63.65625 72.148438 63.667969 72.203125 63.667969 72.246094 C 63.667969 72.320312 63.679688 72.402344 63.679688 72.480469 C 63.679688 72.523438 63.679688 72.554688 63.679688 72.597656 C 63.679688 72.714844 63.679688 72.832031 63.679688 72.957031 C 63.679688 73.074219 63.679688 73.191406 63.679688 73.320312 C 63.679688 73.363281 63.679688 73.394531 63.679688 73.4375 C 63.679688 73.511719 63.667969 73.597656 63.667969 73.671875 C 63.667969 73.714844 63.65625 73.769531 63.65625 73.8125 C 63.65625 73.886719 63.644531 73.949219 63.644531 74.023438 C 63.644531 74.078125 63.636719 74.121094 63.636719 74.175781 C 63.625 74.238281 63.625 74.300781 63.613281 74.378906 C 63.613281 74.429688 63.605469 74.484375 63.59375 74.535156 C 63.582031 74.601562 63.582031 74.664062 63.570312 74.730469 C 63.5625 74.78125 63.5625 74.835938 63.550781 74.890625 C 63.539062 74.953125 63.53125 75.015625 63.53125 75.082031 C 63.519531 75.132812 63.507812 75.1875 63.507812 75.242188 C 63.496094 75.304688 63.488281 75.367188 63.476562 75.421875 C 63.464844 75.476562 63.457031 75.527344 63.445312 75.582031 C 63.433594 75.644531 63.421875 75.699219 63.414062 75.761719 C 63.402344 75.816406 63.390625 75.871094 63.378906 75.921875 C 63.371094 75.988281 63.359375 76.039062 63.339844 76.105469 C 63.328125 76.15625 63.316406 76.210938 63.296875 76.265625 C 63.285156 76.316406 63.265625 76.382812 63.253906 76.433594 C 63.242188 76.488281 63.222656 76.542969 63.210938 76.59375 C 63.199219 76.648438 63.179688 76.710938 63.167969 76.765625 C 63.15625 76.820312 63.136719 76.871094 63.125 76.925781 C 63.117188 76.980469 63.09375 77.03125 63.074219 77.097656 C 63.0625 77.148438 63.042969 77.203125 63.019531 77.257812 C 63 77.308594 62.988281 77.363281 62.96875 77.417969 C 62.945312 77.46875 62.933594 77.523438 62.914062 77.578125 C 62.894531 77.628906 62.871094 77.683594 62.859375 77.738281 C 62.839844 77.789062 62.820312 77.84375 62.796875 77.894531 C 62.777344 77.949219 62.753906 78.003906 62.734375 78.054688 L 62.671875 78.214844 C 62.648438 78.269531 62.628906 78.3125 62.605469 78.367188 C 62.585938 78.417969 62.5625 78.472656 62.53125 78.527344 C 62.511719 78.578125 62.488281 78.621094 62.46875 78.675781 C 62.449219 78.726562 62.414062 78.78125 62.394531 78.835938 C 62.375 78.878906 62.351562 78.929688 62.332031 78.972656 C 62.308594 79.027344 62.277344 79.082031 62.246094 79.132812 C 62.226562 79.175781 62.203125 79.21875 62.183594 79.273438 C 62.152344 79.324219 62.128906 79.390625 62.097656 79.441406 C 62.078125 79.484375 62.054688 79.527344 62.035156 79.570312 C 62.003906 79.625 61.96875 79.6875 61.9375 79.742188 C 61.917969 79.773438 61.894531 79.816406 61.875 79.847656 C 61.84375 79.910156 61.800781 79.976562 61.769531 80.039062 C 61.757812 80.0625 61.746094 80.082031 61.726562 80.105469 C 61.523438 80.445312 61.300781 80.777344 61.070312 81.105469 C 61.058594 81.117188 61.046875 81.136719 61.035156 81.148438 C 60.984375 81.214844 60.941406 81.289062 60.886719 81.351562 C 60.878906 81.371094 60.855469 81.394531 60.847656 81.414062 C 60.792969 81.480469 60.75 81.542969 60.699219 81.609375 C 60.675781 81.628906 60.65625 81.660156 60.644531 81.683594 C 60.589844 81.746094 60.550781 81.800781 60.496094 81.863281 C 60.476562 81.886719 60.453125 81.917969 60.433594 81.9375 C 60.378906 82.003906 60.335938 82.054688 60.285156 82.121094 C 60.261719 82.140625 60.242188 82.171875 60.21875 82.195312 C 60.167969 82.246094 60.113281 82.3125 60.0625 82.363281 C 60.039062 82.386719 60.019531 82.417969 59.996094 82.4375 C 59.945312 82.492188 59.890625 82.558594 59.839844 82.609375 C 59.816406 82.632812 59.796875 82.652344 59.773438 82.683594 C 59.722656 82.738281 59.667969 82.800781 59.605469 82.855469 C 59.582031 82.875 59.5625 82.898438 59.542969 82.917969 C 59.488281 82.972656 59.425781 83.027344 59.371094 83.089844 C 59.351562 83.109375 59.328125 83.132812 59.308594 83.152344 C 59.246094 83.207031 59.191406 83.261719 59.136719 83.3125 C 59.117188 83.335938 59.097656 83.355469 59.074219 83.378906 C 59.011719 83.429688 58.957031 83.484375 58.894531 83.539062 C 58.875 83.558594 58.851562 83.582031 58.832031 83.589844 C 58.765625 83.644531 58.703125 83.699219 58.640625 83.75 C 58.617188 83.773438 58.597656 83.78125 58.578125 83.804688 C 58.511719 83.859375 58.449219 83.910156 58.375 83.964844 L 58.320312 84.007812 C 58.246094 84.058594 58.183594 84.113281 58.109375 84.167969 C 58.089844 84.175781 58.078125 84.1875 58.058594 84.210938 C 57.980469 84.261719 57.90625 84.316406 57.832031 84.371094 C 57.824219 84.378906 57.800781 84.390625 57.792969 84.402344 C 57.71875 84.453125 57.632812 84.507812 57.558594 84.5625 C 57.546875 84.570312 57.535156 84.570312 57.527344 84.582031 C 57.441406 84.636719 57.355469 84.699219 57.273438 84.753906 C 57.273438 84.753906 57.261719 84.753906 57.261719 84.765625 C 55.96875 85.605469 54.535156 86.246094 52.996094 86.652344 C 52.996094 86.652344 52.988281 86.652344 52.988281 86.652344 C 52.882812 86.683594 52.773438 86.707031 52.667969 86.726562 C 52.660156 86.726562 52.660156 86.726562 52.660156 86.726562 C 52.550781 86.746094 52.445312 86.78125 52.339844 86.800781 C 52.328125 86.800781 52.328125 86.800781 52.320312 86.800781 C 52.210938 86.824219 52.105469 86.84375 52 86.863281 C 51.988281 86.863281 51.988281 86.863281 51.980469 86.863281 C 51.875 86.886719 51.765625 86.90625 51.660156 86.917969 C 51.652344 86.917969 51.652344 86.917969 51.640625 86.917969 C 51.535156 86.941406 51.429688 86.949219 51.3125 86.972656 C 51.300781 86.972656 51.300781 86.972656 51.289062 86.972656 C 51.183594 86.980469 51.066406 87.003906 50.960938 87.015625 C 50.960938 87.015625 50.949219 87.015625 50.949219 87.015625 C 50.835938 87.023438 50.726562 87.035156 50.609375 87.046875 C 50.609375 87.046875 50.609375 87.046875 50.601562 87.046875 C 50.15625 87.089844 49.710938 87.109375 49.253906 87.109375 C 41.265625 87.109375 34.789062 80.777344 34.789062 72.949219 C 34.789062 65.152344 41.257812 58.808594 49.242188 58.808594 Z M 23.3125 121.992188 L 23.3125 113.546875 C 23.300781 112.652344 23.300781 111.746094 23.300781 110.847656 C 23.300781 100.3125 31.59375 91.761719 41.820312 91.761719 L 55.054688 91.761719 C 55.214844 91.761719 55.375 91.761719 55.53125 91.761719 C 63.476562 91.972656 70.167969 97.328125 72.597656 104.71875 C 73.222656 106.636719 73.574219 108.695312 73.574219 110.839844 C 73.574219 111.734375 73.574219 112.640625 73.5625 113.535156 L 73.582031 113.535156 L 73.582031 121.984375 L 23.3125 121.984375 Z M 156.574219 134.566406 L 51.746094 134.566406 L 51.746094 131.015625 L 156.574219 131.015625 Z M 156.660156 101.507812 L 85.25 101.507812 L 85.25 97.957031 L 156.660156 97.957031 Z M 156.660156 92.976562 L 85.25 92.976562 L 85.25 89.425781 L 156.660156 89.425781 Z M 156.660156 84.445312 L 85.25 84.445312 L 85.25 80.894531 L 156.660156 80.894531 Z M 156.660156 75.5625 L 85.25 75.5625 L 85.25 72.007812 L 156.660156 72.007812 Z M 156.660156 75.5625 " fill-opacity="1" fill-rule="nonzero"/></g></svg>