<svg xmlns="http://www.w3.org/2000/svg" xmlns:xlink="http://www.w3.org/1999/xlink" width="256" zoomAndPan="magnify" viewBox="0 0 192 191.999996" height="256" preserveAspectRatio="xMidYMid meet" version="1.0"><defs><clipPath id="bbe60a7b2d"><path d="M 45.914062 20.488281 L 146.144531 20.488281 L 146.144531 153.816406 L 45.914062 153.816406 Z M 45.914062 20.488281 " clip-rule="nonzero"/></clipPath><clipPath id="442c706cc0"><path d="M 60.261719 138 L 131.601562 138 L 131.601562 171.238281 L 60.261719 171.238281 Z M 60.261719 138 " clip-rule="nonzero"/></clipPath></defs><g clip-path="url(#bbe60a7b2d)"><path fill="#000000" d="M 96.042969 20.488281 C 123.597656 20.488281 146.144531 42.566406 146.144531 69.949219 C 146.144531 92.710938 110.253906 130.703125 95.171875 153.464844 C 78.691406 128.816406 45.914062 95.785156 45.914062 69.949219 C 45.914062 42.566406 68.296875 20.488281 96.042969 20.488281 Z M 96.042969 52.835938 C 83.546875 52.835938 73.496094 62.765625 73.496094 75.078125 C 73.496094 87.40625 83.546875 97.332031 96.042969 97.332031 C 108.515625 97.332031 118.574219 87.402344 118.574219 75.078125 C 118.574219 62.765625 108.511719 52.835938 96.042969 52.835938 " fill-opacity="1" fill-rule="evenodd"/></g><g clip-path="url(#442c706cc0)"><path fill="#000000" d="M 109.378906 138.035156 C 122.296875 140.628906 131.230469 146.769531 131.230469 153.976562 C 131.230469 163.554688 115.460938 171.253906 96.042969 171.253906 C 76.4375 171.253906 60.660156 163.554688 60.660156 153.976562 C 60.660156 147.089844 69.167969 141.09375 81.207031 138.394531 C 81.488281 138.761719 81.769531 139.125 82.050781 139.492188 C 85.882812 144.484375 89.707031 149.539062 93.203125 154.769531 L 95.179688 157.71875 L 97.140625 154.761719 C 100.785156 149.261719 104.851562 143.941406 108.867188 138.703125 L 109.378906 138.035156 " fill-opacity="1" fill-rule="evenodd"/></g></svg>