<svg xmlns="http://www.w3.org/2000/svg" xmlns:xlink="http://www.w3.org/1999/xlink" width="256" zoomAndPan="magnify" viewBox="0 0 192 191.999996" height="256" preserveAspectRatio="xMidYMid meet" version="1.0"><defs><clipPath id="5eab629aa8"><path d="M 25.25 25.25 L 167 25.25 L 167 167 L 25.25 167 Z M 25.25 25.25 " clip-rule="nonzero"/></clipPath></defs><g clip-path="url(#5eab629aa8)"><path fill="#000000" d="M 132.605469 120.375 C 124.046875 132.011719 110.359375 138.949219 95.996094 138.949219 C 81.636719 138.949219 67.949219 132.011719 59.390625 120.375 C 58.957031 119.792969 58.796875 119.0625 58.957031 118.351562 C 61.859375 104.753906 72.074219 94.113281 84.902344 90.136719 C 79.417969 86.511719 75.785156 80.304688 75.785156 73.257812 C 75.785156 62.113281 84.855469 53.042969 95.996094 53.042969 C 107.140625 53.042969 116.210938 62.113281 116.210938 73.257812 C 116.210938 80.304688 112.578125 86.511719 107.089844 90.136719 C 119.921875 94.113281 130.136719 104.753906 133.039062 118.351562 C 133.195312 119.0625 133.039062 119.792969 132.605469 120.375 Z M 95.996094 25.25 C 56.984375 25.25 25.25 56.984375 25.25 95.996094 C 25.25 135.011719 56.984375 166.742188 95.996094 166.742188 C 135.011719 166.742188 166.742188 135.011719 166.742188 95.996094 C 166.742188 56.984375 135.011719 25.25 95.996094 25.25 " fill-opacity="1" fill-rule="nonzero"/></g><path fill="#000000" d="M 95.996094 88.417969 C 104.355469 88.417969 111.15625 81.617188 111.15625 73.257812 C 111.15625 64.898438 104.355469 58.097656 95.996094 58.097656 C 87.636719 58.097656 80.835938 64.898438 80.835938 73.257812 C 80.835938 81.617188 87.636719 88.417969 95.996094 88.417969 " fill-opacity="1" fill-rule="nonzero"/><path fill="#000000" d="M 95.996094 93.472656 C 80.996094 93.472656 67.78125 103.84375 64.148438 118.304688 C 71.886719 128.230469 83.433594 133.898438 95.996094 133.898438 C 108.5625 133.898438 120.109375 128.230469 127.847656 118.304688 C 124.214844 103.84375 111 93.472656 95.996094 93.472656 " fill-opacity="1" fill-rule="nonzero"/></svg>