<svg xmlns="http://www.w3.org/2000/svg" xmlns:xlink="http://www.w3.org/1999/xlink" width="256" zoomAndPan="magnify" viewBox="0 0 192 191.999996" height="256" preserveAspectRatio="xMidYMid meet" version="1.0"><defs><clipPath id="bca7f3a32d"><path d="M 111 111 L 163 111 L 163 163.535156 L 111 163.535156 Z M 111 111 " clip-rule="nonzero"/></clipPath></defs><path fill="#000000" d="M 84.289062 136.335938 C 83.234375 136.335938 82.179688 136.304688 81.128906 136.238281 C 80.078125 136.175781 79.027344 136.078125 77.980469 135.949219 C 76.933594 135.824219 75.894531 135.660156 74.855469 135.46875 C 73.820312 135.277344 72.789062 135.054688 71.769531 134.796875 C 70.746094 134.542969 69.730469 134.253906 68.726562 133.9375 C 67.722656 133.617188 66.726562 133.269531 65.742188 132.890625 C 64.761719 132.511719 63.789062 132.101562 62.828125 131.664062 C 61.871094 131.226562 60.925781 130.757812 59.996094 130.261719 C 59.066406 129.765625 58.152344 129.238281 57.257812 128.6875 C 56.359375 128.132812 55.480469 127.554688 54.617188 126.949219 C 53.753906 126.339844 52.910156 125.707031 52.089844 125.050781 C 51.265625 124.390625 50.464844 123.707031 49.683594 123 C 48.902344 122.292969 48.140625 121.5625 47.40625 120.808594 C 46.667969 120.054688 45.957031 119.277344 45.269531 118.480469 C 44.578125 117.679688 43.914062 116.863281 43.277344 116.023438 C 42.636719 115.183594 42.027344 114.328125 41.441406 113.449219 C 40.855469 112.574219 40.296875 111.679688 39.765625 110.769531 C 39.234375 109.859375 38.730469 108.933594 38.257812 107.992188 C 37.785156 107.050781 37.339844 106.09375 36.921875 105.125 C 36.507812 104.15625 36.121094 103.175781 35.765625 102.183594 C 35.410156 101.191406 35.085938 100.1875 34.792969 99.175781 C 34.5 98.164062 34.238281 97.144531 34.007812 96.113281 C 33.777344 95.085938 33.578125 94.050781 33.410156 93.011719 C 33.242188 91.96875 33.105469 90.925781 33.003906 89.875 C 32.898438 88.828125 32.828125 87.777344 32.789062 86.722656 C 32.75 85.667969 32.746094 84.617188 32.769531 83.5625 C 32.796875 82.507812 32.855469 81.457031 32.945312 80.40625 C 33.035156 79.355469 33.15625 78.308594 33.3125 77.265625 C 33.46875 76.222656 33.652344 75.1875 33.871094 74.15625 C 34.089844 73.125 34.339844 72.101562 34.621094 71.082031 C 34.902344 70.066406 35.214844 69.0625 35.558594 68.066406 C 35.902344 67.066406 36.273438 66.082031 36.679688 65.109375 C 37.082031 64.132812 37.515625 63.175781 37.976562 62.226562 C 38.441406 61.28125 38.929688 60.347656 39.449219 59.429688 C 39.96875 58.511719 40.515625 57.613281 41.09375 56.730469 C 41.667969 55.84375 42.269531 54.980469 42.898438 54.132812 C 43.527344 53.289062 44.179688 52.460938 44.859375 51.652344 C 45.535156 50.847656 46.238281 50.0625 46.96875 49.300781 C 47.695312 48.535156 48.445312 47.796875 49.214844 47.078125 C 49.988281 46.363281 50.78125 45.667969 51.597656 45 C 52.414062 44.332031 53.246094 43.6875 54.101562 43.070312 C 54.957031 42.453125 55.828125 41.863281 56.71875 41.300781 C 57.609375 40.734375 58.519531 40.199219 59.441406 39.691406 C 60.367188 39.183594 61.304688 38.703125 62.257812 38.253906 C 63.210938 37.804688 64.175781 37.382812 65.15625 36.992188 C 66.132812 36.601562 67.125 36.242188 68.125 35.910156 C 69.125 35.578125 70.136719 35.28125 71.15625 35.011719 C 72.175781 34.746094 73.203125 34.507812 74.238281 34.300781 C 75.269531 34.097656 76.308594 33.921875 77.355469 33.78125 C 78.398438 33.640625 79.445312 33.53125 80.5 33.453125 C 81.550781 33.378906 82.601562 33.332031 83.65625 33.320312 C 84.710938 33.308594 85.765625 33.328125 86.816406 33.378906 C 87.871094 33.433594 88.921875 33.515625 89.96875 33.632812 C 91.015625 33.75 92.058594 33.898438 93.097656 34.078125 C 94.136719 34.261719 95.167969 34.472656 96.195312 34.71875 C 97.21875 34.960938 98.234375 35.238281 99.246094 35.542969 C 100.253906 35.851562 101.25 36.1875 102.238281 36.554688 C 103.226562 36.921875 104.203125 37.320312 105.167969 37.75 C 106.128906 38.175781 107.078125 38.632812 108.015625 39.121094 C 108.949219 39.605469 109.871094 40.121094 110.773438 40.664062 C 111.675781 41.203125 112.5625 41.773438 113.433594 42.371094 C 114.300781 42.96875 115.152344 43.589844 115.980469 44.242188 C 116.8125 44.890625 117.621094 45.5625 118.410156 46.261719 C 119.199219 46.960938 119.96875 47.683594 120.714844 48.429688 C 122.503906 50.21875 124.15625 52.132812 125.667969 54.167969 C 127.175781 56.199219 128.53125 58.332031 129.722656 60.566406 C 130.917969 62.800781 131.945312 65.109375 132.796875 67.496094 C 133.652344 69.878906 134.328125 72.316406 134.820312 74.800781 C 135.316406 77.285156 135.625 79.789062 135.75 82.320312 C 135.875 84.851562 135.8125 87.375 135.566406 89.898438 C 135.316406 92.417969 134.886719 94.90625 134.269531 97.363281 C 133.65625 99.824219 132.863281 102.222656 131.890625 104.5625 C 130.921875 106.902344 129.785156 109.15625 128.484375 111.332031 C 127.179688 113.503906 125.726562 115.566406 124.117188 117.527344 C 122.511719 119.484375 120.765625 121.3125 118.890625 123.011719 C 117.011719 124.714844 115.019531 126.265625 112.914062 127.671875 C 110.804688 129.078125 108.605469 130.324219 106.316406 131.40625 C 104.027344 132.488281 101.667969 133.394531 99.242188 134.128906 C 96.820312 134.863281 94.355469 135.414062 91.847656 135.785156 C 89.339844 136.152344 86.820312 136.335938 84.289062 136.335938 Z M 84.289062 44.664062 C 83.519531 44.664062 82.753906 44.683594 81.988281 44.726562 C 81.21875 44.769531 80.457031 44.832031 79.691406 44.917969 C 78.929688 45.003906 78.167969 45.113281 77.414062 45.242188 C 76.65625 45.371094 75.902344 45.523438 75.15625 45.695312 C 74.40625 45.871094 73.664062 46.0625 72.925781 46.277344 C 72.191406 46.492188 71.460938 46.730469 70.738281 46.988281 C 70.011719 47.246094 69.296875 47.523438 68.589844 47.820312 C 67.882812 48.117188 67.183594 48.4375 66.496094 48.773438 C 65.804688 49.113281 65.125 49.472656 64.457031 49.847656 C 63.789062 50.226562 63.132812 50.621094 62.484375 51.035156 C 61.839844 51.449219 61.207031 51.882812 60.585938 52.335938 C 59.960938 52.785156 59.355469 53.253906 58.761719 53.742188 C 58.164062 54.226562 57.585938 54.730469 57.019531 55.25 C 56.453125 55.769531 55.90625 56.304688 55.371094 56.855469 C 54.835938 57.40625 54.316406 57.96875 53.8125 58.550781 C 53.3125 59.132812 52.824219 59.726562 52.355469 60.335938 C 51.886719 60.941406 51.4375 61.5625 51.003906 62.199219 C 50.570312 62.832031 50.15625 63.476562 49.761719 64.136719 C 49.367188 64.792969 48.988281 65.464844 48.632812 66.140625 C 48.273438 66.820312 47.9375 67.511719 47.617188 68.210938 C 47.300781 68.910156 47.003906 69.617188 46.726562 70.332031 C 46.449219 71.046875 46.191406 71.773438 45.953125 72.503906 C 45.71875 73.234375 45.503906 73.96875 45.308594 74.710938 C 45.117188 75.457031 44.945312 76.203125 44.792969 76.957031 C 44.640625 77.710938 44.511719 78.464844 44.40625 79.226562 C 44.296875 79.988281 44.210938 80.75 44.148438 81.515625 C 44.085938 82.28125 44.042969 83.046875 44.023438 83.8125 C 44.003906 84.582031 44.003906 85.347656 44.03125 86.117188 C 44.054688 86.882812 44.101562 87.648438 44.167969 88.414062 C 44.234375 89.179688 44.324219 89.941406 44.4375 90.703125 C 44.550781 91.460938 44.683594 92.214844 44.835938 92.96875 C 44.992188 93.722656 45.167969 94.46875 45.367188 95.210938 C 45.566406 95.953125 45.785156 96.6875 46.023438 97.417969 C 46.261719 98.144531 46.523438 98.867188 46.804688 99.582031 C 47.085938 100.296875 47.386719 101.003906 47.710938 101.699219 C 48.03125 102.398438 48.375 103.082031 48.734375 103.761719 C 49.097656 104.4375 49.476562 105.105469 49.875 105.761719 C 50.277344 106.417969 50.691406 107.0625 51.128906 107.691406 C 51.566406 108.324219 52.019531 108.945312 52.492188 109.550781 C 52.964844 110.15625 53.453125 110.746094 53.957031 111.324219 C 54.464844 111.902344 54.984375 112.464844 55.523438 113.011719 C 56.0625 113.5625 56.613281 114.09375 57.183594 114.609375 C 57.75 115.125 58.335938 115.625 58.933594 116.105469 C 59.527344 116.589844 60.140625 117.054688 60.761719 117.503906 C 61.386719 117.949219 62.023438 118.378906 62.671875 118.792969 C 63.320312 119.203125 63.980469 119.59375 64.648438 119.96875 C 65.320312 120.34375 66.003906 120.695312 66.695312 121.03125 C 67.382812 121.363281 68.085938 121.679688 68.792969 121.972656 C 69.503906 122.269531 70.21875 122.542969 70.945312 122.792969 C 71.667969 123.046875 72.402344 123.28125 73.140625 123.492188 C 73.878906 123.703125 74.621094 123.894531 75.371094 124.0625 C 76.121094 124.230469 76.871094 124.378906 77.628906 124.503906 C 78.386719 124.628906 79.148438 124.730469 79.910156 124.8125 C 80.675781 124.894531 81.441406 124.957031 82.207031 124.992188 C 82.972656 125.03125 83.742188 125.046875 84.507812 125.042969 C 85.277344 125.035156 86.042969 125.007812 86.808594 124.957031 C 87.578125 124.910156 88.339844 124.835938 89.101562 124.742188 C 89.863281 124.648438 90.625 124.535156 91.378906 124.394531 C 92.132812 124.257812 92.886719 124.101562 93.632812 123.921875 C 94.378906 123.738281 95.117188 123.539062 95.855469 123.316406 C 96.589844 123.09375 97.316406 122.851562 98.039062 122.585938 C 98.757812 122.320312 99.472656 122.035156 100.175781 121.730469 C 100.878906 121.425781 101.574219 121.101562 102.261719 120.753906 C 102.945312 120.410156 103.621094 120.046875 104.289062 119.660156 C 104.953125 119.277344 105.605469 118.875 106.246094 118.453125 C 106.890625 118.03125 107.519531 117.59375 108.136719 117.136719 C 108.753906 116.679688 109.355469 116.203125 109.945312 115.710938 C 110.535156 115.21875 111.109375 114.710938 111.671875 114.1875 C 112.230469 113.664062 112.777344 113.121094 113.304688 112.566406 C 113.835938 112.007812 114.347656 111.4375 114.84375 110.851562 C 115.339844 110.269531 115.820312 109.667969 116.285156 109.054688 C 116.746094 108.441406 117.191406 107.816406 117.617188 107.179688 C 118.042969 106.539062 118.449219 105.890625 118.839844 105.226562 C 119.230469 104.566406 119.597656 103.894531 119.949219 103.210938 C 120.300781 102.527344 120.632812 101.835938 120.941406 101.132812 C 121.253906 100.429688 121.542969 99.71875 121.816406 99 C 122.085938 98.28125 122.335938 97.558594 122.5625 96.824219 C 122.792969 96.089844 123 95.351562 123.1875 94.605469 C 123.371094 93.863281 123.535156 93.113281 123.679688 92.359375 C 123.824219 91.605469 123.945312 90.847656 124.046875 90.085938 C 124.144531 89.324219 124.222656 88.558594 124.28125 87.792969 C 124.335938 87.027344 124.371094 86.261719 124.382812 85.496094 C 124.394531 84.726562 124.382812 83.960938 124.351562 83.191406 C 124.320312 82.425781 124.265625 81.660156 124.191406 80.894531 C 124.117188 80.128906 124.019531 79.371094 123.898438 78.609375 C 123.78125 77.851562 123.640625 77.097656 123.476562 76.347656 C 123.3125 75.597656 123.128906 74.851562 122.925781 74.113281 C 122.71875 73.371094 122.492188 72.640625 122.246094 71.910156 C 122 71.183594 121.730469 70.464844 121.441406 69.753906 C 121.152344 69.042969 120.84375 68.339844 120.515625 67.644531 C 120.1875 66.953125 119.839844 66.269531 119.472656 65.59375 C 119.101562 64.921875 118.714844 64.257812 118.308594 63.605469 C 117.90625 62.953125 117.480469 62.316406 117.039062 61.6875 C 116.59375 61.058594 116.132812 60.445312 115.65625 59.84375 C 115.179688 59.242188 114.683594 58.65625 114.171875 58.082031 C 113.660156 57.511719 113.132812 56.953125 112.589844 56.410156 C 110.730469 54.550781 108.710938 52.890625 106.527344 51.429688 C 104.339844 49.96875 102.035156 48.734375 99.605469 47.726562 C 97.179688 46.71875 94.675781 45.957031 92.097656 45.441406 C 89.519531 44.925781 86.917969 44.667969 84.289062 44.664062 Z M 84.289062 44.664062 " fill-opacity="1" fill-rule="nonzero"/><g clip-path="url(#bca7f3a32d)"><path fill="#000000" d="M 157.308594 163.535156 C 156.558594 163.53125 155.835938 163.382812 155.144531 163.09375 C 154.453125 162.804688 153.84375 162.394531 153.316406 161.863281 L 112.703125 121.277344 C 112.441406 121.015625 112.207031 120.730469 112 120.421875 C 111.792969 120.113281 111.617188 119.785156 111.476562 119.441406 C 111.332031 119.097656 111.226562 118.742188 111.152344 118.378906 C 111.082031 118.015625 111.042969 117.644531 111.042969 117.273438 C 111.042969 116.902344 111.082031 116.535156 111.152344 116.167969 C 111.226562 115.804688 111.332031 115.449219 111.476562 115.105469 C 111.617188 114.761719 111.792969 114.4375 112 114.128906 C 112.207031 113.820312 112.441406 113.53125 112.703125 113.269531 C 112.964844 113.007812 113.253906 112.773438 113.5625 112.566406 C 113.871094 112.359375 114.199219 112.183594 114.539062 112.042969 C 114.882812 111.898438 115.238281 111.792969 115.601562 111.71875 C 115.96875 111.648438 116.335938 111.609375 116.707031 111.609375 C 117.082031 111.609375 117.449219 111.648438 117.8125 111.71875 C 118.179688 111.792969 118.53125 111.898438 118.875 112.042969 C 119.21875 112.183594 119.546875 112.359375 119.855469 112.566406 C 120.164062 112.773438 120.449219 113.007812 120.714844 113.269531 L 161.296875 153.882812 C 161.691406 154.277344 162.019531 154.722656 162.28125 155.214844 C 162.542969 155.707031 162.726562 156.226562 162.835938 156.777344 C 162.945312 157.324219 162.972656 157.875 162.917969 158.429688 C 162.863281 158.984375 162.726562 159.519531 162.515625 160.035156 C 162.300781 160.550781 162.019531 161.027344 161.664062 161.457031 C 161.3125 161.890625 160.902344 162.261719 160.441406 162.574219 C 159.976562 162.882812 159.476562 163.121094 158.945312 163.285156 C 158.410156 163.449219 157.867188 163.53125 157.308594 163.535156 Z M 157.308594 163.535156 " fill-opacity="1" fill-rule="nonzero"/></g></svg>