<svg xmlns="http://www.w3.org/2000/svg" xmlns:xlink="http://www.w3.org/1999/xlink" width="256" zoomAndPan="magnify" viewBox="0 0 192 191.999996" height="256" preserveAspectRatio="xMidYMid meet" version="1.0"><defs><clipPath id="c3222c1099"><path d="M 24 23.226562 L 170 23.226562 L 170 168.726562 L 24 168.726562 Z M 24 23.226562 " clip-rule="nonzero"/></clipPath></defs><g clip-path="url(#c3222c1099)"><path fill="#000000" d="M 130.078125 92.695312 C 129.480469 91.414062 128.917969 90.117188 128.363281 88.878906 C 133.6875 84.816406 135.175781 80.503906 133.039062 75.703125 C 130.90625 70.902344 126.644531 69.210938 119.65625 70.503906 C 117.988281 66.972656 116.292969 63.410156 114.613281 59.839844 C 111.316406 52.835938 108.078125 45.800781 104.707031 38.832031 C 104.523438 38.441406 104.304688 38.066406 104.054688 37.714844 C 103.804688 37.363281 103.527344 37.03125 103.21875 36.726562 C 102.914062 36.421875 102.582031 36.144531 102.226562 35.898438 C 101.871094 35.648438 101.5 35.433594 101.105469 35.25 C 100.714844 35.066406 100.308594 34.921875 99.894531 34.808594 C 99.476562 34.695312 99.050781 34.617188 98.621094 34.578125 C 98.1875 34.539062 97.757812 34.539062 97.328125 34.574219 C 96.894531 34.609375 96.46875 34.679688 96.050781 34.789062 C 95.632812 34.898438 95.226562 35.042969 94.832031 35.222656 C 94.4375 35.402344 94.0625 35.613281 93.707031 35.855469 C 93.347656 36.101562 93.015625 36.375 92.707031 36.675781 C 92.394531 36.980469 92.113281 37.304688 91.859375 37.65625 C 91.609375 38.007812 91.386719 38.378906 91.199219 38.765625 C 91.007812 39.15625 90.855469 39.558594 90.734375 39.972656 C 90.613281 40.390625 90.53125 40.8125 90.484375 41.246094 C 90.441406 41.675781 90.429688 42.105469 90.460938 42.539062 C 91.578125 49.753906 89.273438 56.089844 85.640625 62.042969 C 82.902344 66.488281 79.644531 70.515625 75.867188 74.117188 C 72.089844 77.722656 67.914062 80.789062 63.347656 83.3125 C 55.066406 88.007812 46.347656 91.960938 37.757812 96.113281 C 26.878906 101.351562 21.941406 112.605469 25.699219 123.550781 C 25.929688 124.199219 26.1875 124.835938 26.476562 125.457031 C 26.765625 126.082031 27.082031 126.6875 27.425781 127.28125 C 27.773438 127.875 28.144531 128.449219 28.546875 129.007812 C 28.945312 129.566406 29.371094 130.105469 29.820312 130.621094 C 30.273438 131.140625 30.746094 131.632812 31.246094 132.109375 C 31.742188 132.582031 32.261719 133.027344 32.800781 133.453125 C 33.339844 133.878906 33.898438 134.273438 34.476562 134.648438 C 35.050781 135.019531 35.644531 135.363281 36.253906 135.675781 C 36.863281 135.992188 37.488281 136.277344 38.125 136.535156 C 38.761719 136.792969 39.40625 137.019531 40.066406 137.214844 C 40.722656 137.410156 41.386719 137.574219 42.0625 137.707031 C 42.734375 137.839844 43.414062 137.941406 44.097656 138.011719 C 44.777344 138.078125 45.464844 138.117188 46.148438 138.121094 C 46.835938 138.125 47.519531 138.097656 48.203125 138.035156 C 48.886719 137.976562 49.566406 137.882812 50.242188 137.761719 C 50.917969 137.636719 51.585938 137.480469 52.246094 137.292969 C 53.644531 136.863281 54.332031 137.351562 55.042969 138.5 C 57.125 141.875 59.324219 145.179688 61.472656 148.511719 C 64.84375 153.742188 68.183594 158.988281 71.589844 164.1875 C 72.035156 164.933594 72.582031 165.59375 73.234375 166.167969 C 73.886719 166.742188 74.609375 167.199219 75.40625 167.546875 C 76.203125 167.890625 77.035156 168.105469 77.898438 168.1875 C 78.761719 168.269531 79.617188 168.21875 80.464844 168.03125 C 81.289062 167.945312 82.074219 167.734375 82.824219 167.390625 C 83.574219 167.046875 84.25 166.589844 84.851562 166.023438 C 85.449219 165.457031 85.945312 164.808594 86.332031 164.082031 C 86.71875 163.351562 86.976562 162.578125 87.109375 161.761719 C 87.40625 159.347656 87.074219 157.019531 86.109375 154.785156 C 83.332031 148.269531 80.164062 141.925781 77.160156 135.535156 C 85.003906 131.140625 85.757812 129.863281 84.121094 123.8125 C 84.394531 123.605469 84.691406 123.433594 85.007812 123.296875 C 89.527344 121.828125 94.148438 120.859375 98.875 120.386719 C 103.601562 119.917969 108.324219 119.960938 113.042969 120.511719 C 116.304688 120.820312 119.425781 121.652344 122.40625 123.007812 C 125.390625 124.359375 128.070312 126.164062 130.449219 128.417969 C 133.714844 131.714844 137.617188 132.285156 140.863281 129.984375 C 144.039062 127.722656 144.78125 123.980469 142.839844 119.832031 C 138.585938 110.78125 134.332031 101.738281 130.078125 92.695312 Z M 128.125 77.671875 C 129.269531 79.929688 128.652344 81.847656 125.921875 83.820312 L 122.085938 75.679688 C 125.148438 74.839844 127.035156 75.535156 128.125 77.671875 Z M 49.710938 132.339844 C 48.777344 132.578125 47.832031 132.726562 46.875 132.792969 C 45.914062 132.855469 44.957031 132.832031 44.003906 132.722656 C 43.046875 132.613281 42.109375 132.417969 41.191406 132.136719 C 40.269531 131.855469 39.382812 131.492188 38.53125 131.050781 C 37.675781 130.609375 36.871094 130.089844 36.113281 129.5 C 35.351562 128.910156 34.652344 128.257812 34.011719 127.539062 C 33.371094 126.824219 32.800781 126.054688 32.300781 125.230469 C 31.800781 124.410156 31.382812 123.550781 31.039062 122.652344 C 30.65625 121.769531 30.355469 120.863281 30.132812 119.929688 C 29.910156 118.996094 29.773438 118.046875 29.722656 117.089844 C 29.667969 116.128906 29.703125 115.175781 29.820312 114.222656 C 29.9375 113.269531 30.136719 112.332031 30.421875 111.414062 C 30.703125 110.5 31.066406 109.613281 31.507812 108.761719 C 31.949219 107.90625 32.460938 107.101562 33.046875 106.339844 C 33.628906 105.578125 34.277344 104.875 34.988281 104.226562 C 35.699219 103.582031 36.457031 103.003906 37.273438 102.492188 C 41.949219 99.699219 47.054688 97.617188 52.242188 95.078125 C 57.023438 105.242188 61.679688 115.125 66.511719 125.382812 C 61.042969 128.023438 55.445312 130.34375 49.710938 132.339844 Z M 81.433594 157.09375 C 82.65625 159.699219 82.347656 161.640625 80.441406 162.484375 C 78.234375 163.464844 76.726562 162.464844 75.5 160.546875 C 70.042969 151.988281 64.515625 143.46875 58.863281 134.703125 L 68.566406 130.109375 C 68.953125 130.789062 69.335938 131.367188 69.625 131.992188 C 73.570312 140.355469 77.503906 148.71875 81.433594 157.09375 Z M 74.808594 130.328125 C 74.429688 129.574219 74.03125 128.824219 73.488281 127.746094 L 78.535156 125.503906 C 80.039062 128.398438 79.683594 128.824219 74.808594 130.328125 Z M 138.558594 124.726562 C 138.386719 125.140625 138.101562 125.449219 137.703125 125.652344 C 136.597656 125.394531 135.132812 125.496094 134.4375 124.8125 C 131.808594 122.308594 128.855469 120.265625 125.585938 118.6875 C 122.3125 117.109375 118.878906 116.070312 115.28125 115.574219 C 102.863281 113.503906 90.898438 115.59375 79.179688 119.683594 C 76.566406 120.59375 74.015625 121.6875 71.15625 122.808594 C 66.410156 112.710938 61.789062 102.890625 57.421875 93.609375 C 64.140625 88.925781 70.929688 84.789062 77.027344 79.808594 C 85.828125 72.617188 92.695312 63.835938 95.226562 52.402344 C 95.757812 49.570312 95.976562 46.710938 95.882812 43.832031 C 95.882812 42.257812 95.347656 40.582031 97.269531 39.964844 C 99.449219 39.265625 99.953125 41.15625 100.632812 42.601562 C 107.683594 57.59375 114.734375 72.582031 121.78125 87.5625 C 127.027344 98.71875 132.277344 109.875 137.53125 121.027344 C 137.71875 121.441406 137.859375 121.703125 138.074219 122.25 C 138.785156 124.046875 138.625 124.5625 138.558594 124.730469 Z M 119.742188 35.742188 C 119.503906 35.226562 119.410156 34.6875 119.460938 34.125 C 119.511719 33.558594 119.699219 33.042969 120.027344 32.582031 C 121.789062 29.945312 123.574219 27.308594 125.386719 24.734375 C 125.703125 24.257812 126.113281 23.890625 126.617188 23.621094 C 127.117188 23.355469 127.65625 23.222656 128.222656 23.226562 C 128.816406 23.25 129.367188 23.414062 129.875 23.71875 C 130.386719 24.023438 130.789062 24.429688 131.089844 24.941406 L 131.300781 25.257812 L 131.210938 25.636719 C 131.183594 25.835938 131.152344 26.039062 131.132812 26.257812 C 131.097656 26.902344 130.921875 27.511719 130.605469 28.074219 C 128.820312 30.832031 126.917969 33.574219 125.117188 36.128906 C 124.792969 36.613281 124.371094 36.980469 123.851562 37.238281 C 123.347656 37.476562 122.816406 37.570312 122.261719 37.519531 C 121.707031 37.46875 121.203125 37.277344 120.753906 36.949219 C 120.3125 36.636719 119.972656 36.234375 119.734375 35.746094 Z M 168.753906 115.796875 L 168.527344 116.101562 L 168.148438 116.144531 C 167.949219 116.183594 167.75 116.226562 167.539062 116.277344 C 166.921875 116.457031 166.292969 116.492188 165.65625 116.386719 C 162.457031 115.617188 159.242188 114.746094 156.234375 113.898438 C 155.671875 113.753906 155.183594 113.480469 154.769531 113.074219 C 154.378906 112.679688 154.113281 112.210938 153.976562 111.671875 C 153.839844 111.132812 153.851562 110.597656 154.007812 110.0625 C 154.121094 109.664062 154.304688 109.300781 154.558594 108.976562 C 154.816406 108.652344 155.125 108.390625 155.484375 108.1875 C 155.84375 107.984375 156.230469 107.859375 156.640625 107.808594 C 157.050781 107.761719 157.457031 107.792969 157.855469 107.90625 C 160.929688 108.6875 164.003906 109.492188 167.039062 110.34375 C 167.59375 110.484375 168.078125 110.746094 168.5 111.132812 C 168.917969 111.519531 169.222656 111.984375 169.410156 112.523438 C 169.585938 113.089844 169.617188 113.664062 169.5 114.246094 C 169.382812 114.824219 169.132812 115.34375 168.753906 115.796875 Z M 157.21875 65.078125 C 154.453125 66.851562 151.589844 68.570312 148.898438 70.160156 C 148.402344 70.46875 147.867188 70.628906 147.289062 70.648438 C 146.730469 70.65625 146.207031 70.523438 145.722656 70.25 C 145.238281 69.972656 144.859375 69.589844 144.582031 69.105469 C 144.371094 68.746094 144.238281 68.363281 144.183594 67.953125 C 144.125 67.539062 144.152344 67.132812 144.257812 66.730469 C 144.363281 66.332031 144.542969 65.964844 144.792969 65.632812 C 145.046875 65.304688 145.351562 65.035156 145.710938 64.828125 C 148.40625 63.152344 151.117188 61.492188 153.828125 59.886719 C 154.3125 59.585938 154.839844 59.417969 155.410156 59.382812 C 155.980469 59.34375 156.523438 59.449219 157.042969 59.6875 C 157.574219 59.953125 158.007812 60.328125 158.347656 60.816406 C 158.683594 61.304688 158.886719 61.84375 158.949219 62.433594 L 159.011719 62.808594 L 158.773438 63.117188 C 158.664062 63.289062 158.554688 63.460938 158.445312 63.648438 C 158.144531 64.21875 157.734375 64.695312 157.21875 65.078125 Z M 157.21875 65.078125 " fill-opacity="1" fill-rule="nonzero"/></g></svg>