<svg xmlns="http://www.w3.org/2000/svg" xmlns:xlink="http://www.w3.org/1999/xlink" width="256" zoomAndPan="magnify" viewBox="0 0 192 191.999996" height="256" preserveAspectRatio="xMidYMid meet" version="1.0"><defs><clipPath id="4bc7dcb32d"><path d="M 15.601562 48.175781 L 176.101562 48.175781 L 176.101562 144 L 15.601562 144 Z M 15.601562 48.175781 " clip-rule="nonzero"/></clipPath></defs><g clip-path="url(#4bc7dcb32d)"><path fill="#ffffff" d="M 164.707031 48.183594 L 27.289062 48.183594 C 20.828125 48.183594 15.601562 53.414062 15.601562 59.875 L 15.601562 132.125 C 15.601562 138.585938 20.828125 143.8125 27.289062 143.8125 L 164.707031 143.8125 C 171.167969 143.8125 176.394531 138.585938 176.394531 132.125 L 176.394531 59.875 C 176.394531 53.414062 171.167969 48.183594 164.707031 48.183594 Z M 49.304688 58.769531 C 49.644531 58.769531 49.972656 58.777344 50.304688 58.800781 C 50.421875 58.8125 50.535156 58.820312 50.644531 58.820312 C 50.644531 58.820312 50.652344 58.820312 50.652344 58.820312 C 50.769531 58.832031 50.878906 58.84375 50.984375 58.851562 C 50.992188 58.851562 50.992188 58.851562 51.003906 58.851562 C 51.109375 58.863281 51.21875 58.875 51.332031 58.894531 C 51.34375 58.894531 51.355469 58.894531 51.355469 58.894531 C 51.460938 58.90625 51.566406 58.925781 51.675781 58.949219 C 51.683594 58.949219 51.695312 58.949219 51.695312 58.949219 C 51.800781 58.96875 51.90625 58.980469 52.015625 59 C 52.023438 59 52.035156 59 52.035156 59.011719 C 52.140625 59.035156 52.246094 59.054688 52.355469 59.078125 C 52.363281 59.078125 52.363281 59.078125 52.375 59.078125 C 52.480469 59.097656 52.585938 59.117188 52.695312 59.152344 C 52.703125 59.152344 52.703125 59.152344 52.714844 59.152344 C 52.820312 59.171875 52.929688 59.203125 53.035156 59.226562 C 53.035156 59.226562 53.042969 59.226562 53.042969 59.226562 C 53.152344 59.257812 53.257812 59.277344 53.363281 59.308594 C 54.777344 59.714844 56.105469 60.320312 57.316406 61.105469 C 57.316406 61.105469 57.328125 61.105469 57.328125 61.117188 C 57.410156 61.167969 57.496094 61.222656 57.582031 61.285156 C 57.59375 61.296875 57.601562 61.296875 57.613281 61.308594 C 57.6875 61.359375 57.773438 61.414062 57.847656 61.46875 C 57.859375 61.476562 57.878906 61.488281 57.890625 61.5 C 57.964844 61.550781 58.039062 61.605469 58.113281 61.660156 C 58.132812 61.667969 58.144531 61.679688 58.167969 61.699219 C 58.242188 61.753906 58.304688 61.808594 58.367188 61.859375 C 58.390625 61.871094 58.410156 61.890625 58.433594 61.902344 C 58.496094 61.957031 58.558594 62.007812 58.632812 62.0625 C 58.65625 62.082031 58.675781 62.09375 58.699219 62.113281 C 58.761719 62.167969 58.824219 62.222656 58.886719 62.273438 C 58.910156 62.296875 58.929688 62.316406 58.953125 62.328125 C 59.015625 62.378906 59.070312 62.433594 59.132812 62.488281 C 59.152344 62.507812 59.175781 62.53125 59.195312 62.550781 L 59.367188 62.710938 C 59.386719 62.730469 59.410156 62.753906 59.429688 62.773438 C 59.484375 62.828125 59.546875 62.878906 59.601562 62.945312 C 59.621094 62.964844 59.644531 62.988281 59.664062 63.019531 C 59.71875 63.070312 59.769531 63.125 59.835938 63.1875 C 59.855469 63.210938 59.875 63.242188 59.910156 63.261719 C 59.960938 63.316406 60.015625 63.378906 60.066406 63.433594 C 60.089844 63.453125 60.109375 63.484375 60.132812 63.507812 C 60.183594 63.558594 60.238281 63.625 60.292969 63.675781 C 60.3125 63.699219 60.332031 63.730469 60.355469 63.75 C 60.40625 63.816406 60.460938 63.867188 60.503906 63.933594 C 60.523438 63.953125 60.546875 63.984375 60.566406 64.007812 C 60.621094 64.070312 60.664062 64.125 60.714844 64.1875 C 60.738281 64.207031 60.757812 64.230469 60.769531 64.261719 C 60.824219 64.324219 60.863281 64.390625 60.917969 64.453125 C 60.929688 64.472656 60.949219 64.496094 60.960938 64.515625 C 61.011719 64.582031 61.066406 64.65625 61.109375 64.71875 C 61.121094 64.730469 61.128906 64.75 61.140625 64.761719 C 61.375 65.078125 61.585938 65.417969 61.800781 65.757812 C 61.808594 65.78125 61.820312 65.800781 61.84375 65.824219 C 61.875 65.886719 61.917969 65.949219 61.949219 66.015625 C 61.96875 66.046875 61.992188 66.089844 62.011719 66.121094 C 62.042969 66.175781 62.074219 66.238281 62.109375 66.289062 C 62.128906 66.332031 62.152344 66.375 62.171875 66.417969 C 62.203125 66.472656 62.226562 66.523438 62.257812 66.589844 C 62.277344 66.632812 62.300781 66.671875 62.320312 66.714844 C 62.351562 66.769531 62.375 66.820312 62.40625 66.875 C 62.425781 66.917969 62.449219 66.972656 62.46875 67.011719 C 62.492188 67.066406 62.523438 67.121094 62.542969 67.171875 C 62.566406 67.226562 62.585938 67.269531 62.609375 67.320312 C 62.628906 67.375 62.648438 67.429688 62.683594 67.480469 C 62.703125 67.535156 62.722656 67.578125 62.746094 67.628906 L 62.808594 67.789062 C 62.832031 67.84375 62.851562 67.894531 62.875 67.949219 C 62.894531 68 62.914062 68.054688 62.9375 68.109375 C 62.957031 68.160156 62.980469 68.214844 62.988281 68.265625 C 63.011719 68.320312 63.03125 68.375 63.042969 68.425781 C 63.0625 68.480469 63.085938 68.53125 63.097656 68.585938 C 63.117188 68.640625 63.128906 68.691406 63.148438 68.746094 C 63.171875 68.796875 63.179688 68.851562 63.203125 68.914062 C 63.222656 68.96875 63.234375 69.023438 63.246094 69.074219 C 63.265625 69.128906 63.277344 69.191406 63.296875 69.246094 C 63.308594 69.296875 63.328125 69.351562 63.339844 69.402344 C 63.351562 69.457031 63.371094 69.519531 63.382812 69.574219 C 63.394531 69.628906 63.40625 69.679688 63.425781 69.734375 C 63.4375 69.785156 63.445312 69.851562 63.46875 69.914062 C 63.480469 69.96875 63.488281 70.019531 63.5 70.074219 C 63.511719 70.136719 63.519531 70.191406 63.53125 70.253906 C 63.542969 70.308594 63.554688 70.359375 63.5625 70.414062 C 63.574219 70.476562 63.585938 70.542969 63.59375 70.59375 C 63.605469 70.648438 63.617188 70.699219 63.617188 70.753906 C 63.628906 70.816406 63.636719 70.882812 63.636719 70.945312 C 63.648438 70.996094 63.648438 71.050781 63.660156 71.105469 C 63.671875 71.167969 63.671875 71.230469 63.679688 71.296875 C 63.691406 71.347656 63.691406 71.402344 63.703125 71.453125 C 63.710938 71.519531 63.710938 71.582031 63.722656 71.65625 C 63.722656 71.710938 63.734375 71.753906 63.734375 71.804688 C 63.746094 71.878906 63.746094 71.945312 63.746094 72.019531 C 63.746094 72.058594 63.753906 72.113281 63.753906 72.15625 C 63.753906 72.230469 63.765625 72.316406 63.765625 72.390625 C 63.765625 72.433594 63.765625 72.464844 63.765625 72.507812 C 63.765625 72.625 63.765625 72.742188 63.765625 72.867188 C 63.765625 72.984375 63.765625 73.101562 63.765625 73.230469 C 63.765625 73.273438 63.765625 73.304688 63.765625 73.347656 C 63.765625 73.421875 63.753906 73.503906 63.753906 73.578125 C 63.753906 73.621094 63.746094 73.675781 63.746094 73.71875 C 63.746094 73.792969 63.734375 73.855469 63.734375 73.929688 C 63.734375 73.984375 63.722656 74.027344 63.722656 74.078125 C 63.710938 74.144531 63.710938 74.207031 63.703125 74.28125 C 63.703125 74.335938 63.691406 74.386719 63.679688 74.441406 C 63.671875 74.503906 63.671875 74.566406 63.660156 74.632812 C 63.648438 74.683594 63.648438 74.738281 63.636719 74.792969 C 63.628906 74.855469 63.617188 74.917969 63.617188 74.980469 C 63.605469 75.035156 63.59375 75.089844 63.59375 75.140625 C 63.585938 75.207031 63.574219 75.269531 63.5625 75.324219 C 63.554688 75.375 63.542969 75.429688 63.53125 75.480469 C 63.519531 75.546875 63.511719 75.597656 63.5 75.664062 C 63.488281 75.714844 63.480469 75.769531 63.46875 75.820312 C 63.457031 75.886719 63.445312 75.9375 63.425781 76.003906 C 63.414062 76.054688 63.40625 76.109375 63.382812 76.160156 C 63.371094 76.214844 63.351562 76.277344 63.339844 76.332031 C 63.328125 76.386719 63.308594 76.4375 63.296875 76.492188 C 63.289062 76.542969 63.265625 76.609375 63.253906 76.660156 C 63.246094 76.714844 63.222656 76.765625 63.214844 76.820312 C 63.203125 76.875 63.179688 76.925781 63.160156 76.992188 C 63.148438 77.042969 63.128906 77.097656 63.105469 77.148438 C 63.085938 77.203125 63.074219 77.257812 63.054688 77.308594 C 63.03125 77.363281 63.023438 77.414062 63 77.46875 C 62.980469 77.523438 62.957031 77.574219 62.949219 77.628906 C 62.925781 77.679688 62.90625 77.734375 62.882812 77.789062 C 62.863281 77.839844 62.839844 77.894531 62.820312 77.945312 L 62.757812 78.105469 C 62.734375 78.160156 62.714844 78.203125 62.691406 78.253906 C 62.671875 78.308594 62.648438 78.359375 62.617188 78.414062 C 62.597656 78.46875 62.574219 78.511719 62.554688 78.5625 C 62.53125 78.617188 62.5 78.667969 62.480469 78.722656 C 62.457031 78.765625 62.4375 78.816406 62.417969 78.859375 C 62.394531 78.914062 62.363281 78.96875 62.332031 79.019531 C 62.308594 79.0625 62.289062 79.105469 62.265625 79.15625 C 62.234375 79.210938 62.214844 79.273438 62.183594 79.328125 C 62.160156 79.371094 62.140625 79.414062 62.117188 79.457031 C 62.085938 79.507812 62.054688 79.574219 62.023438 79.625 C 62 79.65625 61.980469 79.699219 61.960938 79.730469 C 61.925781 79.796875 61.886719 79.859375 61.851562 79.921875 C 61.84375 79.945312 61.832031 79.964844 61.808594 79.988281 C 61.609375 80.328125 61.386719 80.65625 61.152344 80.984375 C 61.140625 80.996094 61.128906 81.019531 61.121094 81.027344 C 61.066406 81.09375 61.023438 81.167969 60.972656 81.230469 C 60.960938 81.25 60.9375 81.273438 60.929688 81.292969 C 60.875 81.359375 60.832031 81.421875 60.78125 81.484375 C 60.757812 81.507812 60.738281 81.539062 60.726562 81.558594 C 60.671875 81.625 60.632812 81.675781 60.578125 81.738281 C 60.558594 81.761719 60.535156 81.792969 60.515625 81.816406 C 60.460938 81.878906 60.417969 81.929688 60.367188 81.996094 C 60.34375 82.015625 60.324219 82.046875 60.300781 82.070312 C 60.25 82.121094 60.195312 82.1875 60.140625 82.238281 C 60.121094 82.261719 60.101562 82.292969 60.078125 82.3125 C 60.027344 82.367188 59.972656 82.429688 59.917969 82.484375 C 59.898438 82.503906 59.875 82.527344 59.855469 82.558594 C 59.800781 82.613281 59.75 82.675781 59.683594 82.726562 C 59.664062 82.75 59.644531 82.769531 59.621094 82.792969 C 59.570312 82.84375 59.503906 82.898438 59.453125 82.960938 C 59.429688 82.984375 59.410156 83.003906 59.386719 83.027344 C 59.324219 83.078125 59.269531 83.132812 59.21875 83.183594 C 59.195312 83.207031 59.175781 83.226562 59.152344 83.25 C 59.089844 83.300781 59.039062 83.355469 58.972656 83.410156 C 58.953125 83.429688 58.929688 83.449219 58.910156 83.460938 C 58.847656 83.515625 58.78125 83.566406 58.71875 83.621094 C 58.699219 83.640625 58.675781 83.652344 58.65625 83.675781 C 58.589844 83.726562 58.527344 83.78125 58.453125 83.832031 L 58.398438 83.875 C 58.324219 83.929688 58.261719 83.980469 58.1875 84.035156 C 58.167969 84.046875 58.15625 84.054688 58.132812 84.078125 C 58.058594 84.128906 57.984375 84.183594 57.910156 84.238281 C 57.902344 84.246094 57.878906 84.257812 57.867188 84.269531 C 57.792969 84.320312 57.710938 84.375 57.636719 84.429688 C 57.625 84.4375 57.613281 84.4375 57.601562 84.449219 C 57.519531 84.503906 57.433594 84.566406 57.347656 84.621094 C 57.347656 84.621094 57.335938 84.621094 57.335938 84.628906 C 56.039062 85.46875 54.605469 86.105469 53.066406 86.511719 C 53.066406 86.511719 53.054688 86.511719 53.054688 86.511719 C 52.949219 86.542969 52.84375 86.5625 52.738281 86.585938 C 52.726562 86.585938 52.726562 86.585938 52.726562 86.585938 C 52.621094 86.605469 52.511719 86.636719 52.40625 86.660156 C 52.394531 86.660156 52.394531 86.660156 52.386719 86.660156 C 52.28125 86.679688 52.171875 86.703125 52.066406 86.722656 C 52.054688 86.722656 52.054688 86.722656 52.046875 86.722656 C 51.941406 86.746094 51.832031 86.765625 51.726562 86.777344 C 51.714844 86.777344 51.714844 86.777344 51.707031 86.777344 C 51.597656 86.796875 51.492188 86.808594 51.375 86.828125 C 51.367188 86.828125 51.367188 86.828125 51.355469 86.828125 C 51.25 86.839844 51.132812 86.863281 51.027344 86.871094 C 51.027344 86.871094 51.015625 86.871094 51.015625 86.871094 C 50.898438 86.882812 50.792969 86.894531 50.675781 86.902344 C 50.675781 86.902344 50.675781 86.902344 50.664062 86.902344 C 50.21875 86.945312 49.773438 86.96875 49.316406 86.96875 C 41.3125 86.96875 34.820312 80.65625 34.820312 72.855469 C 34.820312 65.089844 41.304688 58.769531 49.304688 58.769531 Z M 23.324219 121.722656 L 23.324219 113.308594 C 23.316406 112.414062 23.316406 111.511719 23.316406 110.621094 C 23.316406 100.121094 31.625 91.601562 41.867188 91.601562 L 55.128906 91.601562 C 55.285156 91.601562 55.445312 91.601562 55.605469 91.601562 C 63.5625 91.8125 70.269531 97.148438 72.703125 104.511719 C 73.328125 106.421875 73.679688 108.472656 73.679688 110.609375 C 73.679688 111.5 73.679688 112.40625 73.667969 113.296875 L 73.691406 113.296875 L 73.691406 121.710938 L 23.324219 121.710938 Z M 156.832031 134.25 L 51.8125 134.25 L 51.8125 130.710938 L 156.832031 130.710938 Z M 156.917969 101.3125 L 85.378906 101.3125 L 85.378906 97.773438 L 156.917969 97.773438 Z M 156.917969 92.8125 L 85.378906 92.8125 L 85.378906 89.273438 L 156.917969 89.273438 Z M 156.917969 84.3125 L 85.378906 84.3125 L 85.378906 80.773438 L 156.917969 80.773438 Z M 156.917969 75.460938 L 85.378906 75.460938 L 85.378906 71.921875 L 156.917969 71.921875 Z M 156.917969 75.460938 " fill-opacity="1" fill-rule="nonzero"/></g></svg>