<svg xmlns="http://www.w3.org/2000/svg" xmlns:xlink="http://www.w3.org/1999/xlink" width="256" zoomAndPan="magnify" viewBox="0 0 192 191.999996" height="256" preserveAspectRatio="xMidYMid meet" version="1.0"><defs><clipPath id="9e775bcbd1"><path d="M 20.066406 19.652344 L 171.566406 19.652344 L 171.566406 172.652344 L 20.066406 172.652344 Z M 20.066406 19.652344 " clip-rule="nonzero"/></clipPath></defs><g clip-path="url(#9e775bcbd1)"><path fill="#000000" d="M 149.480469 41.945312 C 135.238281 27.628906 116.304688 19.726562 96.125 19.726562 C 54.550781 19.726562 20.714844 53.707031 20.699219 95.476562 C 20.699219 108.828125 24.167969 121.867188 30.769531 133.351562 L 20.066406 172.605469 L 60.054688 162.066406 C 71.070312 168.105469 83.476562 171.28125 96.097656 171.289062 L 96.125 171.289062 C 137.691406 171.289062 171.539062 137.304688 171.546875 95.539062 C 171.546875 75.296875 163.71875 56.269531 149.472656 41.945312 Z M 96.125 158.5 L 96.105469 158.5 C 84.859375 158.5 73.820312 155.460938 64.191406 149.722656 L 61.90625 148.355469 L 38.175781 154.605469 L 44.503906 131.371094 L 43.015625 128.988281 C 36.738281 118.964844 33.425781 107.375 33.433594 95.476562 C 33.449219 60.765625 61.574219 32.519531 96.148438 32.519531 C 112.894531 32.519531 128.632812 39.078125 140.46875 50.984375 C 152.308594 62.882812 158.820312 78.703125 158.8125 95.53125 C 158.796875 130.25 130.671875 158.5 96.117188 158.5 Z M 130.511719 111.34375 C 128.632812 110.398438 119.367188 105.820312 117.636719 105.191406 C 115.90625 104.558594 114.65625 104.246094 113.398438 106.136719 C 112.140625 108.035156 108.527344 112.296875 107.429688 113.558594 C 106.332031 114.824219 105.234375 114.980469 103.34375 114.027344 C 101.460938 113.082031 95.386719 111.082031 88.1875 104.632812 C 82.585938 99.613281 78.800781 93.414062 77.703125 91.515625 C 76.605469 89.621094 77.589844 88.597656 78.53125 87.65625 C 79.375 86.808594 80.410156 85.441406 81.359375 84.335938 C 82.300781 83.234375 82.617188 82.4375 83.242188 81.175781 C 83.875 79.914062 83.558594 78.808594 83.082031 77.859375 C 82.609375 76.914062 78.847656 67.59375 77.273438 63.804688 C 75.746094 60.117188 74.1875 60.617188 73.035156 60.554688 C 71.9375 60.503906 70.679688 60.488281 69.421875 60.488281 C 68.167969 60.488281 66.128906 60.957031 64.394531 62.851562 C 62.664062 64.75 57.804688 69.332031 57.804688 78.644531 C 57.804688 87.957031 64.554688 96.960938 65.503906 98.230469 C 66.441406 99.492188 78.792969 118.609375 97.699219 126.8125 C 102.191406 128.761719 105.707031 129.925781 108.445312 130.800781 C 112.960938 132.246094 117.070312 132.042969 120.316406 131.550781 C 123.933594 131.007812 131.460938 126.96875 133.035156 122.546875 C 134.605469 118.125 134.605469 114.339844 134.132812 113.542969 C 133.660156 112.75 132.402344 112.28125 130.519531 111.328125 Z M 130.511719 111.34375 " fill-opacity="1" fill-rule="evenodd"/></g></svg>