<svg xmlns="http://www.w3.org/2000/svg" xmlns:xlink="http://www.w3.org/1999/xlink" width="256" zoomAndPan="magnify" viewBox="0 0 192 191.999996" height="256" preserveAspectRatio="xMidYMid meet" version="1.0"><defs><clipPath id="7fc2d43c0b"><path d="M 21.996094 47.433594 L 169.746094 47.433594 L 169.746094 144.933594 L 21.996094 144.933594 Z M 21.996094 47.433594 " clip-rule="nonzero"/></clipPath></defs><path fill="#100f0d" d="M 53.671875 98.402344 L 53.671875 123.28125 C 53.679688 130.625 71.105469 138.8125 96.105469 138.8125 C 121.109375 138.8125 138.535156 130.625 138.542969 123.277344 L 138.542969 94.46875 L 91.535156 115.503906 L 53.671875 98.402344 " fill-opacity="1" fill-rule="nonzero"/><g clip-path="url(#7fc2d43c0b)"><path fill="#100f0d" d="M 106.734375 81.457031 C 105.695312 81.457031 104.855469 80.613281 104.855469 79.566406 C 104.855469 78.523438 105.695312 77.675781 106.734375 77.675781 L 154.476562 77.675781 C 154.25 78.035156 154.117188 78.453125 154.117188 78.910156 L 154.117188 81.457031 Z M 169.726562 137.308594 C 167.699219 120.328125 161.105469 112.371094 158.703125 109.984375 L 158.703125 78.910156 C 158.703125 78.453125 158.566406 78.035156 158.339844 77.675781 C 157.929688 77.03125 157.222656 76.605469 156.40625 76.605469 C 156.285156 76.605469 156.167969 76.621094 156.050781 76.640625 L 91.472656 47.472656 L 21.996094 78.570312 L 91.546875 109.980469 L 154.117188 81.980469 L 154.117188 109.984375 C 151.710938 112.371094 145.117188 120.328125 143.089844 137.308594 C 143.082031 137.375 143.078125 137.441406 143.074219 137.507812 C 143.0625 137.855469 143.09375 139.683594 144.808594 141.464844 C 146.996094 143.742188 150.898438 144.894531 156.40625 144.894531 C 161.917969 144.894531 165.820312 143.742188 168.007812 141.46875 C 169.722656 139.683594 169.75 137.855469 169.742188 137.507812 C 169.738281 137.441406 169.734375 137.375 169.726562 137.308594 " fill-opacity="1" fill-rule="nonzero"/></g></svg>