<svg xmlns="http://www.w3.org/2000/svg" xmlns:xlink="http://www.w3.org/1999/xlink" width="256" zoomAndPan="magnify" viewBox="0 0 192 191.999996" height="256" preserveAspectRatio="xMidYMid meet" version="1.0"><defs><clipPath id="a2013f763b"><path d="M 26 21.148438 L 166 21.148438 L 166 171 L 26 171 Z M 26 21.148438 " clip-rule="nonzero"/></clipPath></defs><g clip-path="url(#a2013f763b)"><path fill="#ffffff" d="M 160.820312 112.171875 L 150.304688 104.757812 C 151.246094 98.925781 151.246094 93.097656 150.304688 87.269531 L 160.820312 79.851562 C 161.410156 79.441406 161.953125 78.976562 162.457031 78.464844 C 162.957031 77.953125 163.410156 77.398438 163.808594 76.800781 C 164.207031 76.203125 164.546875 75.574219 164.828125 74.914062 C 165.109375 74.253906 165.328125 73.570312 165.480469 72.871094 C 165.636719 72.167969 165.722656 71.460938 165.746094 70.742188 C 165.765625 70.023438 165.722656 69.3125 165.613281 68.601562 C 165.5 67.890625 165.324219 67.199219 165.082031 66.523438 C 164.84375 65.847656 164.542969 65.199219 164.179688 64.578125 L 157.3125 52.683594 C 156.957031 52.058594 156.546875 51.476562 156.078125 50.929688 C 155.613281 50.382812 155.101562 49.882812 154.542969 49.433594 C 153.984375 48.980469 153.386719 48.585938 152.757812 48.246094 C 152.125 47.90625 151.464844 47.628906 150.78125 47.410156 C 150.097656 47.191406 149.398438 47.042969 148.683594 46.953125 C 147.972656 46.867188 147.257812 46.847656 146.539062 46.894531 C 145.824219 46.941406 145.117188 47.054688 144.421875 47.230469 C 143.726562 47.410156 143.054688 47.652344 142.402344 47.957031 L 130.671875 53.378906 C 126.113281 49.644531 121.085938 46.730469 115.582031 44.628906 L 114.414062 31.796875 C 114.351562 31.082031 114.226562 30.378906 114.03125 29.6875 C 113.839844 28.992188 113.582031 28.328125 113.265625 27.683594 C 112.949219 27.039062 112.574219 26.429688 112.140625 25.855469 C 111.710938 25.28125 111.230469 24.753906 110.699219 24.269531 C 110.167969 23.785156 109.597656 23.351562 108.988281 22.976562 C 108.375 22.597656 107.734375 22.277344 107.066406 22.019531 C 106.394531 21.761719 105.707031 21.570312 105 21.4375 C 104.292969 21.308594 103.582031 21.246094 102.863281 21.25 L 89.132812 21.25 C 88.414062 21.246094 87.703125 21.308594 86.996094 21.4375 C 86.289062 21.570312 85.601562 21.761719 84.933594 22.019531 C 84.261719 22.277344 83.621094 22.597656 83.011719 22.976562 C 82.398438 23.351562 81.828125 23.785156 81.300781 24.269531 C 80.769531 24.753906 80.289062 25.28125 79.855469 25.855469 C 79.425781 26.429688 79.050781 27.039062 78.730469 27.683594 C 78.414062 28.328125 78.160156 28.992188 77.964844 29.6875 C 77.773438 30.378906 77.644531 31.082031 77.582031 31.796875 L 76.417969 44.628906 C 70.914062 46.730469 65.882812 49.644531 61.328125 53.378906 L 49.59375 47.957031 C 48.945312 47.652344 48.269531 47.414062 47.574219 47.234375 C 46.878906 47.054688 46.171875 46.941406 45.457031 46.894531 C 44.742188 46.847656 44.027344 46.867188 43.3125 46.957031 C 42.601562 47.042969 41.902344 47.195312 41.214844 47.410156 C 40.53125 47.628906 39.875 47.90625 39.242188 48.246094 C 38.609375 48.585938 38.011719 48.980469 37.453125 49.433594 C 36.894531 49.882812 36.382812 50.382812 35.917969 50.929688 C 35.453125 51.476562 35.039062 52.0625 34.683594 52.683594 L 27.820312 64.578125 C 27.457031 65.199219 27.15625 65.847656 26.914062 66.523438 C 26.675781 67.199219 26.5 67.890625 26.386719 68.601562 C 26.273438 69.308594 26.230469 70.023438 26.253906 70.742188 C 26.273438 71.460938 26.363281 72.167969 26.515625 72.871094 C 26.671875 73.570312 26.886719 74.253906 27.167969 74.914062 C 27.449219 75.574219 27.789062 76.203125 28.1875 76.800781 C 28.589844 77.398438 29.039062 77.953125 29.542969 78.464844 C 30.042969 78.976562 30.589844 79.441406 31.175781 79.851562 L 41.691406 87.269531 C 40.753906 93.097656 40.753906 98.925781 41.691406 104.757812 L 31.175781 112.171875 C 30.589844 112.582031 30.042969 113.046875 29.542969 113.558594 C 29.039062 114.070312 28.589844 114.628906 28.191406 115.222656 C 27.789062 115.820312 27.449219 116.449219 27.167969 117.109375 C 26.886719 117.773438 26.671875 118.453125 26.515625 119.152344 C 26.363281 119.855469 26.273438 120.566406 26.25 121.28125 C 26.230469 122 26.273438 122.714844 26.386719 123.421875 C 26.496094 124.132812 26.671875 124.824219 26.914062 125.503906 C 27.15625 126.179688 27.457031 126.828125 27.816406 127.445312 L 34.683594 139.339844 C 35.042969 139.964844 35.453125 140.546875 35.917969 141.09375 C 36.382812 141.640625 36.898438 142.140625 37.457031 142.589844 C 38.015625 143.042969 38.609375 143.4375 39.242188 143.777344 C 39.875 144.117188 40.53125 144.394531 41.21875 144.613281 C 41.902344 144.828125 42.601562 144.980469 43.3125 145.066406 C 44.027344 145.15625 44.742188 145.175781 45.457031 145.128906 C 46.171875 145.082031 46.878906 144.96875 47.574219 144.792969 C 48.269531 144.613281 48.945312 144.371094 49.59375 144.070312 L 61.328125 138.644531 C 65.882812 142.378906 70.914062 145.296875 76.417969 147.398438 L 77.582031 160.226562 C 77.644531 160.945312 77.773438 161.648438 77.964844 162.339844 C 78.160156 163.03125 78.414062 163.699219 78.730469 164.34375 C 79.050781 164.988281 79.425781 165.59375 79.855469 166.167969 C 80.289062 166.742188 80.769531 167.273438 81.296875 167.757812 C 81.828125 168.242188 82.398438 168.671875 83.011719 169.050781 C 83.621094 169.429688 84.261719 169.746094 84.933594 170.003906 C 85.601562 170.261719 86.289062 170.457031 86.996094 170.585938 C 87.703125 170.714844 88.414062 170.78125 89.132812 170.777344 L 102.863281 170.777344 C 103.582031 170.78125 104.292969 170.714844 105 170.585938 C 105.707031 170.457031 106.394531 170.261719 107.066406 170.003906 C 107.734375 169.746094 108.375 169.429688 108.988281 169.050781 C 109.597656 168.671875 110.167969 168.242188 110.699219 167.757812 C 111.230469 167.273438 111.710938 166.742188 112.140625 166.167969 C 112.574219 165.59375 112.949219 164.988281 113.265625 164.34375 C 113.582031 163.699219 113.839844 163.03125 114.03125 162.339844 C 114.226562 161.648438 114.351562 160.945312 114.414062 160.226562 L 115.582031 147.398438 C 121.085938 145.296875 126.113281 142.378906 130.671875 138.644531 L 142.402344 144.070312 C 143.054688 144.375 143.726562 144.613281 144.421875 144.792969 C 145.117188 144.972656 145.824219 145.085938 146.539062 145.128906 C 147.257812 145.175781 147.972656 145.15625 148.683594 145.070312 C 149.398438 144.984375 150.097656 144.832031 150.78125 144.613281 C 151.464844 144.398438 152.125 144.121094 152.757812 143.777344 C 153.390625 143.4375 153.984375 143.042969 154.542969 142.59375 C 155.101562 142.140625 155.613281 141.640625 156.082031 141.09375 C 156.546875 140.550781 156.957031 139.964844 157.3125 139.339844 L 164.179688 127.445312 C 164.539062 126.828125 164.839844 126.179688 165.082031 125.503906 C 165.324219 124.824219 165.5 124.132812 165.609375 123.421875 C 165.722656 122.714844 165.765625 122 165.746094 121.28125 C 165.722656 120.566406 165.636719 119.855469 165.480469 119.152344 C 165.328125 118.453125 165.109375 117.773438 164.828125 117.109375 C 164.546875 116.449219 164.207031 115.820312 163.808594 115.222656 C 163.410156 114.628906 162.957031 114.070312 162.457031 113.558594 C 161.953125 113.046875 161.410156 112.582031 160.820312 112.171875 Z M 157.363281 123.511719 L 150.5 135.40625 C 150.265625 135.808594 149.972656 136.160156 149.609375 136.453125 C 149.246094 136.746094 148.84375 136.960938 148.398438 137.101562 C 147.953125 137.242188 147.5 137.296875 147.035156 137.265625 C 146.570312 137.238281 146.125 137.121094 145.707031 136.925781 L 131.683594 130.441406 C 131.335938 130.28125 130.96875 130.175781 130.589844 130.121094 C 130.207031 130.066406 129.828125 130.066406 129.449219 130.125 C 129.070312 130.183594 128.707031 130.292969 128.355469 130.457031 C 128.007812 130.621094 127.691406 130.828125 127.40625 131.085938 C 122.511719 135.5 116.929688 138.734375 110.667969 140.792969 C 110.300781 140.910156 109.960938 141.082031 109.644531 141.300781 C 109.328125 141.519531 109.050781 141.777344 108.8125 142.078125 C 108.574219 142.378906 108.382812 142.707031 108.238281 143.066406 C 108.097656 143.421875 108.007812 143.792969 107.972656 144.175781 L 106.578125 159.515625 C 106.539062 159.980469 106.414062 160.421875 106.207031 160.839844 C 106 161.257812 105.726562 161.621094 105.382812 161.9375 C 105.039062 162.25 104.648438 162.492188 104.214844 162.660156 C 103.78125 162.824219 103.328125 162.910156 102.863281 162.90625 L 89.132812 162.90625 C 88.667969 162.910156 88.21875 162.824219 87.78125 162.660156 C 87.347656 162.492188 86.957031 162.25 86.613281 161.9375 C 86.269531 161.621094 85.996094 161.257812 85.789062 160.839844 C 85.582031 160.421875 85.460938 159.980469 85.417969 159.515625 L 84.023438 144.175781 C 83.992188 143.792969 83.902344 143.421875 83.757812 143.066406 C 83.617188 142.707031 83.425781 142.378906 83.183594 142.078125 C 82.945312 141.777344 82.667969 141.519531 82.351562 141.300781 C 82.035156 141.082031 81.695312 140.910156 81.332031 140.792969 C 75.066406 138.734375 69.488281 135.5 64.589844 131.085938 C 64.304688 130.828125 63.988281 130.617188 63.640625 130.457031 C 63.292969 130.292969 62.929688 130.179688 62.546875 130.125 C 62.167969 130.066406 61.789062 130.066406 61.410156 130.121094 C 61.027344 130.175781 60.664062 130.28125 60.3125 130.441406 L 46.292969 136.925781 C 45.871094 137.121094 45.425781 137.234375 44.960938 137.265625 C 44.496094 137.296875 44.042969 137.242188 43.601562 137.101562 C 43.15625 136.960938 42.753906 136.742188 42.390625 136.449219 C 42.027344 136.160156 41.730469 135.808594 41.5 135.40625 L 34.632812 123.511719 C 34.398438 123.109375 34.246094 122.679688 34.171875 122.21875 C 34.101562 121.757812 34.117188 121.300781 34.214844 120.847656 C 34.316406 120.390625 34.496094 119.96875 34.753906 119.582031 C 35.011719 119.195312 35.332031 118.871094 35.714844 118.601562 L 48.289062 109.734375 C 48.601562 109.511719 48.878906 109.253906 49.113281 108.949219 C 49.351562 108.648438 49.539062 108.320312 49.679688 107.960938 C 49.820312 107.605469 49.90625 107.234375 49.941406 106.851562 C 49.972656 106.46875 49.949219 106.089844 49.871094 105.714844 C 48.511719 99.246094 48.511719 92.777344 49.871094 86.3125 C 49.949219 85.933594 49.972656 85.554688 49.941406 85.171875 C 49.90625 84.792969 49.820312 84.421875 49.679688 84.0625 C 49.539062 83.707031 49.351562 83.378906 49.113281 83.074219 C 48.878906 82.773438 48.601562 82.511719 48.289062 82.289062 L 35.714844 73.421875 C 35.332031 73.15625 35.011719 72.828125 34.753906 72.441406 C 34.496094 72.054688 34.316406 71.632812 34.214844 71.175781 C 34.117188 70.722656 34.101562 70.265625 34.175781 69.804688 C 34.246094 69.34375 34.398438 68.914062 34.636719 68.511719 L 41.5 56.617188 C 41.730469 56.214844 42.027344 55.867188 42.390625 55.574219 C 42.753906 55.28125 43.15625 55.066406 43.601562 54.925781 C 44.042969 54.785156 44.496094 54.730469 44.960938 54.761719 C 45.425781 54.789062 45.871094 54.902344 46.292969 55.101562 L 60.3125 61.582031 C 60.664062 61.742188 61.027344 61.847656 61.40625 61.902344 C 61.789062 61.957031 62.167969 61.957031 62.546875 61.898438 C 62.929688 61.84375 63.292969 61.730469 63.640625 61.570312 C 63.988281 61.40625 64.304688 61.195312 64.589844 60.9375 C 69.488281 56.523438 75.066406 53.289062 81.332031 51.234375 C 81.695312 51.113281 82.035156 50.945312 82.351562 50.726562 C 82.667969 50.507812 82.945312 50.246094 83.183594 49.945312 C 83.425781 49.644531 83.617188 49.316406 83.757812 48.960938 C 83.902344 48.605469 83.988281 48.234375 84.023438 47.851562 L 85.417969 32.507812 C 85.460938 32.042969 85.582031 31.605469 85.789062 31.1875 C 85.996094 30.769531 86.269531 30.402344 86.613281 30.089844 C 86.957031 29.773438 87.347656 29.535156 87.78125 29.367188 C 88.21875 29.199219 88.667969 29.117188 89.132812 29.121094 L 102.863281 29.121094 C 103.328125 29.117188 103.78125 29.199219 104.214844 29.367188 C 104.648438 29.535156 105.039062 29.773438 105.382812 30.089844 C 105.726562 30.402344 106 30.769531 106.207031 31.1875 C 106.414062 31.605469 106.539062 32.042969 106.578125 32.507812 L 107.972656 47.851562 C 108.007812 48.234375 108.097656 48.605469 108.238281 48.960938 C 108.382812 49.316406 108.574219 49.644531 108.8125 49.945312 C 109.050781 50.246094 109.328125 50.507812 109.644531 50.726562 C 109.960938 50.945312 110.300781 51.113281 110.667969 51.234375 C 116.929688 53.289062 122.511719 56.523438 127.40625 60.9375 C 127.691406 61.195312 128.007812 61.40625 128.355469 61.570312 C 128.703125 61.734375 129.070312 61.84375 129.449219 61.898438 C 129.828125 61.957031 130.207031 61.957031 130.589844 61.902344 C 130.96875 61.851562 131.335938 61.742188 131.683594 61.582031 L 145.703125 55.101562 C 146.125 54.902344 146.570312 54.789062 147.035156 54.757812 C 147.5 54.726562 147.953125 54.785156 148.398438 54.925781 C 148.839844 55.066406 149.246094 55.28125 149.605469 55.574219 C 149.96875 55.867188 150.265625 56.214844 150.496094 56.617188 L 157.363281 68.511719 C 157.597656 68.914062 157.75 69.34375 157.824219 69.804688 C 157.894531 70.265625 157.882812 70.722656 157.78125 71.179688 C 157.679688 71.632812 157.503906 72.054688 157.242188 72.441406 C 156.984375 72.828125 156.664062 73.15625 156.28125 73.421875 L 143.710938 82.289062 C 143.394531 82.511719 143.121094 82.773438 142.882812 83.074219 C 142.644531 83.378906 142.457031 83.707031 142.316406 84.0625 C 142.175781 84.421875 142.089844 84.792969 142.058594 85.175781 C 142.023438 85.554688 142.046875 85.9375 142.125 86.3125 C 143.488281 92.777344 143.488281 99.246094 142.125 105.714844 C 142.046875 106.089844 142.023438 106.46875 142.058594 106.851562 C 142.089844 107.234375 142.175781 107.605469 142.316406 107.960938 C 142.457031 108.320312 142.644531 108.648438 142.882812 108.949219 C 143.121094 109.253906 143.394531 109.515625 143.710938 109.734375 L 156.28125 118.601562 C 156.664062 118.871094 156.984375 119.195312 157.242188 119.582031 C 157.503906 119.96875 157.679688 120.390625 157.78125 120.847656 C 157.882812 121.300781 157.894531 121.757812 157.824219 122.21875 C 157.75 122.679688 157.597656 123.109375 157.363281 123.511719 Z M 157.363281 123.511719 " fill-opacity="1" fill-rule="nonzero"/></g><path fill="#ffffff" d="M 96 65.84375 C 95.011719 65.84375 94.023438 65.894531 93.042969 65.992188 C 92.058594 66.085938 91.082031 66.230469 90.113281 66.425781 C 89.144531 66.617188 88.1875 66.859375 87.242188 67.144531 C 86.296875 67.429688 85.367188 67.761719 84.453125 68.140625 C 83.542969 68.519531 82.648438 68.941406 81.777344 69.40625 C 80.90625 69.875 80.058594 70.378906 79.238281 70.929688 C 78.417969 71.476562 77.625 72.066406 76.859375 72.691406 C 76.097656 73.320312 75.367188 73.984375 74.667969 74.679688 C 73.96875 75.378906 73.304688 76.109375 72.679688 76.875 C 72.050781 77.636719 71.464844 78.429688 70.914062 79.253906 C 70.367188 80.074219 69.859375 80.921875 69.394531 81.792969 C 68.925781 82.664062 68.503906 83.554688 68.128906 84.46875 C 67.75 85.382812 67.417969 86.308594 67.128906 87.253906 C 66.84375 88.199219 66.601562 89.160156 66.410156 90.128906 C 66.21875 91.097656 66.074219 92.074219 65.976562 93.054688 C 65.878906 94.039062 65.832031 95.023438 65.832031 96.011719 C 65.832031 97 65.878906 97.988281 65.976562 98.96875 C 66.074219 99.953125 66.21875 100.929688 66.410156 101.898438 C 66.601562 102.867188 66.84375 103.824219 67.128906 104.769531 C 67.417969 105.714844 67.75 106.644531 68.128906 107.558594 C 68.503906 108.46875 68.925781 109.363281 69.394531 110.234375 C 69.859375 111.105469 70.367188 111.953125 70.914062 112.773438 C 71.464844 113.59375 72.050781 114.386719 72.679688 115.152344 C 73.304688 115.914062 73.96875 116.644531 74.667969 117.34375 C 75.367188 118.042969 76.097656 118.707031 76.859375 119.332031 C 77.625 119.960938 78.417969 120.546875 79.238281 121.097656 C 80.058594 121.644531 80.90625 122.152344 81.777344 122.617188 C 82.648438 123.085938 83.542969 123.507812 84.453125 123.882812 C 85.367188 124.261719 86.296875 124.59375 87.242188 124.882812 C 88.1875 125.167969 89.144531 125.40625 90.113281 125.601562 C 91.082031 125.792969 92.058594 125.9375 93.042969 126.035156 C 94.023438 126.132812 95.011719 126.179688 96 126.179688 C 96.988281 126.179688 97.972656 126.132812 98.957031 126.035156 C 99.9375 125.9375 100.914062 125.792969 101.882812 125.601562 C 102.851562 125.40625 103.808594 125.167969 104.757812 124.882812 C 105.703125 124.59375 106.628906 124.261719 107.542969 123.882812 C 108.457031 123.507812 109.347656 123.085938 110.21875 122.617188 C 111.089844 122.152344 111.9375 121.644531 112.757812 121.097656 C 113.582031 120.546875 114.375 119.960938 115.136719 119.332031 C 115.902344 118.707031 116.632812 118.042969 117.332031 117.34375 C 118.027344 116.644531 118.691406 115.914062 119.320312 115.152344 C 119.945312 114.386719 120.535156 113.59375 121.082031 112.773438 C 121.632812 111.953125 122.136719 111.105469 122.605469 110.234375 C 123.070312 109.363281 123.492188 108.46875 123.871094 107.558594 C 124.25 106.644531 124.582031 105.714844 124.867188 104.769531 C 125.152344 103.824219 125.394531 102.867188 125.585938 101.898438 C 125.78125 100.929688 125.925781 99.953125 126.019531 98.96875 C 126.117188 97.988281 126.167969 97 126.167969 96.011719 C 126.164062 95.023438 126.117188 94.039062 126.019531 93.058594 C 125.921875 92.074219 125.773438 91.097656 125.582031 90.128906 C 125.386719 89.160156 125.148438 88.203125 124.859375 87.257812 C 124.574219 86.3125 124.238281 85.386719 123.859375 84.472656 C 123.484375 83.5625 123.058594 82.667969 122.59375 81.796875 C 122.128906 80.925781 121.621094 80.082031 121.070312 79.261719 C 120.523438 78.4375 119.933594 77.648438 119.308594 76.882812 C 118.683594 76.121094 118.019531 75.390625 117.320312 74.691406 C 116.621094 73.992188 115.890625 73.328125 115.128906 72.703125 C 114.363281 72.078125 113.570312 71.488281 112.75 70.941406 C 111.929688 70.390625 111.082031 69.882812 110.214844 69.417969 C 109.34375 68.953125 108.449219 68.527344 107.539062 68.152344 C 106.625 67.773438 105.695312 67.4375 104.753906 67.152344 C 103.808594 66.863281 102.851562 66.625 101.882812 66.429688 C 100.914062 66.238281 99.9375 66.089844 98.953125 65.992188 C 97.972656 65.894531 96.988281 65.847656 96 65.84375 Z M 96 118.3125 C 95.269531 118.3125 94.539062 118.273438 93.8125 118.203125 C 93.085938 118.132812 92.363281 118.023438 91.648438 117.882812 C 90.933594 117.738281 90.226562 117.5625 89.527344 117.351562 C 88.828125 117.136719 88.140625 116.894531 87.464844 116.613281 C 86.792969 116.332031 86.132812 116.023438 85.488281 115.679688 C 84.84375 115.332031 84.21875 114.957031 83.609375 114.554688 C 83.003906 114.148438 82.417969 113.710938 81.851562 113.25 C 81.289062 112.785156 80.75 112.296875 80.230469 111.78125 C 79.714844 111.261719 79.226562 110.722656 78.761719 110.160156 C 78.300781 109.59375 77.863281 109.007812 77.457031 108.402344 C 77.054688 107.792969 76.679688 107.167969 76.332031 106.523438 C 75.988281 105.878906 75.675781 105.21875 75.398438 104.546875 C 75.117188 103.871094 74.871094 103.183594 74.660156 102.484375 C 74.449219 101.785156 74.273438 101.078125 74.128906 100.363281 C 73.988281 99.648438 73.878906 98.925781 73.808594 98.199219 C 73.738281 97.472656 73.699219 96.742188 73.699219 96.011719 C 73.699219 95.28125 73.738281 94.554688 73.808594 93.828125 C 73.878906 93.101562 73.988281 92.378906 74.128906 91.664062 C 74.273438 90.945312 74.449219 90.238281 74.660156 89.539062 C 74.871094 88.839844 75.117188 88.15625 75.398438 87.480469 C 75.675781 86.804688 75.988281 86.144531 76.332031 85.5 C 76.679688 84.859375 77.054688 84.230469 77.457031 83.625 C 77.863281 83.019531 78.300781 82.433594 78.761719 81.867188 C 79.226562 81.304688 79.714844 80.761719 80.230469 80.246094 C 80.75 79.730469 81.289062 79.238281 81.851562 78.777344 C 82.417969 78.3125 83.003906 77.878906 83.609375 77.472656 C 84.21875 77.066406 84.84375 76.691406 85.488281 76.347656 C 86.132812 76.003906 86.792969 75.691406 87.464844 75.414062 C 88.140625 75.132812 88.828125 74.886719 89.527344 74.675781 C 90.226562 74.464844 90.933594 74.285156 91.648438 74.144531 C 92.363281 74 93.085938 73.894531 93.8125 73.824219 C 94.539062 73.75 95.269531 73.714844 96 73.714844 C 96.730469 73.714844 97.457031 73.75 98.183594 73.824219 C 98.910156 73.894531 99.632812 74 100.347656 74.144531 C 101.066406 74.285156 101.773438 74.464844 102.472656 74.675781 C 103.171875 74.886719 103.855469 75.132812 104.53125 75.414062 C 105.207031 75.691406 105.867188 76.003906 106.511719 76.347656 C 107.152344 76.691406 107.78125 77.066406 108.386719 77.472656 C 108.992188 77.878906 109.578125 78.3125 110.144531 78.777344 C 110.707031 79.238281 111.25 79.730469 111.765625 80.246094 C 112.28125 80.761719 112.773438 81.304688 113.234375 81.867188 C 113.699219 82.433594 114.132812 83.019531 114.539062 83.625 C 114.945312 84.230469 115.320312 84.859375 115.664062 85.5 C 116.007812 86.144531 116.320312 86.804688 116.597656 87.480469 C 116.878906 88.15625 117.125 88.839844 117.335938 89.539062 C 117.546875 90.238281 117.726562 90.945312 117.867188 91.664062 C 118.011719 92.378906 118.117188 93.101562 118.1875 93.828125 C 118.261719 94.554688 118.296875 95.28125 118.296875 96.011719 C 118.296875 96.742188 118.257812 97.472656 118.1875 98.199219 C 118.113281 98.925781 118.007812 99.644531 117.863281 100.359375 C 117.722656 101.078125 117.542969 101.785156 117.332031 102.484375 C 117.117188 103.179688 116.871094 103.867188 116.59375 104.542969 C 116.3125 105.214844 116 105.875 115.65625 106.519531 C 115.3125 107.164062 114.9375 107.789062 114.53125 108.394531 C 114.125 109 113.691406 109.585938 113.226562 110.152344 C 112.765625 110.714844 112.273438 111.257812 111.757812 111.773438 C 111.242188 112.289062 110.703125 112.777344 110.136719 113.242188 C 109.574219 113.703125 108.988281 114.140625 108.378906 114.546875 C 107.773438 114.949219 107.148438 115.324219 106.503906 115.671875 C 105.859375 116.015625 105.203125 116.328125 104.527344 116.605469 C 103.855469 116.886719 103.167969 117.132812 102.46875 117.34375 C 101.769531 117.558594 101.0625 117.734375 100.347656 117.878906 C 99.632812 118.019531 98.910156 118.128906 98.183594 118.199219 C 97.457031 118.273438 96.730469 118.308594 96 118.3125 Z M 96 118.3125 " fill-opacity="1" fill-rule="nonzero"/></svg>