<svg xmlns="http://www.w3.org/2000/svg" xmlns:xlink="http://www.w3.org/1999/xlink" width="256" zoomAndPan="magnify" viewBox="0 0 192 191.999996" height="256" preserveAspectRatio="xMidYMid meet" version="1.0"><defs><clipPath id="270517c6cc"><path d="M 19.636719 19.636719 L 172.636719 19.636719 L 172.636719 172.636719 L 19.636719 172.636719 Z M 19.636719 19.636719 " clip-rule="nonzero"/></clipPath><clipPath id="b0c7be6cf9"><path d="M 19.636719 19.636719 L 57 19.636719 L 57 67 L 19.636719 67 Z M 19.636719 19.636719 " clip-rule="nonzero"/></clipPath></defs><path fill="#ffffff" d="M 115.0625 135.117188 L 62.335938 135.117188 C 55.265625 135.117188 49.535156 129.386719 49.535156 122.316406 L 49.535156 112.824219 C 49.535156 111.394531 49.984375 109.960938 50.789062 108.886719 C 51.503906 107.722656 52.402344 106.828125 53.566406 106.203125 C 53.652344 106.203125 53.652344 106.203125 53.742188 106.113281 L 71.648438 97.429688 L 53.652344 88.65625 C 52.578125 88.207031 51.503906 87.222656 50.699219 85.96875 C 49.894531 84.804688 49.535156 83.464844 49.535156 82.03125 L 49.535156 72.542969 C 49.535156 65.46875 55.265625 59.742188 62.335938 59.742188 L 115.0625 59.742188 C 121.332031 59.742188 126.523438 64.128906 127.6875 70.035156 L 143.710938 61.621094 C 144.605469 61.171875 145.589844 61.171875 146.394531 61.710938 C 147.199219 62.160156 147.648438 63.054688 147.648438 64.039062 L 147.648438 74.78125 C 147.648438 75.765625 147.113281 76.660156 146.214844 77.109375 L 105.664062 97.429688 L 146.84375 118.019531 C 147.738281 118.464844 148.273438 119.359375 148.273438 120.34375 L 148.273438 131.085938 C 148.273438 132.074219 147.828125 132.96875 147.023438 133.414062 C 146.214844 133.953125 145.230469 133.953125 144.425781 133.503906 L 127.6875 124.820312 C 126.523438 130.730469 121.332031 135.117188 115.0625 135.117188 Z M 56.160156 110.945312 C 55.800781 111.125 55.445312 111.394531 55.265625 111.75 C 55.265625 111.839844 55.175781 111.929688 55.175781 111.929688 C 54.996094 112.199219 54.90625 112.558594 54.90625 112.824219 L 54.90625 122.316406 C 54.90625 126.433594 58.21875 129.746094 62.335938 129.746094 L 115.0625 129.746094 C 119.183594 129.746094 122.492188 126.433594 122.492188 122.316406 L 122.492188 120.523438 C 122.492188 119.628906 123.03125 118.734375 123.835938 118.285156 C 124.640625 117.75 125.628906 117.75 126.433594 118.195312 L 142.902344 126.703125 L 142.902344 122.046875 L 98.414062 99.84375 C 97.519531 99.398438 96.980469 98.503906 96.890625 97.519531 C 96.890625 96.445312 97.519531 95.546875 98.414062 95.101562 L 142.277344 73.078125 L 142.277344 68.425781 L 126.433594 76.75 C 125.628906 77.199219 124.640625 77.199219 123.835938 76.660156 C 123.03125 76.210938 122.492188 75.316406 122.492188 74.421875 L 122.492188 72.542969 C 122.492188 68.425781 119.183594 65.113281 115.0625 65.113281 L 62.335938 65.113281 C 58.21875 65.113281 54.90625 68.425781 54.90625 72.542969 L 54.90625 82.03125 C 54.90625 82.390625 54.996094 82.746094 55.265625 83.105469 C 55.445312 83.375 55.625 83.730469 55.980469 83.820312 L 78.988281 95.101562 C 79.882812 95.546875 80.507812 96.445312 80.507812 97.519531 C 80.421875 98.503906 79.882812 99.398438 78.988281 99.933594 Z M 115.0625 125.539062 L 62.335938 125.539062 C 60.457031 125.539062 59.113281 124.195312 59.113281 122.316406 L 59.113281 115.871094 C 59.113281 114.886719 59.652344 113.988281 60.546875 113.542969 L 87.492188 100.382812 C 88.296875 99.933594 89.101562 99.933594 89.910156 100.382812 L 116.855469 113.542969 C 117.75 113.988281 118.285156 114.886719 118.285156 115.871094 L 118.285156 122.316406 C 118.285156 124.195312 116.945312 125.539062 115.0625 125.539062 Z M 64.484375 120.167969 L 112.914062 120.167969 L 112.914062 117.570312 L 88.746094 105.753906 L 64.484375 117.570312 Z M 88.746094 94.742188 C 88.296875 94.742188 87.941406 94.652344 87.492188 94.472656 L 60.546875 81.496094 C 59.652344 81.046875 59.113281 80.0625 59.113281 79.078125 L 59.113281 72.542969 C 59.113281 70.753906 60.546875 69.320312 62.335938 69.320312 L 115.0625 69.320312 C 116.855469 69.320312 118.285156 70.753906 118.285156 72.542969 L 118.285156 79.078125 C 118.285156 80.0625 117.75 81.046875 116.855469 81.496094 L 89.910156 94.5625 C 89.460938 94.742188 89.101562 94.742188 88.746094 94.742188 Z M 64.484375 77.375 L 88.746094 89.101562 L 112.914062 77.375 L 112.914062 74.691406 L 64.484375 74.691406 Z M 64.484375 77.375 " fill-opacity="1" fill-rule="evenodd"/><g clip-path="url(#270517c6cc)"><path fill="#ffffff" d="M 37.273438 172.355469 C 27.515625 172.355469 19.636719 164.476562 19.636719 154.71875 L 19.636719 37.273438 C 19.636719 27.515625 27.515625 19.636719 37.273438 19.636719 L 154.71875 19.636719 C 164.476562 19.636719 172.355469 27.515625 172.355469 37.273438 L 172.355469 154.71875 C 172.355469 164.476562 164.476562 172.355469 154.71875 172.355469 Z M 37.273438 25.007812 C 30.46875 25.007812 25.007812 30.46875 25.007812 37.273438 L 25.007812 154.71875 C 25.007812 161.523438 30.46875 166.984375 37.273438 166.984375 L 154.71875 166.984375 C 161.523438 166.984375 166.984375 161.523438 166.984375 154.71875 L 166.984375 37.273438 C 166.984375 30.46875 161.523438 25.007812 154.71875 25.007812 Z M 37.273438 25.007812 " fill-opacity="1" fill-rule="evenodd"/></g><g clip-path="url(#b0c7be6cf9)"><path fill="#ffffff" d="M 23.933594 66.277344 L 22.324219 66.277344 C 20.800781 66.277344 19.636719 65.023438 19.636719 63.589844 L 19.636719 37.183594 C 19.636719 27.515625 27.515625 19.636719 37.183594 19.636719 L 52.222656 19.636719 C 53.296875 19.636719 54.28125 20.261719 54.640625 21.335938 C 56.160156 25.097656 56.964844 29.125 56.964844 33.332031 C 56.964844 51.503906 42.105469 66.277344 23.933594 66.277344 Z M 37.183594 25.007812 C 30.46875 25.007812 25.007812 30.46875 25.007812 37.183594 L 25.007812 60.816406 C 39.6875 60.277344 51.59375 48.105469 51.59375 33.332031 C 51.59375 30.378906 51.148438 27.605469 50.253906 25.007812 Z M 37.183594 25.007812 " fill-opacity="1" fill-rule="evenodd"/></g></svg>