<svg xmlns="http://www.w3.org/2000/svg" xmlns:xlink="http://www.w3.org/1999/xlink" width="256" zoomAndPan="magnify" viewBox="0 0 192 191.999996" height="256" preserveAspectRatio="xMidYMid meet" version="1.0"><defs><clipPath id="60b75b248c"><path d="M 22.019531 14.253906 L 169.769531 14.253906 L 169.769531 177.753906 L 22.019531 177.753906 Z M 22.019531 14.253906 " clip-rule="nonzero"/></clipPath><clipPath id="b09a45a704"><path d="M 22.019531 14.253906 L 168 14.253906 L 168 137 L 22.019531 137 Z M 22.019531 14.253906 " clip-rule="nonzero"/></clipPath><clipPath id="ff4659e4fa"><path d="M 94 54 L 169.769531 54 L 169.769531 137 L 94 137 Z M 94 54 " clip-rule="nonzero"/></clipPath></defs><g clip-path="url(#60b75b248c)"><path fill="#a600c8" d="M 91.746094 15.75 C 94.375 14.273438 97.617188 14.273438 100.242188 15.75 C 113.238281 23.046875 152.351562 45.003906 165.355469 52.300781 C 167.984375 53.773438 169.605469 56.5 169.605469 59.449219 C 169.605469 74.042969 169.605469 117.953125 169.605469 132.542969 C 169.605469 135.496094 167.984375 138.222656 165.355469 139.699219 C 152.355469 146.996094 113.242188 168.953125 100.242188 176.25 C 97.613281 177.722656 94.371094 177.722656 91.746094 176.25 C 78.75 168.953125 39.636719 146.996094 26.632812 139.699219 C 24.007812 138.222656 22.386719 135.5 22.386719 132.546875 C 22.386719 117.957031 22.386719 74.046875 22.386719 59.453125 C 22.386719 56.503906 24.007812 53.777344 26.636719 52.300781 C 39.632812 45.003906 78.753906 23.046875 91.746094 15.75 Z M 91.746094 15.75 " fill-opacity="1" fill-rule="nonzero"/></g><g clip-path="url(#b09a45a704)"><path fill="#d569f0" d="M 23.566406 136.304688 C 22.535156 134.925781 22.386719 133.617188 22.386719 131.855469 C 22.386719 117.351562 22.386719 73.6875 22.386719 59.179688 C 22.386719 56.242188 24.003906 53.53125 26.625 52.066406 C 39.578125 44.816406 78.558594 22.984375 91.507812 15.726562 C 94.132812 14.257812 97.683594 14.289062 100.308594 15.757812 C 113.257812 23.011719 152.109375 44.65625 165.058594 51.90625 C 166.105469 52.496094 166.902344 53.207031 167.617188 54.140625 Z M 23.566406 136.304688 " fill-opacity="1" fill-rule="nonzero"/></g><path fill="#ffffff" d="M 95.996094 41.761719 C 66.050781 41.761719 41.757812 66.050781 41.757812 96 C 41.757812 125.945312 66.050781 150.238281 95.996094 150.238281 C 125.941406 150.238281 150.234375 125.945312 150.234375 96 C 150.234375 66.050781 125.941406 41.761719 95.996094 41.761719 Z M 95.996094 123.117188 C 81.042969 123.117188 68.875 110.953125 68.875 96 C 68.875 81.046875 81.042969 68.878906 95.996094 68.878906 C 110.949219 68.878906 123.113281 81.046875 123.113281 96 C 123.113281 110.953125 110.949219 123.117188 95.996094 123.117188 Z M 95.996094 123.117188 " fill-opacity="1" fill-rule="nonzero"/><g clip-path="url(#ff4659e4fa)"><path fill="#c600e6" d="M 167.609375 54.179688 C 169.609375 56.050781 169.570312 58.871094 169.570312 61.089844 C 169.570312 75.792969 169.445312 117.609375 169.605469 132.3125 C 169.621094 133.847656 169.113281 135.460938 168.351562 136.679688 L 94.417969 96 Z M 167.609375 54.179688 " fill-opacity="1" fill-rule="nonzero"/></g><path fill="#ffffff" d="M 134.738281 80.503906 L 138.609375 80.503906 L 138.609375 111.496094 L 134.738281 111.496094 Z M 146.359375 80.503906 L 150.234375 80.503906 L 150.234375 111.496094 L 146.359375 111.496094 Z M 146.359375 80.503906 " fill-opacity="1" fill-rule="nonzero"/><path fill="#ffffff" d="M 126.988281 99.875 L 157.980469 99.875 L 157.980469 103.746094 L 126.988281 103.746094 Z M 126.988281 88.25 L 157.980469 88.25 L 157.980469 92.125 L 126.988281 92.125 Z M 126.988281 88.25 " fill-opacity="1" fill-rule="nonzero"/></svg>