<svg xmlns="http://www.w3.org/2000/svg" xmlns:xlink="http://www.w3.org/1999/xlink" width="256" zoomAndPan="magnify" viewBox="0 0 192 191.999996" height="256" preserveAspectRatio="xMidYMid meet" version="1.0"><defs><clipPath id="3003daf4dd"><path d="M 23.328125 23.328125 L 168.828125 23.328125 L 168.828125 168.828125 L 23.328125 168.828125 Z M 23.328125 23.328125 " clip-rule="nonzero"/></clipPath></defs><g clip-path="url(#3003daf4dd)"><path fill="#5e94ff" d="M 28.742188 22.988281 C 27.285156 22.988281 25.898438 23.613281 24.933594 24.703125 C 23.972656 25.796875 23.523438 27.25 23.703125 28.691406 L 37.238281 136.972656 C 37.449219 138.65625 38.488281 140.125 40.003906 140.882812 L 94.144531 167.953125 C 95.574219 168.667969 97.257812 168.667969 98.683594 167.953125 L 152.824219 140.882812 C 154.34375 140.125 155.378906 138.65625 155.589844 136.972656 L 169.125 28.691406 C 169.304688 27.25 168.859375 25.796875 167.894531 24.703125 C 166.929688 23.613281 165.546875 22.988281 164.089844 22.988281 Z M 28.742188 22.988281 " fill-opacity="1" fill-rule="nonzero"/></g><path fill="#eceff1" d="M 50.734375 48.367188 C 50.734375 45.5625 53.007812 43.289062 55.808594 43.289062 L 143.785156 43.289062 C 146.140625 43.289062 148.1875 44.910156 148.726562 47.199219 C 149.269531 49.492188 148.164062 51.851562 146.058594 52.90625 L 90.847656 80.511719 L 137.019531 80.511719 C 138.523438 80.511719 139.953125 81.179688 140.917969 82.335938 C 141.878906 83.492188 142.28125 85.015625 142.011719 86.496094 L 135.246094 123.714844 C 134.984375 125.152344 134.117188 126.40625 132.863281 127.160156 L 99.027344 147.460938 C 97.417969 148.425781 95.410156 148.425781 93.804688 147.460938 L 59.964844 127.160156 C 58.691406 126.394531 57.816406 125.109375 57.570312 123.640625 L 54.1875 103.339844 C 53.726562 100.574219 55.59375 97.960938 58.359375 97.5 C 61.125 97.039062 63.738281 98.90625 64.199219 101.671875 L 67.199219 119.660156 L 96.414062 137.191406 L 125.667969 119.636719 L 130.9375 90.664062 L 69.34375 90.664062 C 66.992188 90.664062 64.945312 89.042969 64.40625 86.753906 C 63.863281 84.460938 64.96875 82.101562 67.074219 81.046875 L 122.285156 53.441406 L 55.808594 53.441406 C 53.007812 53.441406 50.734375 51.167969 50.734375 48.367188 Z M 50.734375 48.367188 " fill-opacity="1" fill-rule="evenodd"/></svg>