<svg xmlns="http://www.w3.org/2000/svg" xmlns:xlink="http://www.w3.org/1999/xlink" width="256" zoomAndPan="magnify" viewBox="0 0 192 191.999996" height="256" preserveAspectRatio="xMidYMid meet" version="1.0"><defs><clipPath id="ba6b91c01d"><path d="M 27.554688 18 L 164.804688 18 L 164.804688 173.898438 L 27.554688 173.898438 Z M 27.554688 18 " clip-rule="nonzero"/></clipPath></defs><g clip-path="url(#ba6b91c01d)"><path fill="#e44d26" d="M 40.015625 157.960938 L 27.515625 18.335938 L 164.84375 18.335938 L 152.335938 157.945312 L 96.09375 173.464844 Z M 40.015625 157.960938 " fill-opacity="1" fill-rule="nonzero"/></g><path fill="#f16529" d="M 141.625 149.050781 L 152.316406 29.753906 L 96.179688 29.753906 L 96.179688 161.605469 Z M 141.625 149.050781 " fill-opacity="1" fill-rule="nonzero"/><path fill="#ebebeb" d="M 96.121094 46.878906 L 53.070312 46.878906 L 57.707031 98.664062 L 96.179688 98.664062 L 96.179688 81.539062 L 73.433594 81.539062 L 71.859375 64.003906 L 96.179688 64.003906 L 96.179688 46.878906 Z M 96.179688 125.957031 L 96.109375 125.976562 L 76.960938 120.828125 L 75.742188 107.171875 L 58.476562 107.171875 L 60.886719 134.058594 L 96.101562 143.753906 L 96.179688 143.730469 Z M 96.179688 125.957031 " fill-opacity="1" fill-rule="nonzero"/><path fill="#ffffff" d="M 96.121094 98.664062 L 117.292969 98.664062 L 115.347656 120.867188 L 96.171875 126.019531 L 96.171875 143.835938 L 131.417969 134.105469 L 136.140625 81.53125 L 96.179688 81.53125 Z M 138.777344 51.472656 L 139.183594 46.878906 L 96.113281 46.878906 L 96.113281 64 L 137.636719 64 L 137.976562 60.152344 Z M 138.777344 51.472656 " fill-opacity="1" fill-rule="nonzero"/></svg>