<svg xmlns="http://www.w3.org/2000/svg" xmlns:xlink="http://www.w3.org/1999/xlink" width="256" zoomAndPan="magnify" viewBox="0 0 192 191.999996" height="256" preserveAspectRatio="xMidYMid meet" version="1.0"><path fill="#001e36" d="M 105.035156 110.234375 C 107.828125 110.054688 112.226562 112.023438 115.675781 112.382812 C 119.113281 112.746094 124.949219 112.066406 122.574219 108.175781 C 120.660156 105.035156 111.171875 104.273438 106.785156 98.316406 C 102.230469 92.136719 105.824219 83.390625 111.050781 80.921875 C 119.34375 77.019531 124.421875 78.929688 132.257812 80.828125 L 132.109375 91 C 127.5625 89.09375 120.5625 85.988281 116.242188 89.789062 C 116.265625 93.609375 118.058594 93.730469 121.441406 95.039062 C 128.40625 97.738281 137.539062 102.769531 133.621094 112.886719 C 131.914062 117.296875 127.550781 120.640625 121.617188 121.601562 C 116.894531 122.371094 108.535156 121.609375 105.058594 119.082031 Z M 60.832031 66.914062 C 65.664062 66.476562 81.726562 66.398438 85.875 67.394531 C 97.15625 70.101562 105.824219 86.566406 93.085938 98.910156 C 87.128906 104.675781 81.652344 103.304688 72.261719 103.703125 L 72.070312 120.40625 L 60.882812 120.246094 Z M 32.855469 136.890625 C 33.84375 145.835938 39.203125 151.386719 45.457031 154.480469 C 51.875 157.660156 65.871094 156.496094 73.832031 156.496094 C 93.464844 156.496094 115.339844 157.414062 134.699219 156.484375 C 143.910156 156.042969 150.242188 150.550781 153.285156 144.636719 C 156.898438 137.613281 155.734375 125.519531 155.734375 116.691406 C 155.734375 106.5 155.734375 96.3125 155.734375 86.121094 C 155.734375 66.917969 160.140625 45.730469 143 37.875 C 135.996094 34.671875 123.242188 35.75 114.589844 35.75 C 100.667969 35.75 64.882812 35.085938 53.695312 35.8125 C 44.714844 36.390625 38.261719 41.65625 35.121094 47.789062 C 31.53125 54.792969 32.726562 67.207031 32.726562 75.746094 C 32.726562 85.9375 32.726562 96.125 32.726562 106.320312 C 32.726562 115.167969 31.933594 128.582031 32.855469 136.890625 Z M 32.855469 136.890625 " fill-opacity="1" fill-rule="evenodd"/><path fill="#32aafc" d="M 72.304688 93.730469 L 72.207031 76.679688 C 75.503906 76.496094 80.890625 76.152344 83.554688 77.4375 C 88.460938 79.820312 94.9375 95.4375 72.304688 93.730469 Z M 60.882812 120.246094 L 72.070312 120.40625 L 72.261719 103.703125 C 81.652344 103.304688 87.128906 104.675781 93.085938 98.910156 C 105.824219 86.566406 97.15625 70.101562 85.875 67.394531 C 81.726562 66.398438 65.664062 66.476562 60.832031 66.914062 Z M 60.882812 120.246094 " fill-opacity="1" fill-rule="evenodd"/><path fill="#36a8f6" d="M 105.035156 110.234375 L 105.058594 119.082031 C 108.535156 121.609375 116.894531 122.371094 121.617188 121.601562 C 127.550781 120.640625 131.914062 117.296875 133.621094 112.886719 C 137.539062 102.769531 128.40625 97.738281 121.441406 95.039062 C 118.058594 93.730469 116.265625 93.609375 116.242188 89.789062 C 120.5625 85.988281 127.5625 89.09375 132.109375 91 L 132.257812 80.828125 C 124.421875 78.929688 119.34375 77.019531 111.050781 80.921875 C 105.824219 83.390625 102.230469 92.136719 106.785156 98.316406 C 111.171875 104.273438 120.660156 105.035156 122.574219 108.175781 C 124.949219 112.066406 119.113281 112.746094 115.675781 112.382812 C 112.226562 112.023438 107.828125 110.054688 105.035156 110.234375 Z M 105.035156 110.234375 " fill-opacity="1" fill-rule="evenodd"/><path fill="#001e36" d="M 72.304688 93.730469 C 94.9375 95.4375 88.460938 79.820312 83.554688 77.4375 C 80.890625 76.152344 75.503906 76.496094 72.207031 76.679688 Z M 72.304688 93.730469 " fill-opacity="1" fill-rule="evenodd"/></svg>