<svg xmlns="http://www.w3.org/2000/svg" xmlns:xlink="http://www.w3.org/1999/xlink" width="256" zoomAndPan="magnify" viewBox="0 0 192 191.999996" height="256" preserveAspectRatio="xMidYMid meet" version="1.0"><defs><clipPath id="0e4ef259ae"><path d="M 30.144531 19.199219 L 162 19.199219 L 162 172.949219 L 30.144531 172.949219 Z M 30.144531 19.199219 " clip-rule="nonzero"/></clipPath></defs><path fill="#ffffff" d="M 148.90625 63.085938 L 153.871094 63.085938 C 154.550781 63.105469 155.175781 62.9375 155.75 62.574219 C 156.324219 62.210938 156.75 61.71875 157.019531 61.097656 C 157.292969 60.472656 157.367188 59.828125 157.242188 59.160156 C 157.117188 58.492188 156.816406 57.917969 156.339844 57.433594 L 123.589844 24.824219 C 123.121094 24.339844 122.558594 24.03125 121.898438 23.894531 C 121.238281 23.757812 120.597656 23.820312 119.976562 24.074219 C 119.355469 24.332031 118.855469 24.742188 118.484375 25.300781 C 118.113281 25.863281 117.933594 26.480469 117.941406 27.152344 L 117.941406 32.117188 C 117.9375 33.132812 117.988281 34.144531 118.085938 35.15625 C 118.183594 36.164062 118.332031 37.167969 118.53125 38.160156 C 118.726562 39.15625 118.972656 40.140625 119.265625 41.109375 C 119.5625 42.082031 119.902344 43.035156 120.289062 43.972656 C 120.675781 44.910156 121.109375 45.828125 121.589844 46.722656 C 122.066406 47.617188 122.585938 48.484375 123.148438 49.328125 C 123.714844 50.171875 124.316406 50.988281 124.960938 51.769531 C 125.605469 52.554688 126.285156 53.304688 127 54.023438 C 127.71875 54.742188 128.46875 55.421875 129.253906 56.0625 C 130.039062 56.707031 130.851562 57.3125 131.695312 57.875 C 132.539062 58.4375 133.410156 58.957031 134.304688 59.4375 C 135.199219 59.914062 136.113281 60.347656 137.050781 60.734375 C 137.988281 61.121094 138.945312 61.464844 139.914062 61.757812 C 140.886719 62.050781 141.867188 62.296875 142.863281 62.496094 C 143.859375 62.691406 144.859375 62.839844 145.871094 62.9375 C 146.878906 63.035156 147.890625 63.085938 148.90625 63.085938 Z M 148.90625 63.085938 " fill-opacity="1" fill-rule="nonzero"/><path fill="#ffffff" d="M 104.226562 96 C 103.535156 94.925781 102.621094 94.101562 101.484375 93.53125 C 100.117188 92.898438 98.679688 92.605469 97.175781 92.652344 C 95.652344 92.605469 94.207031 92.925781 92.84375 93.613281 C 91.699219 94.296875 90.785156 95.210938 90.101562 96.355469 C 89.34375 97.527344 88.839844 98.796875 88.59375 100.167969 C 88.277344 101.6875 88.125 103.222656 88.125 104.777344 C 88.113281 106.433594 88.238281 108.078125 88.507812 109.714844 C 88.734375 111.109375 89.21875 112.40625 89.964844 113.609375 C 90.644531 114.683594 91.558594 115.496094 92.707031 116.046875 C 94.082031 116.671875 95.527344 116.957031 97.039062 116.898438 C 98.597656 116.988281 100.078125 116.695312 101.484375 116.019531 C 102.632812 115.339844 103.546875 114.425781 104.226562 113.277344 C 104.992188 112.078125 105.503906 110.78125 105.761719 109.382812 C 106.054688 107.824219 106.199219 106.253906 106.199219 104.667969 C 106.207031 103.007812 106.058594 101.359375 105.761719 99.730469 C 105.492188 98.386719 104.980469 97.140625 104.226562 96 Z M 104.226562 96 " fill-opacity="1" fill-rule="nonzero"/><g clip-path="url(#0e4ef259ae)"><path fill="#ffffff" d="M 148.90625 74.054688 C 147.53125 74.058594 146.164062 73.992188 144.796875 73.855469 C 143.429688 73.722656 142.070312 73.523438 140.722656 73.253906 C 139.375 72.988281 138.042969 72.65625 136.730469 72.257812 C 135.414062 71.859375 134.121094 71.398438 132.851562 70.871094 C 131.582031 70.347656 130.34375 69.757812 129.132812 69.113281 C 127.921875 68.464844 126.742188 67.761719 125.601562 66.996094 C 124.457031 66.234375 123.355469 65.417969 122.292969 64.546875 C 121.230469 63.675781 120.214844 62.753906 119.242188 61.78125 C 118.273438 60.808594 117.351562 59.792969 116.480469 58.730469 C 115.609375 57.667969 114.792969 56.566406 114.027344 55.425781 C 113.265625 54.28125 112.558594 53.105469 111.914062 51.894531 C 111.265625 50.683594 110.679688 49.441406 110.152344 48.171875 C 109.628906 46.902344 109.167969 45.609375 108.769531 44.296875 C 108.371094 42.980469 108.039062 41.648438 107.769531 40.300781 C 107.503906 38.953125 107.300781 37.597656 107.167969 36.230469 C 107.035156 34.863281 106.96875 33.492188 106.96875 32.117188 C 106.96875 31.273438 106.886719 30.433594 106.722656 29.601562 C 106.554688 28.769531 106.3125 27.964844 105.988281 27.179688 C 105.664062 26.398438 105.265625 25.65625 104.796875 24.949219 C 104.328125 24.246094 103.792969 23.59375 103.195312 22.992188 C 102.597656 22.394531 101.945312 21.859375 101.242188 21.386719 C 100.539062 20.914062 99.796875 20.515625 99.011719 20.191406 C 98.230469 19.867188 97.425781 19.621094 96.59375 19.453125 C 95.761719 19.285156 94.925781 19.203125 94.078125 19.199219 L 61.164062 19.199219 C 60.148438 19.199219 59.136719 19.246094 58.125 19.34375 C 57.117188 19.441406 56.113281 19.589844 55.117188 19.785156 C 54.121094 19.980469 53.136719 20.226562 52.164062 20.519531 C 51.195312 20.8125 50.238281 21.15625 49.300781 21.542969 C 48.363281 21.929688 47.445312 22.363281 46.550781 22.839844 C 45.65625 23.316406 44.785156 23.835938 43.941406 24.402344 C 43.09375 24.964844 42.28125 25.566406 41.496094 26.210938 C 40.710938 26.855469 39.960938 27.535156 39.242188 28.253906 C 38.523438 28.96875 37.84375 29.71875 37.199219 30.503906 C 36.554688 31.289062 35.949219 32.101562 35.386719 32.949219 C 34.820312 33.792969 34.300781 34.660156 33.824219 35.554688 C 33.34375 36.449219 32.910156 37.367188 32.523438 38.304688 C 32.132812 39.242188 31.792969 40.199219 31.5 41.167969 C 31.203125 42.140625 30.957031 43.125 30.761719 44.121094 C 30.5625 45.117188 30.414062 46.117188 30.316406 47.128906 C 30.21875 48.140625 30.167969 49.152344 30.171875 50.167969 L 30.171875 141.832031 C 30.167969 142.84375 30.21875 143.859375 30.316406 144.867188 C 30.414062 145.878906 30.5625 146.878906 30.761719 147.875 C 30.957031 148.871094 31.203125 149.851562 31.496094 150.824219 C 31.792969 151.792969 32.132812 152.75 32.519531 153.6875 C 32.90625 154.625 33.339844 155.539062 33.816406 156.433594 C 34.296875 157.328125 34.816406 158.199219 35.378906 159.042969 C 35.945312 159.886719 36.546875 160.699219 37.191406 161.484375 C 37.835938 162.269531 38.515625 163.019531 39.230469 163.734375 C 39.949219 164.453125 40.699219 165.132812 41.484375 165.777344 C 42.269531 166.421875 43.082031 167.023438 43.925781 167.585938 C 44.769531 168.152344 45.636719 168.671875 46.535156 169.148438 C 47.429688 169.628906 48.34375 170.058594 49.28125 170.449219 C 50.21875 170.835938 51.171875 171.175781 52.144531 171.46875 C 53.113281 171.765625 54.097656 172.011719 55.09375 172.207031 C 56.089844 172.40625 57.089844 172.550781 58.101562 172.652344 C 59.109375 172.75 60.121094 172.796875 61.136719 172.796875 L 130.886719 172.796875 C 131.898438 172.796875 132.910156 172.746094 133.921875 172.648438 C 134.929688 172.550781 135.929688 172.402344 136.925781 172.203125 C 137.917969 172.003906 138.902344 171.757812 139.871094 171.464844 C 140.84375 171.167969 141.796875 170.828125 142.730469 170.441406 C 143.667969 170.050781 144.585938 169.617188 145.476562 169.140625 C 146.371094 168.664062 147.242188 168.140625 148.082031 167.578125 C 148.925781 167.015625 149.738281 166.410156 150.523438 165.765625 C 151.304688 165.125 152.054688 164.445312 152.773438 163.726562 C 153.488281 163.007812 154.167969 162.257812 154.8125 161.472656 C 155.453125 160.691406 156.058594 159.875 156.621094 159.035156 C 157.183594 158.191406 157.703125 157.320312 158.179688 156.425781 C 158.65625 155.53125 159.089844 154.617188 159.476562 153.679688 C 159.863281 152.742188 160.207031 151.789062 160.5 150.820312 C 160.792969 149.847656 161.039062 148.867188 161.234375 147.871094 C 161.433594 146.875 161.582031 145.875 161.679688 144.867188 C 161.777344 143.855469 161.824219 142.84375 161.824219 141.832031 L 161.824219 86.976562 C 161.824219 86.125 161.742188 85.285156 161.578125 84.453125 C 161.410156 83.621094 161.167969 82.816406 160.839844 82.03125 C 160.515625 81.246094 160.117188 80.503906 159.648438 79.796875 C 159.175781 79.09375 158.640625 78.441406 158.042969 77.839844 C 157.441406 77.242188 156.789062 76.703125 156.082031 76.234375 C 155.378906 75.761719 154.632812 75.363281 153.851562 75.039062 C 153.066406 74.714844 152.257812 74.46875 151.425781 74.304688 C 150.59375 74.140625 149.753906 74.054688 148.90625 74.054688 Z M 75.921875 116.570312 C 75.265625 117.929688 74.351562 119.078125 73.175781 120.027344 C 71.960938 120.984375 70.609375 121.667969 69.117188 122.082031 C 67.488281 122.566406 65.824219 122.804688 64.125 122.796875 C 63.011719 122.796875 61.902344 122.699219 60.808594 122.496094 C 59.875 122.332031 58.960938 122.09375 58.0625 121.78125 C 57.371094 121.5625 56.714844 121.269531 56.089844 120.902344 C 55.671875 120.683594 55.289062 120.417969 54.9375 120.109375 C 54.683594 119.824219 54.519531 119.496094 54.445312 119.121094 C 54.34375 118.492188 54.296875 117.863281 54.308594 117.226562 L 54.308594 115.828125 C 54.320312 115.519531 54.375 115.21875 54.472656 114.925781 C 54.523438 114.71875 54.632812 114.554688 54.800781 114.429688 C 54.9375 114.320312 55.09375 114.265625 55.265625 114.265625 C 55.65625 114.328125 56.015625 114.476562 56.335938 114.703125 C 56.898438 115.070312 57.484375 115.402344 58.09375 115.691406 C 58.914062 116.09375 59.765625 116.421875 60.644531 116.679688 C 61.765625 116.980469 62.910156 117.128906 64.070312 117.117188 C 64.851562 117.128906 65.621094 117.027344 66.375 116.816406 C 67.007812 116.636719 67.582031 116.34375 68.101562 115.9375 C 68.585938 115.566406 68.953125 115.097656 69.199219 114.539062 C 69.457031 113.953125 69.585938 113.34375 69.585938 112.703125 C 69.609375 111.945312 69.386719 111.269531 68.925781 110.671875 C 68.464844 110.0625 67.90625 109.558594 67.253906 109.164062 C 66.507812 108.691406 65.730469 108.28125 64.921875 107.929688 L 62.179688 106.722656 C 61.234375 106.292969 60.320312 105.808594 59.4375 105.269531 C 58.570312 104.714844 57.792969 104.058594 57.105469 103.292969 C 56.382812 102.480469 55.824219 101.566406 55.429688 100.550781 C 54.996094 99.375 54.804688 98.160156 54.855469 96.902344 C 54.832031 95.371094 55.140625 93.90625 55.789062 92.515625 C 56.382812 91.285156 57.214844 90.242188 58.285156 89.386719 C 59.390625 88.511719 60.625 87.890625 61.988281 87.523438 C 63.457031 87.097656 64.957031 86.886719 66.484375 86.894531 C 67.3125 86.902344 68.132812 86.964844 68.953125 87.085938 C 69.734375 87.207031 70.5 87.382812 71.257812 87.605469 C 71.910156 87.78125 72.542969 88.019531 73.148438 88.320312 C 73.550781 88.492188 73.925781 88.714844 74.273438 88.976562 L 74.632812 89.445312 C 74.695312 89.605469 74.75 89.769531 74.796875 89.9375 L 74.796875 90.707031 C 74.796875 90.707031 74.796875 91.417969 74.796875 91.882812 C 74.796875 92.351562 74.796875 92.84375 74.796875 93.199219 C 74.816406 93.492188 74.816406 93.785156 74.796875 94.078125 C 74.738281 94.269531 74.648438 94.445312 74.519531 94.601562 C 74.378906 94.695312 74.226562 94.742188 74.054688 94.738281 C 73.714844 94.695312 73.40625 94.574219 73.121094 94.378906 L 71.53125 93.558594 C 70.835938 93.226562 70.113281 92.960938 69.363281 92.761719 C 68.46875 92.5 67.554688 92.371094 66.621094 92.378906 C 65.9375 92.371094 65.269531 92.46875 64.621094 92.679688 C 64.09375 92.84375 63.617188 93.097656 63.195312 93.449219 C 62.8125 93.773438 62.519531 94.167969 62.316406 94.628906 C 62.140625 95.105469 62.046875 95.597656 62.042969 96.109375 C 62.03125 96.84375 62.242188 97.511719 62.671875 98.109375 C 63.144531 98.71875 63.710938 99.222656 64.371094 99.621094 C 65.136719 100.09375 65.933594 100.503906 66.757812 100.855469 C 67.664062 101.238281 68.570312 101.621094 69.5 102.058594 C 70.445312 102.488281 71.359375 102.972656 72.246094 103.515625 C 73.140625 104.054688 73.933594 104.710938 74.632812 105.488281 C 75.367188 106.296875 75.933594 107.210938 76.332031 108.230469 C 76.773438 109.398438 76.980469 110.605469 76.960938 111.851562 C 76.984375 113.507812 76.636719 115.078125 75.921875 116.570312 Z M 116.679688 127.019531 C 116.648438 127.335938 116.566406 127.636719 116.429688 127.925781 C 116.355469 128.101562 116.238281 128.238281 116.074219 128.335938 C 115.9375 128.378906 115.800781 128.378906 115.664062 128.335938 C 114.871094 128.292969 114.101562 128.128906 113.359375 127.84375 C 112.28125 127.488281 111.25 127.03125 110.261719 126.472656 C 109.070312 125.824219 107.9375 125.09375 106.859375 124.277344 C 105.699219 123.386719 104.636719 122.390625 103.675781 121.289062 C 102.714844 121.71875 101.71875 122.050781 100.6875 122.273438 C 99.40625 122.5625 98.105469 122.699219 96.792969 122.6875 C 94.378906 122.726562 92.019531 122.378906 89.714844 121.644531 C 87.777344 121.003906 86.105469 119.941406 84.695312 118.460938 C 83.28125 116.863281 82.285156 115.035156 81.707031 112.976562 C 80.976562 110.355469 80.636719 107.6875 80.691406 104.96875 C 80.65625 102.398438 81.011719 99.882812 81.761719 97.425781 C 82.441406 95.304688 83.53125 93.421875 85.027344 91.773438 C 86.496094 90.167969 88.242188 88.960938 90.265625 88.15625 C 92.597656 87.273438 95.011719 86.851562 97.507812 86.894531 C 99.859375 86.855469 102.152344 87.203125 104.390625 87.933594 C 106.320312 88.601562 107.992188 89.671875 109.410156 91.144531 C 110.875 92.730469 111.917969 94.558594 112.535156 96.628906 C 113.277344 99.171875 113.625 101.769531 113.578125 104.417969 C 113.582031 105.890625 113.480469 107.351562 113.277344 108.808594 C 113.054688 110.050781 112.722656 111.269531 112.289062 112.457031 C 111.921875 113.570312 111.4375 114.628906 110.835938 115.636719 C 110.300781 116.574219 109.652344 117.425781 108.890625 118.1875 C 109.808594 119.011719 110.796875 119.742188 111.851562 120.382812 C 112.542969 120.796875 113.253906 121.171875 113.992188 121.507812 C 114.566406 121.753906 115.03125 121.945312 115.390625 122.054688 C 115.703125 122.144531 115.976562 122.296875 116.210938 122.523438 C 116.457031 122.796875 116.59375 123.117188 116.625 123.480469 C 116.695312 124.113281 116.695312 124.742188 116.625 125.375 C 116.679688 125.921875 116.699219 126.46875 116.679688 127.019531 Z M 138.921875 120.683594 C 138.902344 120.996094 138.839844 121.296875 138.730469 121.589844 C 138.671875 121.804688 138.5625 121.984375 138.402344 122.136719 C 138.246094 122.179688 138.089844 122.179688 137.933594 122.136719 L 122.054688 122.136719 C 121.757812 122.160156 121.472656 122.121094 121.195312 122.015625 C 120.917969 121.90625 120.679688 121.746094 120.476562 121.53125 C 120.273438 121.3125 120.128906 121.0625 120.039062 120.78125 C 119.949219 120.496094 119.925781 120.210938 119.96875 119.917969 L 119.96875 88.484375 C 119.96875 88.300781 120.023438 88.136719 120.132812 87.988281 C 120.296875 87.867188 120.480469 87.796875 120.683594 87.769531 C 121.03125 87.652344 121.386719 87.582031 121.753906 87.550781 C 122.320312 87.519531 122.886719 87.519531 123.453125 87.550781 C 124.027344 87.515625 124.605469 87.515625 125.179688 87.550781 C 125.519531 87.585938 125.847656 87.660156 126.167969 87.769531 C 126.394531 87.824219 126.585938 87.933594 126.746094 88.097656 C 126.855469 88.246094 126.910156 88.410156 126.910156 88.59375 L 126.910156 116.351562 L 137.878906 116.351562 C 138.054688 116.351562 138.210938 116.40625 138.347656 116.515625 C 138.507812 116.632812 138.621094 116.789062 138.675781 116.980469 C 138.78125 117.273438 138.84375 117.574219 138.867188 117.886719 C 138.984375 118.800781 138.984375 119.714844 138.867188 120.628906 Z M 138.921875 120.683594 " fill-opacity="1" fill-rule="nonzero"/></g></svg>